<svg id="svg" xmlns="http://www.w3.org/2000/svg" xmlns:xlink="http://www.w3.org/1999/xlink" width="400" height="200" viewBox="0, 0, 400,200"><g id="svgg"><path id="path0" d="M113.875 23.317 C 112.345 23.712,110.579 24.300,109.951 24.625 C 109.323 24.950,108.754 25.168,108.687 25.108 C 108.620 25.049,108.123 25.287,107.582 25.637 C 107.042 25.987,106.090 26.399,105.467 26.553 C 104.844 26.706,103.429 27.455,102.322 28.216 C 101.216 28.977,100.085 29.600,99.809 29.600 C 99.534 29.600,98.699 30.137,97.954 30.794 C 97.209 31.450,96.473 31.990,96.318 31.994 C 95.975 32.001,93.101 33.929,92.809 34.347 C 92.694 34.511,92.015 34.882,91.300 35.171 C 90.585 35.460,90.000 35.945,90.000 36.249 C 90.000 36.552,89.713 36.800,89.362 36.800 C 88.615 36.800,86.674 38.105,85.069 39.686 C 84.447 40.299,83.748 40.800,83.515 40.800 C 83.282 40.800,82.711 41.209,82.246 41.708 C 81.781 42.208,80.725 43.033,79.900 43.541 C 79.075 44.049,78.400 44.618,78.400 44.806 C 78.400 44.993,78.044 45.259,77.608 45.397 C 77.173 45.536,76.528 46.133,76.176 46.724 C 75.824 47.316,74.920 48.250,74.167 48.800 C 73.414 49.350,72.692 50.192,72.563 50.672 C 72.433 51.151,71.718 51.832,70.973 52.186 C 70.228 52.539,69.127 53.474,68.525 54.262 C 67.924 55.051,66.750 56.127,65.916 56.653 C 65.082 57.179,64.400 57.834,64.400 58.108 C 64.400 58.382,63.809 59.148,63.087 59.811 C 62.364 60.474,61.539 61.582,61.252 62.273 C 60.966 62.965,60.342 63.631,59.866 63.754 C 59.087 63.955,58.426 64.773,56.913 67.407 C 56.645 67.874,55.970 68.747,55.413 69.348 C 54.856 69.949,54.400 70.674,54.400 70.959 C 54.400 71.243,54.026 71.814,53.569 72.228 C 53.112 72.641,52.286 73.936,51.733 75.104 C 51.181 76.272,50.295 77.513,49.764 77.860 C 49.225 78.214,48.800 78.883,48.800 79.379 C 48.800 79.867,48.681 80.386,48.535 80.532 C 47.762 81.304,46.067 87.693,46.394 88.600 C 46.473 88.820,46.653 90.374,46.794 92.054 C 46.968 94.115,47.270 95.327,47.725 95.783 C 48.096 96.154,48.400 96.703,48.400 97.003 C 48.400 97.303,49.030 97.776,49.800 98.054 C 50.570 98.333,51.206 98.840,51.213 99.180 C 51.236 100.341,52.770 101.055,59.800 103.177 C 60.460 103.376,61.722 103.541,62.605 103.543 C 63.487 103.545,64.697 103.733,65.294 103.960 C 66.097 104.265,66.799 104.224,67.995 103.802 C 68.884 103.488,69.697 103.220,69.801 103.205 C 70.380 103.124,71.536 102.690,72.532 102.180 C 74.380 101.234,75.152 101.415,75.113 102.786 C 75.094 103.439,75.307 104.248,75.587 104.584 C 76.595 105.800,75.717 111.600,74.524 111.600 C 74.222 111.600,73.878 111.852,73.760 112.161 C 73.641 112.469,73.198 112.812,72.774 112.923 C 72.351 113.033,71.887 113.430,71.743 113.804 C 71.600 114.178,70.907 115.112,70.205 115.879 C 68.011 118.273,68.562 123.291,71.074 123.800 C 71.693 123.925,72.753 124.202,73.428 124.414 C 74.104 124.626,75.049 124.800,75.528 124.800 C 76.008 124.800,76.400 124.980,76.400 125.200 C 76.400 126.418,80.847 125.207,81.610 123.781 C 81.899 123.241,82.425 122.800,82.778 122.800 C 83.132 122.800,83.998 122.273,84.703 121.629 C 85.408 120.985,86.351 120.343,86.797 120.201 C 87.243 120.059,87.881 119.416,88.215 118.772 C 88.548 118.127,89.096 117.600,89.433 117.600 C 89.770 117.600,90.890 116.727,91.923 115.659 C 92.955 114.592,94.295 113.599,94.900 113.452 C 95.573 113.288,96.377 112.587,96.973 111.642 C 97.531 110.759,98.385 109.990,98.973 109.842 C 99.538 109.701,100.000 109.408,100.000 109.192 C 100.000 108.977,100.315 108.794,100.700 108.787 C 101.085 108.781,102.246 108.361,103.279 107.854 L 105.158 106.933 105.628 108.066 C 105.886 108.690,106.234 109.200,106.402 109.200 C 106.570 109.200,106.801 109.560,106.916 110.000 C 107.039 110.469,107.462 110.800,107.939 110.800 C 108.387 110.800,108.864 110.980,109.000 111.200 C 109.136 111.420,109.532 111.600,109.880 111.600 C 110.227 111.600,110.737 111.909,111.013 112.286 C 111.584 113.067,118.972 113.406,120.764 112.733 C 121.294 112.534,122.734 112.212,123.964 112.017 C 127.391 111.473,129.102 110.955,129.811 110.246 C 130.166 109.891,130.939 109.597,131.529 109.594 C 132.761 109.587,133.366 109.251,133.679 108.400 C 133.885 107.838,134.934 107.451,139.098 106.399 C 140.032 106.163,141.112 105.649,141.498 105.256 C 142.313 104.428,145.691 103.069,147.323 102.913 C 147.940 102.854,149.037 102.355,149.760 101.803 C 150.484 101.251,151.608 100.800,152.258 100.800 C 153.601 100.800,154.400 100.174,154.400 99.120 C 154.400 98.671,154.696 98.400,155.186 98.400 C 155.619 98.400,156.508 97.877,157.162 97.237 C 157.816 96.597,158.915 95.951,159.603 95.799 C 160.291 95.648,160.951 95.272,161.070 94.962 C 161.188 94.653,161.671 94.399,162.143 94.398 C 162.614 94.396,163.516 94.126,164.146 93.798 C 164.776 93.469,165.631 93.200,166.046 93.200 C 166.461 93.200,167.133 92.867,167.541 92.459 C 167.970 92.030,169.188 91.600,170.441 91.436 C 172.774 91.129,174.400 90.308,174.400 89.434 C 174.400 89.133,174.855 88.773,175.410 88.633 C 175.966 88.494,176.776 88.024,177.210 87.590 C 178.166 86.634,178.445 88.277,177.495 89.271 C 177.218 89.562,176.783 90.269,176.530 90.843 C 176.238 91.503,175.644 91.971,174.911 92.118 C 174.118 92.276,173.511 92.799,172.986 93.775 C 172.563 94.559,172.023 95.200,171.784 95.200 C 171.240 95.200,169.446 97.591,169.383 98.399 C 169.358 98.730,169.306 99.316,169.268 99.703 C 169.231 100.089,168.750 100.797,168.200 101.275 C 167.650 101.753,167.200 102.438,167.200 102.797 C 167.200 103.156,166.660 103.968,166.000 104.600 C 165.340 105.232,164.800 105.979,164.800 106.259 C 164.800 106.540,164.451 107.094,164.025 107.491 C 162.645 108.777,162.250 116.332,163.454 118.406 C 164.316 119.889,168.323 122.050,169.596 121.717 C 170.038 121.601,170.400 121.692,170.400 121.919 C 170.400 122.658,176.423 121.427,177.800 120.407 C 178.020 120.244,178.740 119.982,179.400 119.826 C 180.060 119.669,180.960 119.215,181.400 118.816 C 181.840 118.418,182.646 117.956,183.191 117.790 C 183.736 117.624,185.061 116.884,186.136 116.144 C 187.210 115.405,188.340 114.800,188.645 114.800 C 188.950 114.800,189.200 114.620,189.200 114.400 C 189.200 114.180,189.457 114.000,189.771 114.000 C 190.086 114.000,190.581 113.767,190.871 113.483 C 191.162 113.199,192.030 112.728,192.800 112.436 C 193.570 112.145,194.767 111.657,195.460 111.353 C 196.154 111.049,197.000 110.800,197.341 110.800 C 197.682 110.800,198.555 110.210,199.281 109.489 C 200.006 108.769,201.410 107.650,202.400 107.004 C 203.390 106.358,204.780 105.273,205.488 104.593 C 206.253 103.859,207.592 103.148,208.788 102.842 C 209.895 102.558,210.800 102.180,210.800 102.002 C 210.800 101.824,211.342 101.489,212.005 101.258 C 212.668 101.027,213.332 100.514,213.481 100.119 C 213.901 99.003,217.109 96.038,218.189 95.767 C 218.722 95.633,219.431 95.107,219.765 94.598 C 220.099 94.088,221.010 93.461,221.791 93.203 C 225.868 91.858,226.098 83.887,222.124 81.688 C 220.852 80.984,214.921 80.919,214.238 81.602 C 214.019 81.821,212.974 82.000,211.917 82.000 C 209.941 82.000,209.777 82.095,206.442 85.200 C 205.851 85.750,204.775 86.643,204.051 87.185 C 203.014 87.961,202.768 88.399,202.892 89.248 C 203.056 90.361,201.293 91.487,198.344 92.154 C 197.655 92.310,197.201 92.741,197.037 93.397 C 196.859 94.103,196.513 94.400,195.868 94.400 C 194.985 94.400,193.200 96.262,193.200 97.184 C 193.200 97.413,192.952 97.600,192.649 97.600 C 192.346 97.600,191.892 97.848,191.640 98.152 C 191.388 98.455,190.689 98.802,190.086 98.923 C 189.482 99.044,188.559 99.515,188.033 99.971 C 187.508 100.427,186.958 100.800,186.811 100.800 C 186.664 100.800,185.950 101.330,185.224 101.979 C 184.497 102.627,183.340 103.271,182.652 103.409 C 181.963 103.547,181.040 103.757,180.600 103.875 C 179.581 104.149,180.286 103.330,181.658 102.646 C 182.168 102.392,182.769 101.814,182.995 101.361 C 183.220 100.908,183.725 100.218,184.115 99.828 C 184.506 99.437,185.038 98.322,185.298 97.350 C 185.573 96.320,186.404 94.903,187.287 93.956 C 188.120 93.062,188.904 91.851,189.027 91.265 C 189.151 90.679,189.486 89.750,189.772 89.200 C 190.187 88.402,190.828 84.313,190.869 82.200 C 190.889 81.200,190.491 77.565,190.353 77.487 C 188.790 76.603,188.310 76.400,187.777 76.400 C 187.428 76.400,186.892 76.175,186.585 75.900 C 186.279 75.625,185.781 75.195,185.479 74.945 C 184.422 74.069,178.262 74.657,177.558 75.701 C 177.424 75.899,176.531 76.166,175.572 76.294 C 174.613 76.423,173.642 76.677,173.414 76.858 C 171.099 78.701,170.412 79.063,169.088 79.140 C 168.257 79.187,166.985 79.559,166.261 79.966 C 165.538 80.372,164.373 80.830,163.673 80.984 C 162.973 81.138,162.400 81.513,162.400 81.818 C 162.400 82.553,161.475 83.003,158.700 83.618 C 157.371 83.912,156.400 84.342,156.400 84.637 C 156.400 84.917,156.040 85.260,155.600 85.400 C 155.160 85.540,154.800 85.813,154.800 86.008 C 154.800 86.469,151.678 88.603,150.431 88.994 C 149.898 89.161,149.097 89.637,148.652 90.052 C 148.053 90.610,147.504 90.743,146.547 90.564 C 145.805 90.424,145.027 90.513,144.726 90.771 C 140.890 94.056,138.374 95.614,137.586 95.193 C 136.862 94.805,136.464 94.990,134.611 96.573 C 133.389 97.617,132.070 98.400,131.532 98.400 C 131.015 98.400,130.368 98.760,130.093 99.200 C 129.808 99.657,129.160 100.000,128.584 100.000 C 128.029 100.000,127.471 100.270,127.345 100.600 C 127.212 100.945,126.614 101.200,125.936 101.200 C 125.288 101.200,124.095 101.650,123.286 102.200 C 122.477 102.750,121.465 103.200,121.039 103.200 C 120.612 103.200,119.958 103.476,119.585 103.813 C 118.170 105.094,112.800 104.456,112.800 103.008 C 112.800 102.344,115.027 100.800,115.984 100.800 C 116.790 100.800,118.400 99.512,118.400 98.868 C 118.400 98.685,119.210 97.954,120.200 97.243 C 121.190 96.532,122.000 95.712,122.000 95.422 C 122.000 95.131,122.315 94.790,122.700 94.664 C 126.836 93.312,128.648 92.487,128.996 91.800 C 129.677 90.453,131.328 88.400,131.731 88.400 C 132.273 88.400,135.749 86.671,136.055 86.249 C 136.196 86.056,136.497 86.013,136.725 86.154 C 137.501 86.633,139.062 85.539,139.557 84.167 C 139.829 83.415,140.215 82.800,140.414 82.800 C 140.870 82.800,145.600 78.079,145.600 77.624 C 145.600 77.271,147.542 76.608,148.153 76.752 C 148.976 76.946,151.657 74.614,151.878 73.511 C 152.026 72.768,152.538 72.142,153.334 71.731 C 154.009 71.382,154.809 70.848,155.112 70.546 C 155.415 70.243,156.004 69.812,156.422 69.588 C 156.840 69.365,157.329 68.613,157.509 67.917 C 157.738 67.034,158.434 66.250,159.819 65.313 C 163.335 62.933,164.336 61.939,165.471 59.696 C 166.207 58.241,166.933 57.373,167.613 57.136 C 168.752 56.738,170.000 54.922,170.000 53.662 C 170.000 53.214,170.186 52.732,170.413 52.592 C 170.815 52.343,171.641 50.636,172.925 47.400 C 173.539 45.853,173.590 44.858,173.119 43.600 C 172.995 43.270,172.664 42.234,172.383 41.298 C 171.422 38.103,168.482 36.736,164.399 37.585 C 163.190 37.837,161.480 38.182,160.600 38.352 C 158.711 38.718,154.737 40.666,154.280 41.451 C 154.104 41.753,153.526 42.000,152.996 42.000 C 152.465 42.000,151.638 42.405,151.157 42.900 C 150.485 43.591,150.339 43.638,150.529 43.100 C 150.689 42.643,150.347 41.912,149.546 41.000 C 148.870 40.230,148.450 39.600,148.613 39.600 C 148.775 39.600,148.450 39.240,147.891 38.800 C 147.331 38.360,146.699 38.000,146.486 38.000 C 146.273 38.000,145.871 37.727,145.594 37.392 C 145.030 36.713,140.813 36.764,139.386 37.467 C 138.954 37.680,137.430 37.825,136.000 37.788 C 133.885 37.734,133.258 37.868,132.642 38.506 C 131.799 39.379,128.931 40.784,128.000 40.780 C 127.310 40.777,122.502 43.153,121.688 43.900 C 121.388 44.175,120.965 44.400,120.748 44.400 C 120.531 44.400,120.458 44.570,120.586 44.777 C 120.714 44.984,120.184 45.455,119.409 45.822 C 118.634 46.190,118.000 46.651,118.000 46.846 C 118.000 47.041,117.653 47.200,117.229 47.200 C 116.805 47.200,116.104 47.650,115.671 48.200 C 115.239 48.750,114.722 49.200,114.522 49.200 C 113.909 49.200,112.006 50.182,112.003 50.500 C 112.001 50.665,111.754 50.800,111.453 50.800 C 110.867 50.800,107.149 54.332,107.032 55.000 C 106.855 56.008,105.901 57.193,104.802 57.770 C 104.141 58.116,103.015 58.702,102.300 59.072 C 101.077 59.704,99.660 61.202,99.943 61.564 C 100.014 61.654,99.786 61.888,99.436 62.084 C 99.086 62.280,98.800 62.630,98.800 62.862 C 98.800 63.095,98.350 63.639,97.800 64.071 C 97.250 64.504,96.800 65.072,96.800 65.334 C 96.800 65.596,95.543 67.157,94.008 68.805 C 92.472 70.452,91.212 71.943,91.208 72.117 C 91.197 72.537,90.501 73.414,88.789 75.160 C 88.013 75.952,87.025 77.320,86.593 78.200 C 86.162 79.080,85.457 80.209,85.026 80.709 C 84.596 81.208,84.201 81.915,84.147 82.279 C 84.094 82.642,83.769 83.098,83.425 83.290 C 83.081 83.482,82.800 83.901,82.800 84.220 C 82.800 84.539,82.628 84.800,82.418 84.800 C 82.208 84.800,81.918 85.433,81.773 86.206 C 81.628 86.979,81.286 87.744,81.013 87.906 C 80.740 88.068,80.328 88.561,80.097 89.001 C 79.851 89.471,78.875 90.029,77.739 90.351 C 72.837 91.736,71.721 92.086,70.600 92.585 C 69.789 92.945,68.686 93.034,67.200 92.857 C 65.868 92.699,64.445 92.781,63.593 93.064 C 60.900 93.960,56.716 92.474,55.695 90.258 C 54.553 87.780,54.488 87.354,55.044 86.031 C 55.350 85.304,55.600 84.161,55.600 83.493 C 55.600 82.285,57.279 78.246,57.955 77.828 C 58.149 77.708,58.429 76.798,58.578 75.805 C 58.737 74.745,59.061 74.000,59.362 74.000 C 59.643 74.000,60.217 73.330,60.637 72.511 C 61.522 70.783,61.936 70.193,62.900 69.283 C 63.285 68.920,63.600 68.225,63.600 67.739 C 63.600 67.129,63.877 66.816,64.496 66.728 C 65.018 66.653,65.452 66.266,65.535 65.800 C 65.613 65.360,66.078 64.550,66.566 64.000 C 67.055 63.450,67.767 62.497,68.148 61.882 C 68.530 61.267,69.249 60.578,69.746 60.352 C 70.244 60.125,70.988 59.312,71.401 58.546 L 72.152 57.151 72.668 58.135 C 73.766 60.232,78.069 60.866,83.800 59.776 C 85.560 59.441,87.810 59.062,88.800 58.933 C 89.790 58.804,90.870 58.466,91.200 58.183 C 91.530 57.899,92.970 57.368,94.400 57.003 C 95.830 56.637,97.171 56.172,97.380 55.969 C 97.589 55.766,98.084 55.600,98.480 55.600 C 98.876 55.600,99.200 55.420,99.200 55.200 C 99.200 54.980,99.465 54.800,99.788 54.800 C 100.112 54.800,101.360 54.350,102.563 53.800 C 103.765 53.250,104.868 52.800,105.014 52.800 C 105.349 52.800,108.002 51.655,108.800 51.166 C 109.130 50.964,109.805 50.623,110.300 50.409 C 110.795 50.195,111.205 49.790,111.210 49.510 C 111.216 49.229,112.386 48.466,113.810 47.814 C 115.235 47.162,116.400 46.499,116.400 46.341 C 116.400 46.183,116.739 45.946,117.153 45.815 C 117.568 45.683,118.466 45.041,119.150 44.388 C 119.833 43.735,120.547 43.200,120.737 43.200 C 120.926 43.200,121.512 42.626,122.040 41.925 C 122.568 41.224,123.315 40.374,123.700 40.036 C 124.085 39.698,124.400 39.211,124.400 38.954 C 124.400 38.696,124.660 38.386,124.978 38.264 C 125.542 38.047,127.600 34.147,127.600 33.295 C 127.600 33.059,127.797 32.801,128.038 32.721 C 128.735 32.488,128.850 27.705,128.164 27.442 C 127.854 27.322,127.600 26.909,127.600 26.522 C 127.600 23.125,120.788 21.534,113.875 23.317 M121.217 26.852 C 122.694 27.295,123.761 30.006,122.713 30.654 C 122.541 30.760,122.400 31.355,122.400 31.975 C 122.400 32.595,122.111 33.342,121.758 33.635 C 121.405 33.927,120.959 34.583,120.766 35.091 C 120.572 35.599,119.984 36.178,119.458 36.378 C 118.932 36.578,118.112 37.372,117.636 38.142 C 117.160 38.912,115.803 40.184,114.619 40.970 C 113.436 41.755,112.407 42.534,112.334 42.699 C 112.147 43.120,107.205 45.600,106.553 45.600 C 106.259 45.600,105.718 46.059,105.350 46.620 C 104.982 47.181,104.444 47.549,104.154 47.438 C 103.863 47.326,103.537 47.379,103.428 47.555 C 103.319 47.731,102.071 48.446,100.656 49.143 C 99.240 49.840,97.975 50.689,97.844 51.030 C 97.713 51.372,97.416 51.534,97.185 51.391 C 96.954 51.248,96.518 51.336,96.217 51.586 C 95.916 51.836,95.159 52.129,94.535 52.238 C 92.140 52.656,91.779 52.737,91.100 53.007 C 90.715 53.160,90.400 53.536,90.400 53.843 C 90.400 54.149,90.112 54.400,89.760 54.400 C 89.409 54.400,88.554 54.642,87.860 54.939 C 81.544 57.638,75.361 58.604,74.966 56.953 C 74.814 56.319,74.519 55.582,74.310 55.316 C 74.039 54.973,74.228 54.758,74.965 54.573 C 75.886 54.342,76.168 53.975,76.062 53.145 C 76.044 53.004,76.498 52.554,77.070 52.145 C 77.643 51.735,79.038 50.500,80.172 49.400 C 83.492 46.179,86.562 43.611,87.100 43.605 C 87.375 43.602,87.600 43.350,87.600 43.043 C 87.600 42.737,88.005 42.381,88.500 42.253 C 88.995 42.124,89.940 41.511,90.600 40.891 C 92.433 39.168,96.216 36.400,96.736 36.400 C 96.991 36.400,97.200 36.220,97.200 36.000 C 97.200 35.780,97.470 35.600,97.800 35.600 C 98.130 35.600,98.400 35.438,98.400 35.239 C 98.400 35.041,98.940 34.690,99.600 34.460 C 100.260 34.230,100.800 33.872,100.800 33.664 C 100.800 33.457,101.250 33.174,101.800 33.036 C 102.350 32.898,102.800 32.608,102.800 32.392 C 102.800 32.177,103.231 32.000,103.757 32.000 C 104.284 32.000,104.818 31.730,104.945 31.400 C 105.071 31.070,105.496 30.787,105.887 30.771 C 106.279 30.755,107.140 30.407,107.800 29.998 C 110.947 28.049,112.506 27.429,116.200 26.659 C 117.772 26.332,119.731 26.407,121.217 26.852 M180.103 41.108 C 176.986 43.890,178.377 50.723,182.200 51.412 C 184.770 51.875,189.761 51.229,190.626 50.321 C 191.762 49.129,191.752 45.778,190.610 44.879 C 190.032 44.424,189.574 43.940,189.593 43.802 C 189.611 43.664,188.848 43.137,187.898 42.632 C 185.465 41.338,184.232 40.632,184.000 40.400 C 183.323 39.723,181.228 40.104,180.103 41.108 M163.200 44.951 C 163.200 45.254,162.930 45.726,162.600 46.000 C 162.270 46.274,162.000 46.832,162.000 47.241 C 162.000 47.693,161.622 48.080,161.036 48.227 C 159.761 48.547,156.673 51.535,155.966 53.133 C 155.657 53.830,155.224 54.401,155.002 54.403 C 154.781 54.404,153.880 55.116,153.000 55.983 C 152.120 56.851,151.181 57.570,150.914 57.580 C 150.259 57.607,147.200 60.448,147.200 61.029 C 147.200 61.283,146.480 61.990,145.600 62.600 C 144.720 63.210,144.000 63.864,144.000 64.054 C 144.000 64.244,143.655 64.400,143.233 64.400 C 142.790 64.400,142.106 64.981,141.616 65.775 C 141.091 66.623,140.237 67.324,139.383 67.606 C 138.622 67.857,137.994 68.183,137.986 68.331 C 137.978 68.479,137.542 69.125,137.017 69.767 L 136.063 70.934 136.821 68.637 C 137.238 67.374,138.033 65.801,138.589 65.140 C 139.145 64.479,139.600 63.772,139.600 63.569 C 139.600 63.366,139.876 63.200,140.213 63.200 C 141.163 63.200,143.480 60.657,143.782 59.284 C 143.990 58.335,144.327 57.992,145.250 57.789 C 146.589 57.495,147.200 56.363,147.200 54.174 C 147.200 53.418,147.344 52.800,147.520 52.800 C 147.695 52.800,148.280 52.085,148.820 51.211 C 149.359 50.337,150.106 49.617,150.480 49.611 C 150.854 49.605,151.968 49.055,152.955 48.389 C 155.069 46.962,157.890 45.667,160.400 44.971 C 162.804 44.304,163.200 44.301,163.200 44.951 M140.430 47.143 C 140.212 47.552,139.575 48.186,139.016 48.553 C 138.457 48.919,137.999 49.439,137.999 49.709 C 137.998 49.979,137.459 50.560,136.800 51.000 C 136.141 51.440,135.602 52.040,135.601 52.333 C 135.599 53.459,132.717 56.393,131.154 56.861 C 130.299 57.117,129.600 57.497,129.600 57.705 C 129.600 57.914,129.060 58.884,128.400 59.862 C 127.740 60.840,127.200 61.781,127.200 61.954 C 127.200 62.340,124.925 64.400,124.499 64.400 C 123.870 64.400,122.016 66.445,121.329 67.898 C 120.938 68.724,119.219 70.789,117.509 72.487 C 115.799 74.185,114.400 75.748,114.400 75.960 C 114.400 76.172,114.022 76.466,113.561 76.613 C 113.099 76.759,112.410 77.176,112.029 77.539 C 109.084 80.351,109.017 80.367,107.310 78.713 C 105.070 76.542,100.216 77.148,97.791 79.903 C 97.260 80.506,96.820 80.820,96.814 80.600 C 96.794 79.876,98.390 77.579,99.102 77.307 C 99.486 77.160,99.980 76.894,100.200 76.716 C 100.420 76.537,101.082 76.030,101.671 75.589 C 102.260 75.148,102.961 74.115,103.228 73.294 C 103.495 72.472,103.958 71.656,104.257 71.480 C 104.555 71.304,104.800 70.899,104.800 70.580 C 104.800 70.261,104.986 70.000,105.213 70.000 C 105.439 70.000,105.741 69.685,105.883 69.300 C 106.304 68.159,109.045 65.600,109.853 65.594 C 111.009 65.584,111.495 65.116,111.877 63.642 C 112.165 62.532,112.444 62.263,113.414 62.161 C 114.675 62.027,116.000 60.743,116.000 59.655 C 116.000 59.281,116.713 58.655,117.657 58.200 C 118.568 57.760,119.440 57.130,119.594 56.800 C 120.453 54.958,120.773 54.613,122.003 54.199 C 122.745 53.949,123.423 53.532,123.509 53.272 C 123.596 53.013,124.090 52.800,124.607 52.800 C 126.136 52.800,127.419 52.146,128.916 50.606 C 130.822 48.643,135.576 46.910,140.314 46.450 C 140.693 46.413,140.724 46.595,140.430 47.143 M345.000 46.800 C 344.864 47.020,344.228 47.200,343.586 47.200 C 342.944 47.200,341.830 47.559,341.110 47.999 C 340.389 48.438,339.125 48.798,338.300 48.799 C 337.475 48.799,336.800 48.958,336.800 49.151 C 336.800 49.807,334.434 50.497,333.106 50.230 C 329.722 49.549,326.272 49.926,324.989 51.115 C 324.183 51.862,323.356 52.152,321.659 52.280 C 319.119 52.473,317.313 53.170,316.217 54.381 C 315.809 54.832,315.320 55.200,315.129 55.200 C 314.939 55.200,314.086 55.661,313.235 56.224 C 312.194 56.913,311.115 57.256,309.943 57.272 C 308.649 57.289,307.825 57.591,306.742 58.447 C 305.941 59.081,305.036 59.600,304.731 59.600 C 304.427 59.600,303.774 59.883,303.279 60.230 C 302.691 60.641,301.982 60.772,301.228 60.606 C 300.571 60.462,299.964 60.535,299.814 60.777 C 299.671 61.009,299.084 61.200,298.510 61.200 C 297.476 61.200,297.149 61.426,294.677 63.854 C 292.173 66.312,283.208 72.400,282.092 72.400 C 281.821 72.400,281.600 72.599,281.600 72.843 C 281.600 73.087,280.634 74.212,279.453 75.343 C 278.272 76.474,277.180 77.805,277.026 78.300 C 276.872 78.795,276.443 79.200,276.073 79.200 C 275.089 79.200,273.300 81.641,273.300 82.985 C 273.300 83.631,272.985 84.368,272.584 84.661 C 272.190 84.949,271.833 85.503,271.790 85.893 C 271.541 88.181,269.376 90.764,267.687 90.787 C 267.186 90.794,266.671 91.070,266.545 91.400 C 266.418 91.730,265.984 92.000,265.581 92.000 C 265.177 92.000,264.736 92.180,264.600 92.400 C 264.464 92.620,263.862 92.800,263.263 92.800 C 262.664 92.800,261.671 93.205,261.056 93.699 C 259.706 94.785,256.345 95.625,255.420 95.107 C 254.687 94.697,249.406 94.626,248.773 95.017 C 248.276 95.324,245.911 94.257,245.206 93.407 C 244.929 93.073,244.542 92.800,244.345 92.800 C 243.317 92.800,241.462 89.912,241.006 87.600 C 240.984 87.490,240.582 86.553,240.113 85.517 C 239.509 84.183,239.347 83.309,239.560 82.517 C 239.823 81.534,239.698 80.336,238.974 76.900 C 238.714 75.665,236.944 75.705,235.462 76.980 C 234.836 77.518,234.140 78.020,233.915 78.095 C 232.634 78.522,232.624 89.418,233.904 91.165 C 234.321 91.734,234.875 92.818,235.136 93.572 C 235.887 95.751,237.580 98.400,238.221 98.400 C 238.544 98.400,239.116 98.760,239.493 99.200 C 239.870 99.640,240.364 100.000,240.593 100.000 C 240.821 100.000,241.217 100.335,241.472 100.744 C 241.916 101.454,243.584 102.050,245.487 102.177 C 245.975 102.210,246.785 102.612,247.287 103.071 C 247.857 103.591,249.028 104.007,250.400 104.177 C 256.165 104.892,256.218 104.916,254.800 106.200 C 254.360 106.598,254.000 107.162,254.000 107.453 C 254.000 107.744,253.544 108.280,252.988 108.645 C 252.431 109.010,252.063 109.396,252.171 109.504 C 252.278 109.611,252.004 109.993,251.561 110.351 C 250.340 111.340,250.478 120.981,251.757 124.030 C 252.377 125.507,254.781 127.842,256.399 128.538 C 256.950 128.775,257.902 129.375,258.515 129.871 C 259.337 130.536,259.940 130.712,260.804 130.539 C 261.500 130.400,262.666 130.580,263.669 130.981 C 265.381 131.666,266.749 131.768,279.921 132.195 C 285.862 132.387,286.626 132.492,287.290 133.205 C 287.698 133.642,288.184 134.000,288.371 134.000 C 288.558 134.000,288.833 134.651,288.982 135.447 C 289.135 136.258,289.749 137.357,290.381 137.947 C 291.468 138.962,292.800 142.900,292.800 145.097 C 292.800 145.562,293.270 146.312,293.845 146.764 C 294.649 147.396,294.833 147.813,294.644 148.569 C 294.508 149.109,294.578 149.663,294.799 149.799 C 295.019 149.936,295.200 150.744,295.200 151.595 C 295.200 152.446,295.442 153.385,295.739 153.681 C 296.035 153.978,296.403 154.891,296.557 155.710 C 296.710 156.530,296.985 157.200,297.166 157.200 C 297.348 157.200,297.585 157.987,297.693 158.949 C 297.801 159.910,298.187 161.292,298.550 162.019 C 298.912 162.746,299.098 163.691,298.962 164.118 C 298.708 164.919,299.305 166.446,300.376 167.735 C 300.755 168.191,301.029 169.474,301.098 171.117 C 301.189 173.305,301.381 173.945,302.204 174.804 C 302.752 175.376,303.200 176.098,303.200 176.408 C 303.200 177.291,306.278 183.368,307.080 184.069 C 307.972 184.849,311.795 186.562,313.405 186.904 C 314.929 187.228,319.232 186.495,320.026 185.776 C 320.455 185.388,321.209 184.871,321.703 184.625 C 322.196 184.380,322.659 183.768,322.731 183.266 C 322.803 182.763,323.163 182.238,323.531 182.100 C 323.899 181.962,324.383 181.606,324.607 181.308 C 324.831 181.010,325.458 180.545,326.002 180.274 C 326.701 179.925,327.062 179.334,327.239 178.249 C 327.479 176.770,328.091 176.019,329.066 176.006 C 329.323 176.003,329.772 175.460,330.064 174.800 C 330.356 174.140,330.876 173.600,331.219 173.600 C 331.988 173.600,336.400 168.917,336.400 168.101 C 336.400 166.909,338.205 164.340,339.462 163.744 C 340.332 163.331,340.835 162.753,341.007 161.966 C 341.148 161.325,341.596 160.568,342.002 160.284 C 342.408 160.000,343.043 159.009,343.413 158.083 C 343.784 157.158,344.331 156.400,344.629 156.400 C 345.357 156.400,346.000 155.121,346.000 153.675 C 346.000 153.028,346.270 152.274,346.600 152.000 C 346.971 151.692,347.205 150.795,347.213 149.651 C 347.220 148.633,347.417 146.540,347.649 145.000 C 348.537 139.125,348.606 138.149,348.257 136.400 C 348.059 135.410,347.651 134.245,347.349 133.811 C 347.047 133.377,346.800 132.245,346.800 131.295 C 346.800 129.666,345.527 126.401,344.892 126.399 C 344.731 126.399,344.088 125.589,343.463 124.599 C 342.838 123.610,342.086 122.800,341.792 122.800 C 341.498 122.800,340.589 122.170,339.773 121.400 C 338.926 120.601,337.876 120.000,337.328 120.000 C 336.310 120.000,333.173 118.561,332.748 117.900 C 332.609 117.683,331.290 117.382,329.818 117.229 C 328.346 117.077,327.020 116.767,326.871 116.541 C 326.489 115.962,324.846 115.602,324.576 116.039 C 324.452 116.239,323.912 116.293,323.376 116.158 C 322.840 116.024,322.086 116.048,321.701 116.213 C 321.315 116.378,319.830 116.535,318.400 116.563 C 316.970 116.591,315.620 116.728,315.400 116.867 C 315.180 117.007,313.740 117.071,312.200 117.009 C 310.660 116.947,308.158 117.153,306.641 117.466 C 304.184 117.973,303.737 117.966,302.550 117.403 C 301.332 116.825,301.110 116.826,299.972 117.414 C 299.288 117.768,298.474 117.961,298.164 117.841 C 297.854 117.722,297.600 117.778,297.600 117.966 C 297.600 119.014,295.386 118.663,294.220 117.430 C 291.010 114.038,290.106 112.894,289.609 111.600 C 289.314 110.830,288.651 109.627,288.136 108.927 C 287.621 108.226,287.200 107.468,287.200 107.240 C 287.200 107.013,286.660 106.275,286.000 105.600 C 285.340 104.925,284.800 104.149,284.800 103.875 C 284.800 103.602,284.537 103.003,284.216 102.545 C 282.580 100.209,283.432 98.168,286.700 96.590 C 287.415 96.245,288.000 95.808,288.000 95.619 C 288.000 95.430,288.343 95.365,288.763 95.474 C 289.230 95.597,289.889 95.311,290.463 94.737 C 290.978 94.222,291.546 93.849,291.724 93.908 C 291.903 93.968,292.533 93.773,293.124 93.475 C 293.716 93.177,294.740 92.672,295.400 92.353 C 296.083 92.023,296.654 91.400,296.725 90.907 C 296.828 90.196,297.008 90.099,297.725 90.369 C 301.085 91.632,302.800 91.897,302.800 91.153 C 302.800 90.896,303.157 90.800,303.641 90.927 C 304.146 91.059,305.403 90.678,306.790 89.973 C 308.060 89.328,309.231 88.800,309.392 88.800 C 309.553 88.800,310.211 88.357,310.854 87.816 C 311.497 87.275,312.635 86.717,313.383 86.577 C 314.131 86.436,315.431 85.709,316.271 84.961 C 317.112 84.213,317.983 83.600,318.206 83.600 C 318.429 83.600,319.056 82.880,319.600 82.000 C 320.248 80.951,320.880 80.400,321.433 80.400 C 322.799 80.400,324.782 79.213,325.023 78.250 C 325.146 77.759,325.732 77.155,326.324 76.907 C 327.714 76.325,329.678 75.126,330.195 74.544 C 330.418 74.293,331.320 73.865,332.200 73.592 C 334.194 72.974,334.800 72.503,334.800 71.575 C 334.800 70.660,335.176 70.431,337.264 70.074 C 338.630 69.841,339.169 69.470,340.171 68.075 C 341.393 66.371,342.565 65.547,344.428 65.079 C 344.964 64.944,346.426 63.859,347.677 62.667 C 348.927 61.475,350.408 60.384,350.968 60.244 C 351.890 60.012,353.652 57.609,352.910 57.594 C 352.740 57.591,352.806 57.456,353.058 57.294 C 355.195 55.924,353.286 48.800,350.782 48.800 C 350.210 48.800,349.035 48.265,348.171 47.611 C 346.553 46.387,345.433 46.100,345.000 46.800 M322.974 64.442 C 322.852 64.639,322.403 64.800,321.976 64.800 C 321.549 64.800,321.200 64.958,321.200 65.151 C 321.200 65.345,320.660 65.727,320.000 66.000 C 319.340 66.273,318.800 66.611,318.800 66.751 C 318.800 66.890,318.215 67.262,317.500 67.577 C 316.785 67.891,315.656 68.700,314.991 69.374 C 314.326 70.048,313.246 70.870,312.591 71.200 C 311.936 71.530,310.950 72.207,310.400 72.704 C 309.850 73.201,309.159 73.516,308.864 73.403 C 308.570 73.290,307.888 73.545,307.349 73.968 C 306.371 74.738,306.368 74.737,305.239 73.669 C 303.887 72.390,304.476 71.200,306.462 71.200 C 307.088 71.200,307.968 70.832,308.418 70.382 C 308.868 69.932,310.472 69.067,311.982 68.460 C 313.493 67.854,314.989 67.141,315.307 66.877 C 315.625 66.613,316.752 66.235,317.812 66.037 C 318.910 65.832,320.009 65.338,320.369 64.887 C 321.289 63.734,323.662 63.329,322.974 64.442 M271.431 107.782 C 271.567 108.322,272.272 109.218,272.999 109.772 C 274.255 110.730,276.397 113.990,276.402 114.950 C 276.410 116.443,277.299 118.336,278.106 118.578 C 278.974 118.839,278.977 118.856,278.200 119.172 C 277.693 119.379,276.979 119.284,276.251 118.913 C 275.237 118.397,274.909 118.402,273.451 118.951 C 272.124 119.451,271.330 119.495,269.400 119.173 C 268.080 118.954,266.619 118.776,266.154 118.778 C 264.585 118.786,263.837 117.460,264.325 115.536 C 264.561 114.608,264.671 113.714,264.569 113.550 C 264.468 113.386,265.017 112.770,265.789 112.181 C 266.701 111.485,267.340 110.565,267.612 109.555 C 267.906 108.464,268.250 108.000,268.766 108.000 C 269.171 108.000,269.726 107.730,270.000 107.400 C 270.713 106.541,271.149 106.657,271.431 107.782 M225.787 113.649 C 225.340 113.867,224.356 114.950,223.601 116.056 C 222.846 117.163,221.715 118.333,221.089 118.658 C 220.462 118.982,219.166 120.001,218.208 120.923 C 214.889 124.118,214.198 124.788,213.800 125.194 C 213.580 125.419,212.320 126.655,211.000 127.942 C 209.680 129.229,207.970 131.053,207.200 131.996 C 205.653 133.890,202.318 137.314,200.690 138.679 C 200.104 139.171,199.445 140.316,199.195 141.279 C 198.933 142.288,198.270 143.414,197.592 144.000 C 196.014 145.364,195.137 150.649,196.564 150.192 C 197.024 150.045,198.281 149.790,199.358 149.626 C 200.815 149.405,201.515 149.056,202.091 148.264 C 202.518 147.679,203.208 147.200,203.624 147.200 C 204.041 147.200,204.676 146.750,205.037 146.200 C 205.397 145.650,205.912 145.200,206.181 145.200 C 206.450 145.200,207.429 144.390,208.357 143.400 C 209.438 142.246,210.385 141.600,210.993 141.600 C 212.279 141.600,213.048 140.739,213.387 138.920 C 213.676 137.368,214.370 136.472,215.925 135.640 C 216.406 135.383,216.800 134.943,216.800 134.664 C 216.800 133.971,219.193 131.751,220.300 131.417 C 220.795 131.268,221.200 130.978,221.200 130.773 C 221.200 130.568,221.470 130.400,221.800 130.400 C 222.130 130.400,222.400 130.144,222.400 129.831 C 222.400 129.518,222.940 128.722,223.600 128.062 C 224.260 127.402,224.806 126.713,224.814 126.531 C 224.842 125.894,226.608 124.091,227.457 123.834 C 227.928 123.691,228.418 123.264,228.545 122.887 C 228.673 122.509,228.948 121.930,229.157 121.600 C 232.671 116.048,230.652 111.284,225.787 113.649 M326.868 130.662 C 327.301 131.053,328.381 131.370,329.432 131.414 C 331.289 131.491,331.750 131.742,332.546 133.113 C 332.796 133.543,333.338 134.371,333.751 134.954 C 334.217 135.613,334.655 137.284,334.908 139.363 L 335.314 142.711 334.089 144.456 C 333.398 145.439,332.638 147.247,332.347 148.600 C 332.039 150.031,331.463 151.369,330.920 151.914 C 330.418 152.417,329.888 153.317,329.740 153.914 C 329.593 154.511,329.186 155.273,328.836 155.606 C 328.070 156.335,327.258 157.563,326.955 158.450 C 326.833 158.808,326.253 159.348,325.666 159.650 C 324.670 160.164,322.750 161.937,322.091 162.952 C 321.931 163.199,321.461 163.587,321.046 163.815 C 320.631 164.043,320.284 164.403,320.275 164.615 C 320.265 164.827,320.064 165.209,319.829 165.465 C 319.593 165.721,318.950 166.520,318.400 167.239 C 316.215 170.099,314.822 170.801,315.026 168.942 C 315.090 168.360,314.870 167.468,314.537 166.959 C 314.204 166.451,314.047 165.847,314.189 165.618 C 314.331 165.388,314.265 165.200,314.042 165.200 C 313.479 165.200,312.850 162.718,313.093 161.450 C 313.204 160.867,313.110 160.400,312.882 160.400 C 312.655 160.400,312.347 159.667,312.195 158.772 C 312.044 157.877,311.698 157.059,311.427 156.955 C 311.155 156.851,310.907 156.548,310.876 156.283 C 310.844 156.017,310.702 154.810,310.560 153.600 C 310.418 152.390,310.040 151.100,309.720 150.734 C 309.400 150.368,309.185 149.738,309.243 149.334 C 309.410 148.164,308.800 146.085,308.224 145.865 C 307.725 145.673,306.000 140.735,306.000 139.499 C 306.000 138.668,304.808 136.400,304.371 136.400 C 304.167 136.400,304.000 135.902,304.000 135.293 C 304.000 134.684,303.544 133.514,302.986 132.693 L 301.971 131.200 303.086 131.160 C 305.309 131.082,307.466 130.837,310.800 130.285 C 315.634 129.484,325.831 129.723,326.868 130.662 " stroke="none" fill="#000000" fill-rule="evenodd"></path></g></svg>