<svg width="32" height="52" viewBox="0 0 32 52" fill="none" xmlns="http://www.w3.org/2000/svg">
<path fill-rule="evenodd" clip-rule="evenodd" d="M12.3836 0.101864C12.348 0.159657 12.0458 0.244438 11.7121 0.290225C11.3783 0.336013 10.9752 0.42433 10.8163 0.486404C10.6573 0.54857 10.0248 0.691237 9.41086 0.803472C8.43052 0.982619 8.20026 1.07354 7.52217 1.54901C7.09755 1.84681 6.48144 2.22576 6.15311 2.39105C5.82478 2.55633 5.24402 2.98628 4.86253 3.34644C4.48105 3.70659 3.86976 4.20476 3.50423 4.45362C3.13861 4.70238 2.83942 4.94546 2.83942 4.99376C2.83942 5.27248 2.2259 5.77121 1.79868 5.83971C1.21448 5.93342 1.01474 6.23709 0.535286 7.75998C-0.232417 10.1987 -0.183248 12.2243 0.740408 16.2038C1.25048 18.4014 1.32535 19.0437 1.15047 19.72C0.910463 20.6483 0.942841 21.1874 1.26152 21.5673C1.48084 21.8287 1.6277 22.3804 2.02236 24.4252C2.29131 25.8189 2.6034 27.1418 2.71603 27.3651C2.82856 27.5883 3.01012 27.9403 3.11941 28.1472C3.22879 28.3542 3.43976 29.2674 3.58829 30.1766C3.90066 32.0892 4.07331 32.5592 4.7307 33.2882C6.14272 34.8536 6.22019 35.0948 5.77311 36.535C5.47837 37.4846 5.46955 37.6004 5.46222 40.6433L5.45462 43.7744L5.76281 44.4496C6.74009 46.5903 7.73648 48.177 8.70049 49.1275C9.22838 49.648 9.66024 50.1342 9.66024 50.2081C9.66024 50.3857 11.7096 51.3415 12.4072 51.4893C16.2471 52.303 18.6144 52.1418 19.2407 51.024C19.3801 50.7752 19.5888 50.5417 19.7046 50.5048C19.8204 50.4679 20.1179 50.1818 20.3657 49.869C20.7022 49.4442 20.9988 49.2215 21.5378 48.989C21.9348 48.8177 22.4095 48.5063 22.5928 48.2969C22.7799 48.083 23.0953 47.8787 23.3116 47.8311C24.4564 47.5789 24.6092 47.4358 25.3745 45.9009C25.7669 45.114 26.269 44.1832 26.4902 43.8324C27.2917 42.5619 28.0936 38.6899 27.779 37.6096C27.7263 37.4284 27.6781 36.821 27.6721 36.2596C27.6637 35.4826 27.6259 35.2525 27.5134 35.2958C27.0219 35.485 27.2161 33.3654 27.9963 30.0253C28.3069 28.6959 28.3901 28.5691 30.1023 26.8145C31.082 25.8106 31.8109 23.3067 31.2789 22.7731C31.0379 22.5314 31.0905 19.9498 31.3542 19.0734C32.1756 16.3433 32.1644 11.8296 31.3298 9.22015C31.1061 8.52069 30.8424 7.47698 30.7439 6.90073C30.6453 6.32457 30.4912 5.77075 30.4014 5.67005C30.3116 5.56936 30.2381 5.3327 30.2381 5.14424C30.2381 4.50089 28.9945 3.45765 28.0415 3.30149C27.7554 3.25458 27.3108 3.0933 27.0536 2.94301C26.7963 2.79271 26.0706 2.53548 25.4409 2.37132C24.8112 2.20715 23.7483 1.85816 23.079 1.59563C22.4097 1.3331 21.5487 1.05232 21.1658 0.971731C20.7827 0.891138 20.1829 0.720738 19.8329 0.593055C18.7973 0.215495 12.5667 -0.195288 12.3836 0.101864ZM20.7348 1.97226C21.1988 2.04345 22.2514 2.35922 23.0739 2.67396C23.8965 2.98879 24.9214 3.32643 25.3517 3.42443C26.4784 3.681 26.508 3.69338 26.5708 3.93441C26.6378 4.19164 27.3503 4.58186 27.9634 4.69726C28.207 4.74314 28.4457 4.87427 28.5122 4.99869C28.5768 5.11986 28.8615 5.48076 29.1449 5.80081C29.6253 6.34346 29.66 6.42685 29.66 7.03697C29.66 7.42747 29.7733 8.02187 29.9411 8.51166C30.0956 8.96293 30.2981 9.92707 30.3911 10.6542C30.5147 11.6204 30.6102 12.0043 30.746 12.0806C31.1205 12.2909 30.924 16.5685 30.5179 17.0446C30.333 17.2613 30.0068 19.2434 30.0068 20.1498V20.823L29.5444 20.9467L29.082 21.0706V20.2749V19.4793H28.6813C28.4609 19.4793 28.0918 19.5696 27.8611 19.68C27.3605 19.9194 27.1871 19.7766 27.0595 19.0189C26.9584 18.4184 26.0874 17.6238 25.5303 17.6238C25.3855 17.6238 25.267 17.5547 25.267 17.4701C25.267 17.3855 25.1369 17.1938 24.978 17.0439C24.7574 16.8361 24.6889 16.6546 24.6889 16.2776C24.6889 16.0058 24.6343 15.639 24.5674 15.4626C24.5005 15.2861 24.3674 14.1293 24.2715 12.8918C24.0165 9.60041 23.9558 9.49711 22.5231 9.91488C21.8477 10.1119 21.1709 10.0961 19.7179 9.84945C19.1447 9.75211 15.6684 9.36338 13.863 9.19475C13.0213 9.11611 12.9682 9.17279 12.8422 10.2813L12.7606 10.9984L11.9743 10.9322C11.0464 10.8543 11.0047 10.8958 10.8759 12.0284C10.7807 12.8664 10.8787 12.8382 9.37143 12.4618C7.45092 11.9824 6.13558 12.134 5.9055 12.8614C5.84538 13.0514 5.76476 13.0874 5.51947 13.0339C4.47641 12.8064 4.34235 12.5848 4.34235 11.0894C4.34235 9.94522 4.25858 9.73805 3.7961 9.73805C3.50804 9.73805 3.30189 10.102 3.30189 10.6108C3.30189 10.7636 3.19455 10.9889 3.06346 11.1115C2.64005 11.5072 2.05288 14.154 2.00659 15.8756C1.98942 16.5142 1.96576 16.3424 1.91993 15.2465C1.86093 13.8372 1.84033 13.7316 1.60376 13.6275C1.24612 13.47 1.23313 13.341 1.35698 11.1868C1.43361 9.8555 1.43037 9.21355 1.34669 9.11239C1.25985 9.0075 1.31626 8.67192 1.54494 7.93132C1.90333 6.7709 2.16727 6.55844 2.54068 7.13004C2.85491 7.61118 3.18351 7.47512 3.59793 6.69226C4.18816 5.57745 6.06869 3.54159 6.89437 3.12346C7.27864 2.92886 7.83705 2.59551 8.13532 2.38267C8.9687 1.7879 13.4539 1.16251 14.3636 1.5142C14.5426 1.58335 15.1202 1.73523 15.647 1.85156C16.2512 1.98492 16.75 2.17402 16.9976 2.36359C17.9058 3.05841 18.5864 2.53334 17.8106 1.73644L17.3829 1.29708L18.6371 1.56994C19.3269 1.72006 20.271 1.90107 20.7348 1.97226ZM17.3294 10.6827C18.4841 10.809 19.9638 10.9711 20.6176 11.0431C21.4406 11.1336 21.9816 11.1379 22.3763 11.0568C23.0763 10.9129 23.0379 10.8339 23.1932 12.7379C23.2588 13.5435 23.3683 14.5681 23.4364 15.0146C23.5797 15.9537 23.5869 16.2843 23.4734 16.7219C23.403 16.9934 23.4584 17.098 23.8683 17.467C24.1492 17.72 24.3989 18.0768 24.4762 18.3357C24.69 19.0512 25.6138 19.5969 25.6138 19.0076C25.6138 18.6057 25.9626 18.9877 26.0711 19.5083C26.249 20.3621 26.832 20.8709 27.6323 20.8709C27.9021 20.8709 27.9259 20.9122 27.9259 21.3786C27.9259 22.0699 28.1057 22.1971 28.9573 22.1078C29.697 22.0302 29.9155 22.416 29.2127 22.5587C28.593 22.6845 28.3306 22.8909 28.3306 23.2527C28.3306 23.6264 29.0021 23.7298 29.9937 23.5089L30.3852 23.4217L30.3115 23.9608C30.1637 25.0421 29.9997 25.4128 29.3755 26.0751C29.0375 26.4338 28.183 27.3344 27.4764 28.0764C26.77 28.8184 26.1919 29.5 26.1919 29.5909C26.1919 29.6818 25.985 29.9358 25.7322 30.1552C25.3366 30.4986 25.2222 30.7156 24.9107 31.7136C24.7117 32.3512 24.4503 33.0667 24.3299 33.3035C23.9629 34.0252 24.0273 34.439 24.5066 34.439C24.8866 34.439 24.9187 34.4038 25.3241 33.5403C25.5562 33.046 25.8676 32.4589 26.0164 32.2357C26.165 32.0124 26.3786 31.5303 26.4911 31.1644C26.7995 30.1609 26.8115 30.4349 26.5234 31.9035C26.2182 33.4585 26.131 36.8722 26.3941 36.961C26.4764 36.9887 26.5387 37.2025 26.5387 37.457C26.5387 37.7031 26.5907 37.9366 26.6543 37.976C26.9126 38.1363 26.7869 38.9323 26.4914 39.0067C26.2154 39.0763 26.2128 39.0906 26.1736 40.7983L26.1341 42.5198L25.6941 43.2051C25.452 43.582 24.9746 44.4736 24.633 45.1864C23.9748 46.5604 23.8846 46.6522 22.9984 46.8497C22.5896 46.9408 22.2918 47.1131 21.9145 47.4768C21.6283 47.7525 21.1442 48.0713 20.8385 48.185C20.4468 48.3307 20.128 48.5734 19.7589 49.0067C19.4709 49.3449 19.145 49.6503 19.0348 49.6854C18.9244 49.7206 18.7197 49.9536 18.5798 50.2035C18.135 50.9972 16.9703 51.2234 15.0937 50.8804C14.5532 50.7816 13.6949 50.6379 13.1862 50.561C10.7692 50.1956 9.22133 48.8767 7.53665 45.7475C6.63331 44.0697 6.62579 44.0485 6.4703 42.7564C6.21323 40.6198 6.61002 36.2666 7.11517 35.6821C7.15822 35.6323 7.59315 35.9496 8.08179 36.3873C10.0549 38.1547 13.3596 39.3036 13.3596 38.2221C13.3596 37.7742 13.2119 37.6857 12.0019 37.4085C11.0467 37.1897 9.6261 36.4136 8.90877 35.7187C8.59084 35.4106 7.95209 34.9178 7.48924 34.6235C6.94846 34.2796 6.51465 33.895 6.27539 33.5474C6.07054 33.2499 5.68896 32.761 5.42734 32.461C4.92274 31.8822 4.92813 31.9006 4.51899 29.3945C4.4252 28.8204 4.21516 27.8551 4.05206 27.2491C3.41508 24.8818 3.0707 21.5635 3.0707 17.7943C3.0707 14.6005 3.39819 12.2425 3.70639 13.2168C3.98684 14.103 6.30331 14.4298 6.71226 13.6408L6.94345 13.1947L7.63712 13.2593C8.01861 13.2949 8.73445 13.4312 9.22782 13.5623C11.4178 14.1443 11.7787 14.0428 11.9105 12.8089L11.9925 12.0411L12.7346 12.1208C13.692 12.2236 13.7886 12.139 13.8898 11.1092L13.9698 10.2951L14.5998 10.3741C14.9464 10.4176 16.1747 10.5565 17.3294 10.6827ZM10.6645 24.4891C9.95739 25.745 9.95971 26.3214 10.6718 26.3214C10.8769 26.3214 10.9878 26.2145 11.1235 25.8865C11.2224 25.6473 11.4842 25.1566 11.7052 24.796C12.219 23.9576 12.1945 23.6099 11.6182 23.5615C11.2132 23.5273 11.1975 23.5426 10.6645 24.4891Z" fill="white"/>
</svg>
