<svg width="1296" height="697" viewBox="0 0 1296 697" fill="none" xmlns="http://www.w3.org/2000/svg">
<path fill-rule="evenodd" clip-rule="evenodd" d="M646.9 291.437C647.551 291.606 648.614 291.606 649.265 291.437C649.913 291.266 649.382 291.126 648.083 291.126C646.784 291.126 646.252 291.266 646.9 291.437ZM631.24 321.127C631.34 331.979 641.14 338.02 647.755 331.309C649.495 329.546 651.157 328.1 651.452 328.1C652.42 328.1 652.845 325.923 652.061 324.977C650.768 323.418 646.667 323.91 642.455 326.13C637.939 328.512 638.364 328.703 635.267 322.857C632.273 317.212 631.198 316.749 631.24 321.127ZM521.356 329.452C521.356 330.751 521.496 331.283 521.664 330.634C521.833 329.983 521.833 328.92 521.664 328.269C521.496 327.621 521.356 328.152 521.356 329.452ZM479.371 338.515C476.838 345.188 488.387 356.649 494.63 353.652C498.404 351.837 500.325 342.955 496.943 342.955C496.237 342.955 493.956 344.514 491.87 346.419C489.787 348.324 487.956 349.76 487.804 349.608C487.652 349.455 486.116 346.756 484.386 343.609C480.447 336.438 480.243 336.231 479.371 338.515ZM644.875 338.694C645.527 338.862 646.589 338.862 647.24 338.694C647.888 338.525 647.357 338.386 646.058 338.386C644.759 338.386 644.227 338.525 644.875 338.694ZM490.668 357.608C491.507 357.77 492.722 357.764 493.366 357.595C494.011 357.427 493.324 357.294 491.841 357.301C490.357 357.31 489.829 357.446 490.668 357.608ZM791.502 574.323C785.934 574.864 781.353 575.357 781.32 575.415C780.238 577.525 782.82 602.214 784.852 609.168C789.108 623.76 789.105 623.718 787.991 631.78C786.64 641.567 783.724 650.426 779.066 658.903C775.602 665.203 774.818 667.407 772.01 678.722C770.27 685.725 768.42 692.485 767.892 693.742L766.937 696.033H930.231C1020.04 696.033 1093.53 695.858 1093.53 695.644C1093.53 694.834 1080.41 672.821 1078.08 669.727C1076.74 667.944 1069.9 660.449 1062.89 653.074C1055.87 645.698 1047.35 636.32 1043.94 632.237C1037.44 624.441 1033.99 621.074 1030.92 619.505C1024.76 616.359 977.662 602.869 972.845 602.869C971.899 602.869 967.914 602.14 963.991 601.252C960.065 600.361 953.819 599.333 950.106 598.967C946.394 598.601 939.561 597.379 934.922 596.252C923.282 593.429 908.769 590.885 901.512 590.403C881.978 589.103 873.014 587.687 854.943 583.047C848.263 581.329 841.884 579.926 840.77 579.926C839.656 579.926 835.405 579.197 831.323 578.306C827.238 577.411 821.621 576.313 818.835 575.862C816.052 575.412 811.345 574.625 808.374 574.116C805.407 573.607 802.672 573.225 802.3 573.264C801.931 573.306 797.071 573.782 791.502 574.323ZM449.995 581.255C448.139 581.566 440.765 581.848 433.606 581.88C420.852 581.938 417.009 582.321 394.99 585.701C376.638 588.517 345.437 599.674 335.897 606.829C333.603 608.549 330.137 610.811 328.19 611.855C326.246 612.898 324.762 613.835 324.895 613.942C325.491 614.408 476.511 600.539 477.084 599.962C477.421 599.628 480.029 585.704 480.029 584.252C480.029 581.663 459.652 579.628 449.995 581.255ZM396.004 610.72L318.387 617.733L311.302 620.743C307.404 622.399 302.241 624.499 299.827 625.41C297.414 626.323 293.464 627.97 291.054 629.071C288.641 630.173 281.808 632.746 275.867 634.788C262.97 639.221 251.534 643.702 249.208 645.235C248.282 645.848 245.548 647.455 243.134 648.806C240.721 650.161 234.799 653.544 229.975 656.33C215.812 664.5 204.797 670.08 197.579 672.74C182.224 678.402 166.061 688.625 162.783 694.75C162.109 696.007 165.206 696.033 326.087 696.033H490.078L488.824 693.165C488.134 691.587 487.37 687.864 487.12 684.895C486.871 681.924 485.792 676.276 484.726 672.348C481.717 661.272 481.357 659.253 480.674 649.71C480.324 644.807 479.595 638.867 479.057 636.515C478.516 634.162 477.897 627.983 477.68 622.785C476.935 604.965 476.741 603.533 475.079 603.627C474.276 603.672 438.692 606.864 396.004 610.72Z" fill="#63ABCB"/>
<path fill-rule="evenodd" clip-rule="evenodd" d="M646.058 276.897C644.017 277.646 639.611 279 636.271 279.911C632.801 280.857 629.763 282.102 629.186 282.814C628.629 283.501 626.575 284.432 624.621 284.885C617.005 286.651 602.233 297.922 598.763 304.613C596.842 308.32 597.794 327.047 600.127 331.409C601.083 333.191 601.028 333.502 599.771 333.502C594.127 333.502 610.199 346.808 618.499 349.005C621.223 349.728 626.287 351.14 629.756 352.145L636.067 353.969L644.607 351.221C649.301 349.708 655.119 348.104 657.532 347.657C659.943 347.21 667.384 345.538 674.067 343.937C680.747 342.339 688.121 340.816 690.447 340.554C694.95 340.045 698.027 337.718 698.027 334.828C698.027 334.128 698.604 333.013 699.307 332.349C701.095 330.66 702.88 324.448 701.866 323.437C701.358 322.929 701.056 318.453 700.972 310.219C700.833 296.82 700.489 293.871 699.019 293.544C698.497 293.427 696.469 292.034 694.506 290.443C692.546 288.852 688.056 285.711 684.528 283.463C681 281.21 677.812 279.02 677.443 278.589C674.731 275.446 653.208 274.285 646.058 276.897ZM652.407 291.693C676.082 296.068 677.184 312.595 655.239 334.147L650.804 338.506L646.236 338.493C635.043 338.454 625.788 329.73 624.809 318.295C623.659 304.821 625.807 299.432 633.89 295.511C642.517 291.324 646.255 290.553 652.407 291.693ZM497.578 296.813C491.73 297.951 479.355 302.07 479.355 302.876C479.355 303.482 478.484 303.816 476.822 303.849C467.31 304.046 452.752 315.116 450.708 323.706C450.442 324.818 449.946 325.897 449.606 326.108C448.586 326.739 447.377 334.429 448.252 334.721C448.657 334.857 448.838 335.213 448.654 335.515C447.413 337.524 451.122 347.68 453.098 347.68C454.038 347.68 454.563 348.477 455.139 350.771C456.536 356.306 464.848 366.581 467.929 366.581C470.226 366.581 471.823 368.244 470.148 368.889C461.806 372.09 494.857 371.909 505.34 368.694C513.465 366.202 516.342 364.556 512.571 364.556C510.222 364.556 509.678 363.636 511.583 362.887C512.231 362.631 516.342 362.022 520.718 361.536C545.132 358.817 553.668 345.839 548.19 319.759L546.509 311.755L543.813 310.381C542.333 309.623 540.055 307.808 538.753 306.344C534.545 301.619 506.377 295.099 497.578 296.813ZM505.677 315.022C520.43 319.623 521.447 320.56 521.447 329.546C521.447 335.861 519.756 338.82 510.75 348.25C498.248 361.335 481.241 360.92 475.617 347.394C474.813 345.463 474.36 344.996 473.945 345.674C472.51 347.991 471.638 335.81 472.821 329.986C473.718 325.579 486.281 313.301 490.852 312.365C493.651 311.794 497.575 312.497 505.677 315.022Z" fill="#CBCBCB"/>
<path fill-rule="evenodd" clip-rule="evenodd" d="M0.165211 3.02338V6.04353L10.7943 6.24768L21.4266 6.45183L10.7943 6.60089L0.165211 6.7532L0.187888 11.3093L0.213805 15.8655L1.77529 13.9568L3.33677 12.0482L76.4964 14.8026C116.735 16.3191 156.796 17.8681 165.52 18.2505C184.903 19.0963 421.81 32.823 433.123 33.7563C437.577 34.1224 503.937 39.5892 580.592 45.9017C657.244 52.2141 721.479 57.5415 723.335 57.7424C725.191 57.9434 779.402 64.6155 843.809 72.5677L960.907 87.0268L1002.95 94.655C1026.07 98.8482 1044.6 102.361 1044.12 102.461C1043.64 102.565 984.326 95.2091 912.313 86.1162C840.297 77.0266 778.644 69.2689 775.304 68.88C764.721 67.6486 476.326 46.0054 460.455 45.2503C263.547 35.8885 111.578 31.0343 16.1947 31.0537L0.165211 31.0569V33.0822V35.1076H4.38315C13.4443 35.114 145.963 37.0843 163.159 37.4699C180.558 37.8587 460.358 49.4921 471.593 50.2925C474.564 50.5032 542.896 55.6653 623.449 61.7639L769.904 72.8496L919.735 91.7774C1002.14 102.189 1074.12 111.473 1079.69 112.41L1089.81 114.114L1119.17 128.243L1148.53 142.368L1166.42 165.022L1184.3 187.677L1187.56 199.323C1189.35 205.73 1199.75 242.668 1210.67 281.411C1221.6 320.152 1230.53 352.44 1230.53 353.162C1230.53 353.885 1230.96 355.496 1231.48 356.746C1232.38 358.895 1232.02 360.752 1224.69 391.66C1220.43 409.615 1211.57 449.052 1205.01 479.299L1193.08 534.297L1190.71 534.818C1182.91 536.549 831.644 567.751 819.771 567.768C817.584 567.771 811.85 567.32 807.026 566.766C802.2 566.212 794.408 565.571 789.711 565.347L781.171 564.935L780.702 559.43C780.332 555.091 779.833 553.279 778.343 550.885C772.985 542.284 769.224 495.281 771.815 469.315L773.05 456.943L782.299 444.512C787.388 437.675 793.796 428.203 796.543 423.465C799.29 418.727 803.67 412.123 806.275 408.789C813.651 399.353 815.401 392.884 815.935 373.117L816.334 358.386L812.89 354.89L809.446 351.393L808.688 340.593C808.196 333.57 807.318 327.307 806.187 322.702L804.448 315.612L804.386 273.08C804.318 226.582 804.373 227.402 799.527 196.795C795.234 169.653 787.139 152.154 768.608 129.96C765.197 125.874 761.073 120.709 759.443 118.482C752.903 109.545 748.241 105.754 742.909 105.038C730.226 103.336 709.363 97.4645 697.013 92.1241C684.599 86.7514 660.976 80.4778 636.271 75.9897C611.372 71.466 608.414 70.6882 601.795 66.9228L595.776 63.504L577.89 61.3815C545.365 57.5188 543.852 57.6031 522.212 64.4697C515.901 66.4723 506.487 68.8865 501.29 69.8327C496.091 70.7822 488.802 72.4802 485.093 73.6047C481.38 74.7324 476.261 76.2716 473.718 77.0331C469.462 78.3002 468.354 79.0746 459.817 86.7417C454.167 91.8195 447.267 97.1955 442.155 100.504C433.152 106.33 430.22 109.568 417.599 127.611C415.169 131.085 409.86 136.976 404.33 142.339L395.11 151.279L391.608 159.277C387.244 169.248 384.455 172.307 378.666 173.48C371.292 174.971 368.406 181.04 364.204 203.873C358.57 234.466 358.953 251.566 365.652 269.029C367.363 273.485 369.507 280.209 370.414 283.968C372.397 292.154 374.279 297.027 379.171 306.622C381.192 310.589 384.717 319.095 387.001 325.524L391.154 337.216L391.462 346.669C391.686 353.597 391.462 358.01 390.62 363.208C389.988 367.106 389.301 374.041 389.094 378.617L388.715 386.938L393.153 391.442C399.37 397.752 401.106 402.211 410.443 435.834C418.697 465.549 423.68 474.104 438.896 484.688C442.194 486.982 446.282 491.778 446.282 493.35C446.282 493.654 447.973 500.268 450.04 508.049C454.99 526.694 457.916 531.241 470.877 540.457C479.997 546.938 479.841 546.575 480.178 562.58C480.457 575.853 480.45 575.956 479.064 575.545C469.578 572.748 428.218 573.853 402.078 577.603C375.352 581.433 344.796 591.553 332.56 600.626C320.473 609.59 309.685 614.69 300.779 615.649C287.883 617.039 66.6351 636.648 65.8705 636.466C65.3943 636.356 68.0313 628.057 72.7903 614.713C77.2803 602.11 80.481 592.107 80.481 590.659C80.481 589.294 74.8928 558.902 68.0637 523.12L55.6464 458.061L28.4889 367.596C13.5544 317.841 1.0723 276.842 0.748336 276.489C0.417899 276.126 0.165211 280.336 0.165211 286.236V296.622L24.5334 377.677L48.9016 458.735L61.3157 523.681C68.1447 559.404 73.7298 589.518 73.7298 590.607C73.7298 592.379 71.0247 600.555 65.9871 614.01C65.0153 616.609 63.4927 620.86 62.6018 623.459C59.1905 633.44 57.9951 636.337 56.6895 637.772C55.8893 638.647 55.5103 639.71 55.763 640.368C55.9995 640.977 55.2641 644.107 54.1303 647.322C52.9996 650.533 51.2762 655.501 50.3011 658.359C48.7007 663.045 48.4027 663.486 47.2397 662.863C45.3283 661.839 44.1232 662.611 42.7204 665.744L41.4602 668.557L22.3305 676.58C11.8115 680.991 2.52039 684.776 1.68458 684.99C-0.0939563 685.443 -0.702999 692.656 1.03666 692.656C1.51288 692.656 10.3861 689.011 20.7495 684.555C44.9136 674.166 41.9073 674.017 54.1594 686.227L63.9462 695.981L70.5258 696.007C74.1444 696.02 77.1022 695.806 77.0989 695.528C77.0957 695.249 71.3292 690.463 64.2831 684.896C55.8408 678.217 51.5742 674.422 51.7556 673.755C55.06 661.794 62.7832 643.339 64.6168 643.028C65.7312 642.84 74.9964 641.936 85.2044 641.022C139.642 636.142 151.515 635.083 179.693 632.581C263.291 625.15 278.903 623.76 282.955 623.375C288.858 622.811 288.469 623.021 274.856 627.727C260.673 632.626 247.255 638.025 244.654 639.879C243.61 640.621 241.401 641.972 239.739 642.879C238.08 643.787 232.469 647.034 227.273 650.093C215.64 656.946 201.272 664.205 194.57 666.616C180.733 671.593 169.842 678.194 160.962 686.982C156.417 691.483 152.695 695.362 152.695 695.599C152.695 696.863 162.064 696.004 162.475 694.701C164.137 689.471 181.417 678.45 196.902 672.74C204.123 670.08 215.134 664.5 229.298 656.331C234.125 653.544 240.047 650.161 242.46 648.806C244.871 647.455 247.605 645.848 248.535 645.235C250.861 643.702 262.293 639.221 275.193 634.788C281.131 632.746 287.967 630.17 290.377 629.068C292.791 627.963 297.044 626.194 299.827 625.141C302.61 624.088 307.748 621.971 311.24 620.442L317.59 617.655L396.823 610.526C440.402 606.605 476.239 603.578 476.459 603.799C476.683 604.022 477.259 610.879 477.739 619.039C478.221 627.198 478.924 635.024 479.3 636.431C479.679 637.837 480.44 644 480.991 650.125C481.733 658.372 482.595 663.456 484.312 669.704C485.588 674.344 486.968 681.098 487.383 684.711C488.468 694.16 489.505 696.033 493.652 696.033C497.384 696.033 497.325 696.134 495.582 692.715C494.857 691.292 493.93 687.468 493.528 684.218C493.123 680.971 491.591 673.437 490.124 667.478L487.454 656.638V641.58V626.524L485.867 626.126C483.946 625.643 482.073 602.869 483.955 602.869C485.549 602.869 487.879 574.557 486.835 567.846C485.345 558.231 487.062 557.826 500.95 564.54C505.962 566.964 511.732 569.728 513.776 570.684C515.817 571.643 519.649 573.973 522.296 575.862C525.221 577.953 528.127 579.459 529.718 579.712C531.156 579.939 534.15 581.352 536.365 582.849C548.533 591.067 580.459 602.399 584.852 600.059C591.098 596.731 589.456 595.328 574.045 590.843C565.224 588.277 544.62 579.881 543.771 578.507C542.018 575.668 531.15 567.188 527.923 566.144C525.895 565.486 522.895 563.911 521.256 562.641C518.052 560.162 516.173 559.738 515.554 561.348C514.89 563.088 513.092 562.499 501.627 556.779L490.49 551.225L486.502 545.609C483.12 540.849 481.354 539.167 474.914 534.559C468.859 530.227 466.688 528.211 464.223 524.633C460.653 519.455 461.139 520.904 455 497.216C451.65 484.286 448.537 474.279 444.293 462.785C434.493 436.255 430.47 423.757 426.793 408.439C421.872 387.936 420.855 383.717 418.146 372.657C413.63 354.225 412.778 348.415 413.562 341.487C413.899 338.519 413.692 333.454 412.953 326.636C409.108 291.065 408.603 281.729 409.843 269.366C410.2 265.841 410.802 259.46 411.181 255.189C411.564 250.922 412.367 245.387 412.966 242.895L414.058 238.365L416.478 239.379C419.177 240.503 419.757 240.954 426.106 246.816C430.823 251.168 431.681 251.515 439.648 252.257C443.347 252.6 444.254 252.5 444.245 251.741C444.232 250.886 438.893 246.796 437.684 246.719C436.201 246.621 434.215 245.568 433.881 244.7C433.674 244.159 432.9 243.715 432.161 243.715C431.296 243.715 429.906 242.399 428.257 240.02C426.851 237.992 425.196 236.158 424.583 235.947C423.971 235.737 423.297 234.891 423.087 234.068C421.84 229.191 417.923 224.81 414.803 224.81C408.616 224.81 408.23 225.522 406.092 240.847C401.829 271.369 401.641 285.206 405.039 317.974C406.484 331.876 406.937 339.089 406.678 343.966C406.432 348.619 406.659 352.605 407.404 356.795C408.803 364.66 408.748 364.942 406.675 360.505C403.38 353.464 396.325 330.622 397.138 329.64C397.685 328.979 397.601 328.084 396.811 326.231C394.87 321.671 391.64 303.654 390.733 292.322C389.794 280.585 388.835 277.468 386.162 277.468C384.202 277.468 383.515 279.626 383.515 285.786C383.515 291.12 383.418 291.515 382.009 291.881C379.884 292.439 379.693 292.092 377.765 284.198C376.816 280.31 374.535 273.181 372.698 268.355C369.391 259.664 366.222 244.288 366.796 239.693C366.912 238.747 367.363 240.218 367.797 242.956C368.659 248.423 370.952 251.816 373.78 251.816C375.261 251.816 375.264 251.803 375.17 238.144C375.112 229.184 375.355 223.659 375.876 222.11C376.314 220.811 376.874 218.154 377.12 216.203L377.567 212.658H375.112C373.405 212.658 372.151 213.163 371.001 214.317C370.087 215.227 369.342 215.639 369.342 215.234C369.342 212.47 373.719 191.705 375.277 187.064L377.188 181.384L378.073 183.519C379.252 186.371 380.924 186.225 382.67 183.117C384.426 179.993 387.636 177.521 389.356 177.971C390.338 178.227 390.979 177.625 392.097 175.398C393.156 173.289 393.568 172.884 393.597 173.918C393.655 175.855 396.15 178.905 397.679 178.905C399.182 178.905 401.495 173.221 404.385 162.446C405.962 156.561 406.844 154.565 409.124 151.704C410.663 149.769 415.114 143.586 419.015 137.964C424.201 130.485 427.152 126.917 430.01 124.672C433.298 122.089 434.27 120.796 436.136 116.509L438.355 111.418L446.875 105.899C451.76 102.734 459.017 97.1372 463.889 92.7787C471.626 85.8602 472.678 85.1376 475.701 84.7066C477.525 84.4441 482.511 82.9438 486.777 81.3754C495.145 78.2937 502.246 76.641 504.307 77.2956C505.013 77.5192 506.143 77.4155 506.814 77.0655C508.039 76.4304 530.975 69.2332 538.176 67.2241C542.971 65.889 553.493 65.8664 563.043 67.1755C566.941 67.707 570.511 68.1542 570.974 68.1639C571.437 68.1768 571.816 68.6435 571.816 69.2008C571.816 69.755 572.153 70.2119 572.565 70.2119C572.976 70.2119 573.128 69.7355 572.905 69.1555C572.48 68.044 574.664 68.3389 576.255 69.6027C576.659 69.9235 577.255 69.9105 577.605 69.5703C579.578 67.6389 594.111 70.7563 600.794 74.5412C605.816 77.3863 608.424 78.4201 612.016 78.9936C614.592 79.4019 618.006 80.0306 619.607 80.387C621.204 80.7435 628.493 82.0818 635.805 83.3618C649.511 85.7598 676.073 92.0302 677.482 93.2C677.922 93.5629 679.792 94.3115 681.638 94.8591C684.703 95.7697 691.091 98.5889 695.326 100.903C698.591 102.682 713.237 108.56 715.573 109.023C716.872 109.283 719 110.196 720.299 111.052C721.599 111.907 723.419 112.824 724.349 113.087C725.276 113.349 729.756 115.371 734.304 117.581C738.853 119.792 742.876 121.412 743.245 121.182C744.334 120.511 744.02 115.55 742.773 113.644C741.632 111.904 741.635 111.894 743.278 112.393C746.236 113.291 757.701 126.279 761.167 132.66C763.117 136.25 765.602 139.63 767.87 141.772C769.243 143.071 771.368 146.111 772.596 148.525C773.821 150.936 775.972 154.089 777.371 155.528C781.408 159.672 785.545 168.363 786.118 173.911C786.439 176.993 787.356 180.162 788.833 183.292C791.337 188.594 793.099 198.383 794.849 216.708C795.4 222.463 796.2 228.238 796.627 229.537C797.849 233.245 798.344 277.461 797.172 278.184C795.247 279.376 796.054 308.897 798.361 321.655L799.452 327.699L797.849 328.742C796.968 329.319 794.625 331.101 792.646 332.705L789.044 335.622L789.507 322.916L789.967 310.213L787.942 308.301C784.754 305.294 782.347 305.929 781.178 310.087L780.264 313.337L778.787 311.775C777.974 310.913 776.079 309.374 774.572 308.346C771.958 306.567 771.718 306.094 769.263 297.883C765.961 286.833 765.903 286.748 758.199 281.301C752.737 277.442 751.344 276.752 749.602 277.024C747.625 277.332 747.454 277.173 746.31 273.991C745.468 271.645 743.803 269.347 740.777 266.346L736.446 262.059L736.883 257.782C737.304 253.679 737.165 253.122 733.501 244.178C730.239 236.216 729.299 232.865 727.054 221.222C724.352 207.191 723.549 204.226 717.125 184.644C711.488 167.446 711.465 167.414 705.226 167.443C696.761 167.479 686.407 172.382 694.457 172.54C705.721 172.764 706.243 173.03 707.5 179.164C707.966 181.432 708.76 183.772 709.262 184.358C709.764 184.945 709.985 185.619 709.748 185.856C709.512 186.095 709.878 187.132 710.565 188.166C711.251 189.197 711.825 190.347 711.841 190.72C711.857 191.089 712.194 192 712.589 192.745C712.988 193.487 713.7 195.46 714.177 197.132C714.65 198.801 715.366 200.93 715.761 201.857C716.159 202.784 716.412 203.947 716.325 204.44C716.237 204.929 716.538 205.781 716.992 206.329C717.449 206.877 717.902 208.147 717.999 209.148C718.171 210.862 719.039 215.6 721.369 227.512C721.913 230.296 722.46 233.685 722.587 235.046C722.71 236.404 723.429 238.53 724.184 239.771C724.939 241.012 726.105 243.848 726.779 246.077C727.449 248.303 728.544 250.85 729.212 251.738C730.737 253.767 730.747 256.453 729.241 260.718L728.062 264.065L732.94 268.741C735.623 271.314 738.124 273.417 738.5 273.417C738.875 273.417 739.374 274.629 739.611 276.107C739.847 277.584 740.456 279.14 740.968 279.564C741.477 279.989 741.898 280.98 741.901 281.771C741.901 282.562 742.325 284.013 742.837 284.999C743.352 285.984 744.133 287.957 744.574 289.386C745.011 290.815 745.785 292.896 746.291 294.01C746.796 295.122 747.37 296.567 747.567 297.215C748.575 300.521 751.85 296.998 754.007 290.294L755.825 284.636L757.862 287.633C758.987 289.283 760.227 291.849 760.626 293.333C761.024 294.821 761.847 297.705 762.459 299.746C763.072 301.791 763.937 304.84 764.377 306.525C764.818 308.21 765.787 310.378 766.532 311.341C767.273 312.306 768.336 313.803 768.893 314.672C769.451 315.54 770.876 317.261 772.062 318.496C773.251 319.73 774.41 321.334 774.64 322.057C775.204 323.839 777.922 323.768 780.54 321.901L782.61 320.427L782.143 329.128C781.829 335.003 781.939 338.985 782.48 341.403L783.28 344.98H786.533C788.36 344.98 791.758 344.235 794.288 343.282C796.767 342.349 798.908 341.698 799.044 341.837C799.78 342.569 798.328 359.015 797.554 358.717C796.336 358.25 789.39 360.405 788.444 361.542C788 362.08 787.395 362.365 787.096 362.184C786.374 361.737 782.389 366.828 782.389 368.198C782.389 369.744 783.779 369.576 792.659 366.964C802.481 364.073 802.796 363.898 804.305 360.548C805.757 357.333 805.954 357.275 808.021 359.478C809.573 361.131 809.586 361.277 809.22 373.15C808.718 389.469 806.615 397.227 800.664 404.716C798.503 407.434 795.711 411.436 794.457 413.607C792.465 417.055 792.154 417.341 791.979 415.866C791.447 411.417 789.231 409.113 785.483 409.113C783.666 409.113 782.733 412.48 783.018 418.005C783.397 425.309 777.828 443.021 776.455 438.89C776.315 438.482 775.82 438.145 775.35 438.145C774.511 438.145 773.617 428.929 773.617 420.273C773.617 416.579 771.261 413.164 768.718 413.164C767.17 413.164 767.053 414.385 766.224 439.156C765.275 467.503 764.358 476.016 760.529 492.047C756.259 509.912 750.713 521.827 746.287 522.641C745.546 522.773 744.029 524.261 742.912 525.939C738.13 533.14 725.593 547.479 716.551 556.086C705.187 566.906 704.6 568.438 711.821 568.438C714.912 568.438 726.779 557.735 736.148 546.497C739.552 542.414 745.371 535.881 749.077 531.983C755.805 524.906 758.964 520.139 762.174 512.219C764.338 506.885 764.633 507.848 765.557 523.25C766.085 532.022 766.755 537.712 767.578 540.421C768.258 542.651 769.016 547.207 769.263 550.548C769.564 554.598 770.494 559.057 772.049 563.918C773.714 569.119 774.252 571.805 773.928 573.286C773.675 574.437 773.766 575.545 774.132 575.781C774.495 576.012 775.133 582.279 775.551 589.706C775.965 597.13 776.613 604.269 776.986 605.565C777.362 606.861 777.666 609.201 777.666 610.766C777.666 613.634 778.589 616.534 780.096 618.397C784.537 623.887 778.026 654.892 772.107 656.441C770.695 656.807 771.009 655.896 767.546 669.704C766.01 675.832 763.862 683.956 762.774 687.757C760.289 696.435 760.244 696.033 763.723 696.033C767.426 696.033 767.28 696.351 771.637 678.975C774.686 666.82 775.44 664.681 778.722 658.887C788.405 641.781 790.21 628.083 785.049 610.921C782.571 602.681 779.791 576.89 781.226 575.451C782.613 574.067 803.661 573.102 809.838 574.138C813.489 574.751 819.149 575.681 822.418 576.206C825.686 576.728 830.092 577.593 832.205 578.128C834.317 578.659 837.715 579.294 839.759 579.537C844.855 580.143 848.6 580.97 860.159 584.048C871.575 587.088 878.829 588.212 896.789 589.716C903.842 590.305 912.345 591.349 915.685 592.036C919.026 592.72 923.279 593.488 925.135 593.737C926.992 593.99 931.926 595.075 936.101 596.151C940.28 597.227 947.113 598.439 951.289 598.847C955.464 599.256 961.16 600.15 963.942 600.837C966.725 601.524 971.283 602.425 974.066 602.836C976.849 603.248 982.317 604.466 986.215 605.542C990.112 606.621 996.338 608.303 1000.05 609.285C1003.76 610.267 1012.42 612.905 1019.28 615.147L1031.77 619.224L1037.85 625.394C1041.2 628.786 1046.21 634.282 1048.99 637.61C1051.77 640.935 1058.87 648.683 1064.77 654.824C1078.01 668.589 1093.53 690.446 1093.53 695.307C1093.53 695.738 1095.04 696.033 1097.24 696.033C1102.42 696.033 1102.53 696.341 1090.93 676.859C1083.37 664.15 1083.04 663.745 1062.54 642.364C1058.98 638.65 1053.81 632.876 1051.04 629.535C1044.44 621.563 1038.32 615.549 1034.7 613.462C1028.91 610.137 985.045 597.217 974.74 595.805C973.072 595.574 969.122 594.8 965.967 594.084C962.812 593.368 956.132 592.318 951.12 591.757C946.108 591.193 940.057 590.111 937.672 589.356C935.288 588.601 930.429 587.519 926.875 586.951C923.318 586.384 918.588 585.513 916.362 585.01C914.134 584.511 909.731 583.902 906.576 583.659C884.835 581.984 874.714 580.522 861.724 577.188C854.473 575.328 845.435 573.341 841.638 572.774C837.841 572.204 834.621 571.627 834.485 571.491C833.999 571.005 841.444 570.337 988.913 557.625C1070.76 550.57 1149.55 543.574 1163.99 542.08C1179.67 540.453 1191.42 539.533 1193.14 539.792L1196.02 540.223L1196.71 537.621C1197.09 536.192 1202.72 510.528 1209.21 480.592C1215.71 450.659 1224.69 410.798 1229.16 392.013C1237.48 357.038 1238 354.222 1236.3 353.276C1235.7 352.932 1228.06 326.863 1216.08 284.211C1205.5 246.527 1195.66 211.53 1194.22 206.439C1191.72 197.625 1191.58 195.626 1193.72 199.773C1199.76 211.446 1271.86 415.16 1286.93 463.122C1291.31 477.047 1295.14 488.729 1295.45 489.079C1296.22 489.973 1296.15 473.67 1295.37 471.762C1294.54 469.726 1285.88 442.535 1285.88 441.975C1285.88 440.157 1225.3 268.158 1213.6 236.773L1198.82 197.094L1193.16 189.932C1190.05 185.992 1187.15 181.601 1186.72 180.168C1186.17 178.357 1185.46 177.446 1184.37 177.171C1183.34 176.912 1178.02 170.684 1168.85 158.989C1151.44 136.794 1154.84 139.458 1126.67 125.91C1109.37 117.591 1102.61 114.02 1102.12 112.941C1101.61 111.823 1100.48 111.266 1097.65 110.725C1093.78 109.983 1076.07 101.923 1078.4 101.966C1083.27 102.056 1090.93 105.222 1127.36 122.209L1166.94 140.66L1183.81 162.349L1200.68 184.041L1217.23 228.559C1231.14 265.974 1289.7 433.212 1293.65 446.784C1295.49 453.132 1296 452.539 1296 444.026V436.323L1266.71 351.665C1242.36 281.279 1218.73 215.765 1194.13 150.453L1192.7 146.642L1140.58 122.342C1111.92 108.975 1087.86 97.863 1087.11 97.6524C1086.37 97.4385 1059.8 92.5357 1028.06 86.7514L970.354 76.236L851.305 61.4074L732.254 46.5822L581.678 34.0803L431.098 21.5785L328.173 15.5349C271.565 12.2134 212.037 8.72666 195.891 7.79016C170.577 6.31897 15.022 0.00647922 4.04624 0.00323872L0.165211 0V3.02338ZM35.7942 7.24899C33.6723 7.38509 30.0277 7.3851 27.6952 7.25223C25.3595 7.11937 27.0959 7.01244 31.5503 7.0092C36.0048 7.0092 37.9129 7.11613 35.7942 7.24899ZM54.0169 7.92626C51.8949 8.05912 48.2504 8.05912 45.9179 7.92626C43.5822 7.79664 45.3186 7.68646 49.773 7.68646C54.2274 7.68322 56.1356 7.7934 54.0169 7.92626ZM71.5625 8.60028C69.4438 8.73314 65.7992 8.73638 63.4635 8.60352C61.131 8.47066 62.8642 8.36049 67.3186 8.36049C71.773 8.35724 73.6844 8.46742 71.5625 8.60028ZM89.0854 9.27755C86.9505 9.41041 83.4582 9.41041 81.3233 9.27755C79.1885 9.14145 80.9346 9.03127 85.2044 9.03127C89.4741 9.03127 91.2203 9.14145 89.0854 9.27755ZM107.334 9.95157C105.215 10.0844 101.571 10.0844 99.235 9.95157C96.8993 9.82195 98.6357 9.71177 103.09 9.71177C107.545 9.70853 109.453 9.81871 107.334 9.95157ZM124.883 10.6256C122.761 10.7585 119.116 10.7617 116.784 10.6288C114.448 10.496 116.185 10.3858 120.639 10.3858C125.093 10.3826 127.002 10.4927 124.883 10.6256ZM142.403 11.3029C140.268 11.4357 136.775 11.4357 134.64 11.3029C132.509 11.1668 134.255 11.0566 138.521 11.0566C142.791 11.0566 144.537 11.1668 142.403 11.3029ZM159.637 11.9736C157.703 12.1097 154.363 12.113 152.215 11.9769C150.067 11.844 151.648 11.7306 155.733 11.7306C159.815 11.7274 161.574 11.8375 159.637 11.9736ZM174.125 12.6444C172.732 12.7902 170.454 12.7902 169.061 12.6444C167.671 12.4986 168.808 12.3787 171.594 12.3787C174.377 12.3787 175.518 12.4986 174.125 12.6444ZM186.273 13.312C185.253 13.4675 183.581 13.4675 182.56 13.312C181.54 13.1564 182.376 13.03 184.417 13.03C186.458 13.03 187.293 13.1564 186.273 13.312ZM198.434 13.986C197.42 14.1383 195.597 14.1415 194.385 13.9925C193.17 13.8434 193.999 13.717 196.228 13.7138C198.454 13.7073 199.448 13.8304 198.434 13.986ZM209.906 14.66C208.892 14.8156 207.071 14.8188 205.856 14.6665C204.645 14.5174 205.474 14.3911 207.703 14.3878C209.928 14.3846 210.92 14.5077 209.906 14.66ZM221.38 15.3373C220.366 15.4896 218.543 15.4928 217.331 15.3438C216.119 15.1915 216.949 15.0651 219.174 15.0618C221.403 15.0586 222.394 15.1817 221.38 15.3373ZM232.842 16.0113C231.822 16.1668 230.15 16.1668 229.13 16.0113C228.109 15.8558 228.945 15.7294 230.986 15.7294C233.027 15.7294 233.863 15.8558 232.842 16.0113ZM244.317 16.6886C243.293 16.8409 241.625 16.8409 240.604 16.6886C239.584 16.533 240.416 16.4066 242.46 16.4066C244.501 16.4066 245.337 16.533 244.317 16.6886ZM255.788 17.3626C254.768 17.5181 253.099 17.5181 252.076 17.3626C251.055 17.207 251.891 17.0807 253.932 17.0807C255.976 17.0807 256.809 17.207 255.788 17.3626ZM267.263 18.0366C266.242 18.1922 264.571 18.1922 263.55 18.0366C262.53 17.8811 263.365 17.7547 265.406 17.7547C267.447 17.7547 268.283 17.8811 267.263 18.0366ZM278.737 18.7139C277.714 18.8662 276.045 18.8662 275.025 18.7139C274.004 18.5583 274.837 18.432 276.881 18.432C278.922 18.432 279.758 18.5583 278.737 18.7139ZM290.895 19.3879C289.881 19.5402 288.061 19.5434 286.846 19.3944C285.634 19.2421 286.464 19.1157 288.693 19.1125C290.918 19.1092 291.909 19.2324 290.895 19.3879ZM302.37 20.0619C301.356 20.2142 299.532 20.2175 298.321 20.0684C297.109 19.9193 297.938 19.793 300.164 19.7897C302.393 19.7832 303.384 19.9064 302.37 20.0619ZM313.832 20.7392C312.811 20.8915 311.14 20.8915 310.119 20.7392C309.099 20.5836 309.935 20.4573 311.975 20.4573C314.016 20.4573 314.852 20.5836 313.832 20.7392ZM325.306 21.4132C324.283 21.5688 322.614 21.5688 321.594 21.4132C320.573 21.2577 321.406 21.1313 323.45 21.1313C325.491 21.1313 326.327 21.2577 325.306 21.4132ZM336.778 22.0872C335.757 22.2428 334.089 22.2428 333.065 22.0872C332.045 21.9317 332.881 21.8053 334.921 21.8053C336.966 21.8053 337.798 21.9317 336.778 22.0872ZM348.252 22.7645C347.232 22.9168 345.56 22.9168 344.54 22.7645C343.519 22.609 344.355 22.4826 346.396 22.4826C348.437 22.4826 349.273 22.609 348.252 22.7645ZM359.727 23.4385C358.703 23.5941 357.035 23.5941 356.014 23.4385C354.994 23.283 355.827 23.1566 357.871 23.1566C359.912 23.1566 360.747 23.283 359.727 23.4385ZM371.885 24.1125C370.871 24.2649 369.05 24.2681 367.836 24.119C366.624 23.97 367.453 23.8436 369.682 23.8403C371.908 23.8339 372.899 23.957 371.885 24.1125ZM383.36 24.7866C382.346 24.9421 380.522 24.9454 379.31 24.793C378.099 24.644 378.928 24.5176 381.154 24.5144C383.382 24.5111 384.374 24.6343 383.36 24.7866ZM394.821 25.4638C393.801 25.6194 392.129 25.6194 391.109 25.4638C390.088 25.3083 390.924 25.1819 392.965 25.1819C395.006 25.1819 395.842 25.3083 394.821 25.4638ZM406.296 26.1379C405.272 26.2934 403.604 26.2934 402.583 26.1379C401.563 25.9823 402.396 25.8559 404.44 25.8559C406.481 25.8559 407.316 25.9823 406.296 26.1379ZM417.767 26.8151C416.747 26.9674 415.079 26.9674 414.055 26.8151C413.034 26.6596 413.87 26.5332 415.911 26.5332C417.955 26.5332 418.788 26.6596 417.767 26.8151ZM428.228 27.4827C427.395 27.6414 426.028 27.6414 425.193 27.4827C424.357 27.3206 425.04 27.1878 426.712 27.1878C428.38 27.1878 429.064 27.3206 428.228 27.4827ZM977.691 83.5109C983.237 84.5122 987.458 85.4357 987.076 85.5654C986.445 85.776 967.901 82.6327 966.304 82.0429C964.357 81.3268 968.692 81.8841 977.691 83.5109ZM993.303 86.4144C995.107 86.8745 995.143 86.9296 993.64 86.9296C992.71 86.9296 991.042 86.6963 989.927 86.4144C988.119 85.9542 988.084 85.8991 989.59 85.8991C990.517 85.8991 992.188 86.1324 993.303 86.4144ZM1000.72 87.7657C1002.53 88.2258 1002.57 88.2809 1001.06 88.2809C1000.14 88.2809 998.463 88.0476 997.352 87.7657C995.544 87.3055 995.509 87.2504 997.012 87.2504C997.942 87.2504 999.61 87.4805 1000.72 87.7657ZM1008.15 89.1137C1009.95 89.5739 1009.99 89.6289 1008.49 89.6289C1007.56 89.6289 1005.89 89.3989 1004.77 89.1137C1002.97 88.6535 1002.93 88.5985 1004.44 88.5985C1005.36 88.5985 1007.04 88.8318 1008.15 89.1137ZM1015.57 90.465C1017.38 90.9251 1017.41 90.9802 1015.91 90.9802C1014.98 90.9802 1013.31 90.7469 1012.2 90.465C1010.39 90.0048 1010.36 89.9498 1011.86 89.9498C1012.79 89.9498 1014.46 90.1831 1015.57 90.465ZM1023 91.8163C1024.8 92.2764 1024.84 92.3315 1023.33 92.3315C1022.41 92.3315 1020.74 92.0982 1019.62 91.8163C1017.82 91.3561 1017.78 91.301 1019.28 91.301C1020.21 91.301 1021.88 91.5311 1023 91.8163ZM1030.42 93.1643C1032.23 93.6245 1032.27 93.6796 1030.76 93.6796C1029.83 93.6796 1028.16 93.4495 1027.05 93.1643C1025.24 92.7042 1025.2 92.6491 1026.71 92.6491C1027.64 92.6491 1029.31 92.8824 1030.42 93.1643ZM1037.85 94.5156C1039.65 94.9758 1039.69 95.0309 1038.18 95.0309C1037.25 95.0309 1035.59 94.7975 1034.47 94.5156C1032.66 94.0555 1032.63 94.0004 1034.13 94.0004C1035.06 94.0004 1036.73 94.2337 1037.85 94.5156ZM1045.27 95.8669C1047.08 96.327 1047.11 96.3821 1045.61 96.3821C1044.68 96.3821 1043.01 96.1488 1041.9 95.8669C1040.09 95.4068 1040.05 95.3517 1041.56 95.3517C1042.49 95.3517 1044.15 95.5817 1045.27 95.8669ZM1052.69 97.215C1054.5 97.6751 1054.54 97.7302 1053.03 97.7302C1052.1 97.7302 1050.43 97.5001 1049.32 97.215C1047.51 96.7548 1047.48 96.6997 1048.98 96.6997C1049.91 96.6997 1051.58 96.933 1052.69 97.215ZM1060.12 98.5662C1061.92 99.0264 1061.96 99.0815 1060.46 99.0815C1059.53 99.0815 1057.86 98.8482 1056.74 98.5662C1054.94 98.1061 1054.9 98.051 1056.41 98.051C1057.33 98.051 1059 98.2843 1060.12 98.5662ZM1067.54 99.9175C1069.35 100.378 1069.38 100.433 1067.88 100.433C1066.95 100.433 1065.28 100.199 1064.17 99.9175C1062.36 99.4574 1062.33 99.4023 1063.83 99.4023C1064.76 99.4023 1066.43 99.6324 1067.54 99.9175ZM1074.97 101.266C1076.77 101.726 1076.81 101.781 1075.3 101.781C1074.38 101.781 1072.71 101.551 1071.59 101.266C1069.79 100.805 1069.75 100.75 1071.25 100.75C1072.18 100.75 1073.85 100.984 1074.97 101.266ZM623.293 166.753C623.293 168.422 623.426 169.105 623.588 168.269C623.747 167.437 623.747 166.069 623.588 165.233C623.426 164.397 623.293 165.081 623.293 166.753ZM625.137 166.118C625.137 167.32 625.415 168.007 625.81 167.764C626.183 167.534 626.484 166.607 626.484 165.7C626.484 164.792 626.183 164.05 625.81 164.05C625.438 164.05 625.137 164.98 625.137 166.118ZM628.02 167.427C628.02 169.099 628.149 169.783 628.311 168.947C628.473 168.111 628.473 166.743 628.311 165.907C628.149 165.071 628.02 165.755 628.02 167.427ZM629.86 166.076C629.86 166.821 630.164 167.427 630.534 167.427C630.906 167.427 631.211 166.821 631.211 166.076C631.211 165.333 630.906 164.727 630.534 164.727C630.164 164.727 629.86 165.333 629.86 166.076ZM632.571 167.932C632.578 170.253 632.763 170.859 633.236 170.126C634.097 168.791 634.097 164.727 633.236 164.727C632.863 164.727 632.565 166.17 632.571 167.932ZM635.429 167.09C635.438 168.574 635.575 169.102 635.737 168.263C635.898 167.424 635.892 166.208 635.724 165.564C635.555 164.915 635.422 165.606 635.429 167.09ZM570.469 167.952C570.469 170.081 570.938 171.29 572.419 172.978C574.346 175.175 574.379 175.347 574.868 186.202C575.27 195.046 575.594 197.479 576.52 198.623C579.063 201.763 579.475 199.786 579.034 186.565L578.623 174.177H581.295C584.282 174.177 584.6 173.61 582.617 171.814C581.655 170.946 581.266 170.852 581.266 171.49C581.266 172.054 580.638 171.798 579.578 170.803C578.652 169.932 577.89 169.475 577.89 169.789C577.89 170.103 577.132 169.65 576.206 168.778C575.108 167.744 574.518 167.514 574.518 168.111C574.518 168.658 573.702 168.247 572.493 167.09L570.469 165.149V167.952ZM637.285 167.09C637.285 168.017 637.586 168.778 637.959 168.778C638.331 168.778 638.633 168.017 638.633 167.09C638.633 166.16 638.331 165.402 637.959 165.402C637.586 165.402 637.285 166.16 637.285 167.09ZM639.993 168.269C640.003 170.372 640.178 170.868 640.657 170.126C641.519 168.794 641.519 165.402 640.657 165.402C640.288 165.402 639.987 166.691 639.993 168.269ZM642.131 167.258C642.251 168.302 642.715 169.041 643.191 168.947C643.654 168.853 644.033 169.368 644.033 170.087C644.033 170.807 644.338 171.584 644.707 171.814C645.079 172.045 645.384 171.915 645.384 171.526C645.384 170.687 648.225 170.871 648.863 171.75C649.544 172.693 652.803 172.845 652.851 171.938C652.874 171.5 653.191 171.892 653.561 172.813C654.03 173.992 654.38 174.232 654.753 173.632C655.041 173.166 655.783 172.978 656.405 173.214C657.108 173.487 657.549 173.305 657.575 172.732C657.597 172.226 657.918 172.566 658.284 173.487C658.712 174.556 659.123 174.877 659.431 174.378C659.998 173.461 662.385 173.548 663.072 174.511C663.649 175.317 665.68 175.411 666.73 174.679C667.193 174.355 667.617 174.64 667.818 175.408C668.038 176.251 668.68 176.62 669.759 176.526C670.643 176.452 671.67 176.562 672.039 176.776C672.405 176.986 673.925 177.21 675.412 177.265C676.899 177.323 678.117 177.433 678.117 177.511C678.117 177.589 678.8 177.78 679.636 177.936C680.469 178.091 681.152 177.945 681.152 177.608C681.152 176.912 682.435 176.999 683.686 177.78C684.23 178.12 684.528 177.92 684.528 177.216C684.528 176.614 684.832 176.312 685.202 176.542C685.574 176.769 685.879 176.578 685.879 176.115C685.879 175.651 686.323 175.859 686.87 176.581C687.806 177.822 687.862 177.78 687.881 175.752C687.894 174.575 688.069 173.182 688.27 172.657C688.471 172.132 688.244 171.649 687.764 171.584C687.282 171.516 682.639 171.004 677.443 170.44C672.243 169.877 663.37 168.512 657.717 167.407C644.231 164.773 641.843 164.75 642.131 167.258ZM689.251 171.477C689.251 171.85 689.708 172.151 690.265 172.151C690.822 172.151 691.276 171.85 691.276 171.477C691.276 171.105 690.822 170.803 690.265 170.803C689.708 170.803 689.251 171.105 689.251 171.477ZM584.642 173.785C584.642 174.371 585.121 174.854 585.711 174.854C586.9 174.854 586.692 173.399 585.442 172.981C585.001 172.835 584.642 173.195 584.642 173.785ZM549.191 194.77C549.466 195.882 549.975 202.262 550.325 208.947C551.413 229.884 552.541 231.537 553.279 213.283C553.762 201.313 553.798 201.086 555.2 201.41C560.183 202.554 573.235 203.393 574.823 202.67C577.097 201.634 576.996 200.963 574.126 197.965L571.713 195.444L572.017 197.34L572.322 199.239L570.342 197.003L568.36 194.77L568.654 196.669L568.949 198.571L566.911 196.669C564.9 194.793 564.88 194.79 565.269 196.374C565.655 197.949 565.622 197.943 563.581 196.037C561.544 194.132 561.508 194.125 561.893 195.7C562.279 197.275 562.247 197.269 560.212 195.363L558.135 193.419L558.586 195.308L559.036 197.201L556.94 194.971L554.841 192.745L555.285 194.77L555.728 196.795L553.888 195.107L552.045 193.419L552.444 195.026C552.832 196.598 552.797 196.591 550.765 194.686L548.692 192.745L549.191 194.77ZM492.041 213.695C491.841 213.896 489.968 214.077 487.879 214.103C484.166 214.148 484.079 214.194 484.079 216.06C484.079 219.524 485.361 222 486.418 220.565C487.231 219.453 487.37 219.534 488.157 221.579L489.012 223.799L489.414 221.443L489.816 219.087L491.024 222.94C492.709 228.313 493.745 228.669 493.243 223.705L492.842 219.748L493.765 222.995C495.207 228.06 496.486 228.714 496.003 224.136C495.579 220.114 495.754 220.211 496.891 224.641C497.604 227.415 499.11 228.452 499.829 226.666C500.102 225.992 500.179 225.992 500.225 226.666C500.254 227.13 500.707 227.512 501.232 227.512C501.757 227.512 502.343 227.13 502.528 226.666C502.8 225.992 502.881 225.992 502.923 226.666C502.952 227.13 503.471 227.512 504.073 227.512C505 227.512 505.09 227.058 504.647 224.641C504.358 223.063 504.122 221.164 504.122 220.422C504.122 219.68 504.358 217.781 504.647 216.203C505.074 213.866 504.984 213.335 504.161 213.335C502.962 213.335 502.327 215.989 502.24 221.352C502.181 224.998 502.152 225.056 501.514 222.836C501.067 221.274 501.086 219.586 501.576 217.642C502.564 213.721 502.509 213.335 500.95 213.335C499.703 213.335 499.596 213.805 499.544 219.579C499.499 224.495 499.353 225.393 498.858 223.799C498.511 222.684 498.42 219.874 498.657 217.554L499.084 213.335H495.744C493.904 213.335 492.239 213.497 492.041 213.695ZM505.677 220.422C505.677 224.699 505.943 227.512 506.351 227.512C506.733 227.512 507.028 225.535 507.034 222.953C507.037 220.448 507.229 217.259 507.459 215.866C507.799 213.805 507.672 213.335 506.775 213.335C505.829 213.335 505.677 214.32 505.677 220.422ZM509.049 216.073C509.049 217.729 509.318 218.649 509.726 218.397C510.096 218.167 510.4 216.935 510.4 215.658C510.4 214.378 510.096 213.335 509.726 213.335C509.354 213.335 509.049 214.566 509.049 216.073ZM513.099 216.41C513.099 218.293 513.361 219.327 513.776 219.074C514.145 218.844 514.45 217.457 514.45 215.995C514.45 214.531 514.145 213.335 513.776 213.335C513.403 213.335 513.099 214.719 513.099 216.41ZM481.62 217.097C482.277 221.909 483.531 222.681 483.275 218.111C483.139 215.713 482.741 214.346 482.119 214.139C481.354 213.886 481.257 214.456 481.62 217.097ZM518.499 216.507C518.499 219.275 519.458 218.915 520.213 215.866C520.569 214.421 520.43 214.009 519.584 214.009C518.784 214.009 518.499 214.66 518.499 216.507ZM478.678 216.332C478.678 217.24 478.983 218.167 479.355 218.397C479.747 218.64 480.029 217.953 480.029 216.75C480.029 215.613 479.725 214.683 479.355 214.683C478.983 214.683 478.678 215.425 478.678 216.332ZM523.634 215.752C522.659 218.29 523.187 228.86 524.285 228.86C525.221 228.86 525.156 221.958 524.207 220.872C524.1 220.749 524.444 219.622 524.969 218.364C525.493 217.107 525.924 215.765 525.924 215.38C525.924 214.275 524.084 214.573 523.634 215.752ZM475.98 216.653C475.98 217.055 475.685 217.386 475.322 217.386C474.962 217.386 472.416 218.773 469.666 220.471C464.288 223.792 463.591 224.793 461.275 232.574C460.319 235.782 459.759 236.67 458.577 236.842C457.754 236.958 457.083 237.49 457.083 238.021C457.083 238.932 458.298 239.304 460.349 239.022C460.847 238.954 461.657 239.45 462.15 240.124C462.642 240.798 463.274 241.119 463.552 240.84C463.831 240.562 464.651 240.866 465.37 241.518C466.666 242.684 466.669 242.665 465.619 240.144C465.033 238.737 464.848 237.768 465.205 237.989C465.564 238.212 465.856 237.917 465.856 237.341C465.856 236.761 466.193 236.287 466.604 236.287C467.012 236.287 467.187 235.866 466.993 235.351C466.795 234.839 467.019 233.851 467.492 233.157C467.968 232.467 468.558 231.064 468.804 230.043C469.355 227.784 470.926 227.642 473.067 229.654C474.042 230.571 474.629 230.792 474.629 230.247C474.629 229.544 474.829 229.537 475.643 230.211C476.397 230.837 476.653 230.85 476.653 230.254C476.653 229.816 476.958 229.644 477.33 229.874C477.7 230.105 478.004 229.991 478.004 229.622C478.004 229.252 478.613 228.76 479.355 228.523C481.121 227.963 481.059 226.187 479.09 220.788C477.677 216.912 475.98 214.657 475.98 216.653ZM531.739 217.761C530.521 220.931 531.681 230.335 533.022 228.167C534.127 226.381 534.237 218.403 533.168 217.515C532.345 216.831 532.076 216.877 531.739 217.761ZM536.732 223.51C536.745 228.954 537.337 230.639 539.015 229.994C540.943 229.252 540.502 222.052 538.41 220.085L536.722 218.5L536.732 223.51ZM517.845 223.967C517.829 227.408 518.026 228.186 518.914 228.186C519.831 228.186 519.928 227.677 519.523 224.978C518.745 219.751 517.867 219.22 517.845 223.967ZM541.62 225.15L541.785 229.874L544.821 230.007C551.371 230.296 552.33 229.168 548.608 225.558C547.001 223.999 546.224 223.611 545.987 224.246C545.757 224.861 544.983 224.395 543.554 222.784L541.458 220.422L541.62 225.15ZM508.375 224.434C508.375 226.125 508.68 227.512 509.049 227.512C509.422 227.512 509.726 226.313 509.726 224.852C509.726 223.387 509.422 222.003 509.049 221.773C508.638 221.517 508.375 222.554 508.375 224.434ZM512.833 223.183C512.065 225.182 512.393 227.512 513.439 227.512C514.142 227.512 514.45 226.802 514.45 225.189C514.45 222.664 513.487 221.472 512.833 223.183ZM653.146 271.421C648.015 271.8 644.856 272.481 639.984 274.256C636.456 275.543 631.447 276.982 628.849 277.458C623.682 278.401 622.435 279.056 622.435 280.825C622.435 281.567 620.909 282.785 618.217 284.192C612.107 287.387 608.501 290.203 602.683 296.337C599.845 299.325 597.244 301.771 596.9 301.771C595.028 301.771 594.584 305.871 595.426 315.385C595.89 320.621 596.068 326.675 595.825 328.839C594.762 338.217 606.357 349.041 622.584 353.824C633.845 357.142 636.627 357.171 646.709 354.073C650.966 352.764 657.782 351.095 661.854 350.359C665.93 349.627 672.924 348.127 677.401 347.031C681.878 345.933 688.121 344.744 691.276 344.384C695.439 343.911 697.198 343.418 697.69 342.595C699.495 339.559 702.271 336.61 704.257 335.615C706.742 334.374 707.484 332.297 705.864 331.111C704.879 330.391 704.905 329.967 706.155 326.341C708.504 319.552 708.728 312.31 706.635 310.939C705.051 309.899 704.898 309.315 704.442 302.591C703.959 295.462 702.375 290.297 700.671 290.297C700.285 290.297 698.393 288.835 696.466 287.053C694.542 285.271 691.179 282.763 688.995 281.483C686.812 280.203 683.624 277.925 681.91 276.421C675.017 270.371 672.687 269.969 653.146 271.421ZM671.822 276.243C675.35 277.03 689.336 285.536 695.436 290.605C696.796 291.736 698.575 293.122 699.391 293.69C700.817 294.678 700.888 295.252 701.186 308.204C701.358 315.621 701.811 322.336 702.193 323.126C703.033 324.85 701.257 331.804 699.845 332.345C699.356 332.533 698.597 333.885 698.16 335.346C697.033 339.105 695.682 340.016 689.928 340.881C687.142 341.299 680.005 342.829 674.067 344.277C668.129 345.726 661.75 347.119 659.894 347.375C658.038 347.631 652.336 349.173 647.224 350.8C636.326 354.267 635.886 354.293 628.078 351.993C624.79 351.021 620.235 349.789 617.958 349.254C610.309 347.456 595.566 334.698 599.586 333.357C600.159 333.165 600.166 332.501 599.609 330.771C597.302 323.583 596.797 307.75 598.757 303.913C601.996 297.559 615.334 287.455 623.902 284.859C626.251 284.15 628.529 283.083 628.963 282.49C629.397 281.897 632.432 280.676 635.711 279.775C638.989 278.877 643.34 277.545 645.384 276.813C649.787 275.241 665.764 274.895 671.822 276.243ZM638.134 293.923C626.031 298.998 625.474 299.895 625.474 314.264C625.474 325.667 625.947 327.044 631.648 332.196C639.407 339.209 648.601 340.194 654.646 334.662C666.953 323.398 672.37 311.823 669.697 302.504C667.229 293.9 649.608 289.111 638.134 293.923ZM486.777 296.156C482.511 297.449 477.651 298.894 475.98 299.37C474.308 299.847 470.242 301.794 466.941 303.703C463.64 305.611 460.711 307.173 460.433 307.173C455.969 307.173 449.107 316.564 447.283 325.174C444.144 339.996 446.237 347.025 458.22 361.931C460.193 364.388 461.806 366.986 461.806 367.709C461.806 369.896 463.332 371.138 466.53 371.549C468.201 371.763 470.935 372.239 472.604 372.609C477.385 373.659 496.564 373.477 501.29 372.336C508.048 370.703 517.174 367.476 518.029 366.416C518.512 365.82 521.081 365.113 524.398 364.666C527.457 364.255 531.163 363.302 532.637 362.55C534.111 361.798 536.479 361.183 537.895 361.183C540.92 361.183 543.47 359.621 543.47 357.767C543.47 357.048 544.649 355.243 546.087 353.762C547.526 352.278 549.078 350.162 549.534 349.057C549.991 347.952 550.924 346.873 551.608 346.656C554.131 345.852 554.076 332.216 551.501 320.463C550.785 317.186 550.354 314.254 550.548 313.939C551.287 312.744 549.968 311.211 546.528 309.267C544.523 308.136 542.317 306.217 541.5 304.898C540.156 302.721 534.376 299.072 532.277 299.072C531.833 299.072 531.279 298.314 531.046 297.384C530.648 295.796 530.356 295.695 526.08 295.686C523.582 295.679 518.804 295.222 515.464 294.675C504.929 292.944 495.851 293.411 486.777 296.156ZM518.836 298.719C533.706 302.154 535.112 302.682 538.931 306.276C540.872 308.1 543.428 309.989 544.613 310.475C546.065 311.068 546.884 311.937 547.124 313.146C551.974 337.378 551.287 344.977 543.586 352.297C538.747 356.896 531.02 360.444 524.006 361.286C513.381 362.566 510.407 363.289 512.629 364.047C516.41 365.337 513.734 366.786 501.669 369.981C493.499 372.142 469.232 371.808 469.232 369.533C469.232 369.025 469.533 368.607 469.905 368.607C471.587 368.607 470.343 367.362 468.273 366.973C464.278 366.225 455.881 356.069 454.747 350.619C454.488 349.368 453.795 348.357 453.063 348.166C448.566 346.989 446.344 332.2 449.596 325.064C450.27 323.58 451.346 320.926 451.981 319.17C452.823 316.84 453.895 315.459 455.952 314.053C457.501 312.996 460.757 310.731 463.186 309.02C467.79 305.78 472.367 303.826 475.383 303.806C476.352 303.803 477.881 303.22 478.779 302.513C485.727 297.047 504.07 295.307 518.836 298.719ZM488.086 313.904C484.752 315.67 479.459 320.553 475.941 325.113L472.983 328.949L472.717 335.596C472.413 343.13 472.831 345.784 474.23 345.246C474.859 345.006 475.442 345.709 475.986 347.362C479.682 358.564 497.17 360.736 507.663 351.296C525.26 335.473 526.145 321.111 509.791 316.678C506.973 315.913 503.066 314.675 501.112 313.93C496.648 312.225 491.283 312.216 488.086 313.904ZM635.597 322.702C638.302 328.071 638.189 328.026 642.637 325.699C650.882 321.386 655.265 324.585 649.213 330.495C641.37 338.152 632.066 333.878 631.327 322.284C630.945 316.269 632.432 316.415 635.597 322.702ZM483.939 342.109C485.488 344.987 487.039 347.774 487.386 348.302C487.885 349.066 488.721 348.619 491.555 346.072C497.581 340.654 500.973 343.195 497.675 350.654C493.632 359.796 476.76 349.173 479.015 338.908C479.718 335.709 480.904 336.48 483.939 342.109ZM1238.26 355.327C1237.35 358.979 1238.19 362.855 1239.95 363.104C1241.36 363.302 1241.48 363.185 1240.76 362.32C1240.3 361.759 1240.16 361.154 1240.45 360.969C1241.42 360.376 1240.63 353.755 1239.59 353.755C1239.08 353.755 1238.48 354.462 1238.26 355.327ZM419.277 409.142C423.009 424.181 429.391 443.939 437.513 465.592C440.114 472.523 442.136 478.301 442.006 478.43C441.556 478.878 428.235 466.155 427.392 464.474C425.215 460.115 420.894 447.399 417.524 435.442C408.146 402.146 405.331 393.86 402.525 391.323C401.764 390.636 400.951 389.213 400.721 388.163C400.491 387.113 399.885 385.908 399.376 385.486C398.868 385.062 398.246 383.75 397.996 382.57C397.744 381.387 397.125 379.952 396.619 379.375C395.709 378.341 396.995 362.178 398.132 360.337C398.356 359.977 402.396 367.55 407.109 377.168L415.681 394.657L419.277 409.142ZM1239.31 365.233C1239.31 365.603 1239.74 365.907 1240.28 365.907C1240.81 365.907 1241.44 365.603 1241.67 365.233C1241.9 364.861 1241.46 364.556 1240.7 364.556C1239.93 364.556 1239.31 364.861 1239.31 365.233ZM1239.98 367.933C1239.98 368.305 1240.42 368.607 1240.96 368.607C1241.49 368.607 1242.12 368.305 1242.35 367.933C1242.57 367.56 1242.14 367.259 1241.37 367.259C1240.61 367.259 1239.98 367.56 1239.98 367.933ZM1240.66 369.958C1240.66 370.331 1241.26 370.632 1242.01 370.632C1242.75 370.632 1243.36 370.331 1243.36 369.958C1243.36 369.585 1242.75 369.284 1242.01 369.284C1241.26 369.284 1240.66 369.585 1240.66 369.958ZM567.789 371.478C563.84 374.197 552.246 401.76 552.246 408.419C552.246 416.365 563.092 418.734 566.134 411.453C567.605 407.93 567.346 407.094 564.401 405.856C561.177 404.502 561.122 403.993 563.507 397.509C566.879 388.345 569.604 384.686 574.227 383.108L578.231 381.74L578.428 378.305C578.862 370.885 573.572 367.489 567.789 371.478ZM782.166 371.76C781.32 372.605 781.664 383.928 782.558 384.663C783.024 385.042 785.224 385.548 787.453 385.788C796.174 386.715 795.889 386.585 795.889 389.566C795.889 392.897 798.824 393.413 801.655 390.581C806.236 385.998 803.515 382.145 790.981 375.47C782.551 370.979 782.827 371.095 782.166 371.76ZM1241.33 372.657C1241.33 373.03 1241.92 373.335 1242.64 373.335C1243.36 373.335 1244.14 373.03 1244.37 372.657C1244.61 372.275 1244.04 371.983 1243.06 371.983C1242.11 371.983 1241.33 372.288 1241.33 372.657ZM1242.68 377.385C1242.68 377.755 1243.12 378.059 1243.65 378.059C1244.19 378.059 1244.81 377.755 1245.04 377.385C1245.27 377.013 1244.84 376.708 1244.07 376.708C1243.31 376.708 1242.68 377.013 1242.68 377.385ZM1257.87 433.417C1257.63 433.799 1258.18 434.094 1259.14 434.094C1260.07 434.094 1261.01 433.789 1261.24 433.417C1261.48 433.038 1260.93 432.743 1259.97 432.743C1259.04 432.743 1258.1 433.047 1257.87 433.417ZM1258.2 436.119C1258.2 436.489 1258.95 436.793 1259.85 436.793C1260.76 436.793 1261.69 436.489 1261.92 436.119C1262.16 435.724 1261.47 435.442 1260.27 435.442C1259.13 435.442 1258.2 435.747 1258.2 436.119ZM1259.55 443.543C1259.55 443.916 1260.16 444.221 1260.91 444.221C1261.65 444.221 1262.25 443.916 1262.25 443.543C1262.25 443.174 1261.65 442.869 1260.91 442.869C1260.16 442.869 1259.55 443.174 1259.55 443.543ZM1260.91 448.945C1260.91 449.318 1261.5 449.619 1262.21 449.619C1262.93 449.619 1263.71 449.318 1263.94 448.945C1264.18 448.563 1263.61 448.271 1262.63 448.271C1261.68 448.271 1260.91 448.572 1260.91 448.945ZM1264.28 464.474C1264.28 464.843 1265.02 465.148 1265.93 465.148C1266.83 465.148 1267.76 464.843 1267.99 464.474C1268.23 464.078 1267.55 463.796 1266.34 463.796C1265.21 463.796 1264.28 464.101 1264.28 464.474ZM1264.96 469.198C1264.96 469.571 1265.41 469.872 1265.97 469.872C1266.52 469.872 1266.98 469.571 1266.98 469.198C1266.98 468.826 1266.52 468.524 1265.97 468.524C1265.41 468.524 1264.96 468.826 1264.96 469.198ZM1265.63 471.898C1265.63 472.27 1266.37 472.575 1267.28 472.575C1268.18 472.575 1269.11 472.27 1269.34 471.898C1269.58 471.505 1268.9 471.224 1267.69 471.224C1266.56 471.224 1265.63 471.528 1265.63 471.898ZM1267.65 482.024C1267.65 482.397 1268.4 482.701 1269.3 482.701C1270.21 482.701 1271.14 482.397 1271.37 482.024C1271.61 481.632 1270.92 481.35 1269.72 481.35C1268.58 481.35 1267.65 481.655 1267.65 482.024ZM594.075 493.133C592.401 493.606 587.425 494.221 583.019 494.497C570.838 495.258 568.084 497.047 572.542 501.308L574.615 503.291L584.859 503.214C592.595 503.155 596.748 502.78 601.831 501.681C605.534 500.877 611.76 500.051 615.667 499.84C627.505 499.202 631.078 496.684 624.291 493.764C620.617 492.186 599.013 491.733 594.075 493.133ZM1271.7 499.578C1271.7 499.951 1272.14 500.252 1272.67 500.252C1273.21 500.252 1273.83 499.951 1274.06 499.578C1274.29 499.205 1273.86 498.904 1273.09 498.904C1272.33 498.904 1271.7 499.205 1271.7 499.578ZM1275.08 517.132C1275.08 517.501 1275.68 517.806 1276.43 517.806C1277.17 517.806 1277.78 517.501 1277.78 517.132C1277.78 516.759 1277.17 516.454 1276.43 516.454C1275.68 516.454 1275.08 516.759 1275.08 517.132ZM1282.5 543.772C1282.5 545.159 1282.97 545.554 1285.37 546.176C1286.95 546.588 1289.3 547.204 1290.6 547.55C1294.88 548.688 1296 548.419 1296 546.241C1296 544.413 1295.74 544.232 1291.64 543.205C1285.04 541.546 1282.5 541.704 1282.5 543.772ZM474.995 581.637C480.411 583.05 480.402 583.03 479.433 589.521C478.276 597.253 477.489 599.962 476.261 600.435C475.685 600.655 442.962 603.724 403.549 607.253C364.133 610.785 330.292 613.857 328.342 614.087C323.619 614.638 323.819 613.702 329.016 610.957C331.338 609.732 334.601 607.603 336.272 606.226C343.545 600.237 376.213 588.465 393.276 585.688C419.572 581.407 465.386 579.135 474.995 581.637ZM672.38 584.657C672.38 585.623 717.614 693.528 718.349 694.312C719.334 695.366 719.039 683.061 717.999 679.782C717.478 678.139 715.463 671.629 713.516 665.316C704.027 634.512 692.627 610.656 677.624 590.211C673.118 584.067 672.38 583.286 672.38 584.657Z" fill="black"/>
<path fill-rule="evenodd" clip-rule="evenodd" d="M603.859 297.889L599.152 302.786L604.044 298.077C606.736 295.488 608.939 293.285 608.939 293.184C608.939 292.688 608.229 293.346 603.859 297.889ZM490.347 347.022C488.786 348.496 487.736 349.705 488.018 349.705C488.3 349.705 489.715 348.49 491.167 347.006C494.555 343.532 494.034 343.541 490.347 347.022ZM483.376 349.873C485.031 351.636 486.473 353.081 486.583 353.081C487.088 353.081 486.554 352.475 483.573 349.676L480.366 346.669L483.376 349.873ZM781.233 580.253C781.239 582.11 781.369 582.787 781.524 581.763C781.68 580.736 781.677 579.216 781.515 578.387C781.356 577.557 781.23 578.397 781.233 580.253ZM438.352 581.76C440.117 581.9 443.001 581.9 444.766 581.76C446.529 581.624 445.087 581.507 441.559 581.507C438.031 581.507 436.589 581.624 438.352 581.76ZM901.344 590.506C901.995 590.678 903.058 590.678 903.706 590.506C904.357 590.338 903.825 590.198 902.526 590.198C901.227 590.198 900.696 590.338 901.344 590.506ZM781.871 594.768C781.871 596.067 782.01 596.598 782.182 595.95C782.351 595.299 782.351 594.236 782.182 593.585C782.01 592.937 781.871 593.468 781.871 594.768ZM951.289 599.285C951.936 599.453 952.999 599.453 953.65 599.285C954.298 599.113 953.767 598.974 952.468 598.974C951.169 598.974 950.637 599.113 951.289 599.285ZM477.531 621.097C477.531 623.138 477.658 623.974 477.813 622.953C477.969 621.933 477.969 620.261 477.813 619.24C477.658 618.219 477.531 619.055 477.531 621.097ZM1046.96 636.162C1046.96 636.275 1047.94 637.263 1049.15 638.356L1051.34 640.339L1049.36 638.142C1047.51 636.097 1046.96 635.64 1046.96 636.162ZM480.862 653.502C480.862 654.801 481.001 655.333 481.169 654.684C481.338 654.033 481.338 652.97 481.169 652.319C481.001 651.671 480.862 652.202 480.862 653.502ZM1068.56 659.241C1069.81 660.54 1070.99 661.603 1071.18 661.603C1071.37 661.603 1070.49 660.54 1069.23 659.241C1067.97 657.941 1066.79 656.878 1066.6 656.878C1066.42 656.878 1067.29 657.941 1068.56 659.241ZM165.831 690.8L162.481 694.345L166.026 690.994C169.317 687.883 169.877 687.258 169.375 687.258C169.268 687.258 167.675 688.852 165.831 690.8Z" fill="#295476"/>
</svg>
