<svg xmlns="http://www.w3.org/2000/svg" width="192" height="192" viewBox="0 0 192 192" version="1.1"><path d="M 41 18.796 C 40.175 19.073, 39.207 19.749, 38.850 20.298 C 38.492 20.847, 36.586 21.394, 34.614 21.514 C 30.966 21.735, 27.644 23.615, 28.487 24.980 C 28.743 25.394, 28.063 26.538, 26.976 27.521 C 25.889 28.505, 25 30.526, 25 32.011 C 25 35.278, 31.469 44.141, 33.332 43.426 C 34.046 43.152, 35.701 43.324, 37.010 43.808 C 38.433 44.334, 40.961 44.290, 43.295 43.697 C 45.814 43.058, 47.431 43.050, 47.850 43.676 C 49.033 45.442, 51.558 45.797, 53.392 44.455 C 54.387 43.728, 54.933 42.701, 54.607 42.173 C 54.281 41.645, 55.040 40.956, 56.294 40.641 C 60.081 39.691, 62.717 29.596, 59.500 28.362 C 58.675 28.045, 58 27.115, 58 26.294 C 58 25.474, 56.581 23.477, 54.847 21.857 C 52.484 19.650, 50.542 18.834, 47.097 18.602 C 44.569 18.432, 41.825 18.519, 41 18.796 M 129.500 19.329 C 128.034 20.335, 125.898 20.516, 121.500 20.005 C 117.836 19.579, 115.247 19.693, 114.851 20.299 C 114.494 20.845, 113.424 20.993, 112.474 20.628 C 111.524 20.264, 110.241 20.344, 109.623 20.808 C 109.005 21.271, 106.588 22.197, 104.250 22.865 C 101.746 23.581, 100 24.680, 100 25.540 C 100 26.343, 99.662 27.015, 99.250 27.033 C 98.838 27.052, 97.435 27.954, 96.132 29.039 C 94.155 30.686, 93.975 31.265, 95.040 32.548 C 95.906 33.591, 95.988 34.412, 95.296 35.104 C 94.102 36.298, 95.552 41.161, 98.233 44.949 C 99.545 46.801, 100.823 47.373, 103.483 47.298 C 105.417 47.243, 107 47.566, 107 48.016 C 107 48.945, 113.182 51.209, 120.299 52.887 C 123.906 53.737, 125.635 53.730, 127.265 52.858 C 128.457 52.220, 133.497 51.633, 138.466 51.552 C 149.945 51.366, 154.798 49.783, 160.310 44.425 C 164.647 40.209, 166.961 34.712, 164.927 33.455 C 164.372 33.112, 164.192 31.970, 164.527 30.916 C 164.934 29.631, 164.659 29, 163.690 29 C 162.895 29, 161.627 28.252, 160.872 27.337 C 160.118 26.423, 157.588 24.827, 155.250 23.791 C 152.912 22.754, 151 21.590, 151 21.203 C 151 20.816, 149.762 20.448, 148.250 20.385 C 144.814 20.241, 137.652 19.301, 134.151 18.535 C 132.620 18.200, 130.655 18.536, 129.500 19.329 M 35.250 57.652 C 34.563 57.935, 34 58.767, 34 59.500 C 34 60.233, 34.563 61.081, 35.250 61.384 C 35.938 61.687, 34.700 61.659, 32.500 61.323 C 30.300 60.987, 28.275 60.439, 28 60.106 C 27.725 59.773, 26.488 59.393, 25.250 59.262 C 23.374 59.063, 23 59.511, 23 61.955 C 23 63.806, 22.220 65.433, 20.885 66.368 C 19.721 67.183, 18.024 69.121, 17.114 70.675 C 15.394 73.608, 15.403 78, 17.129 78 C 17.673 78, 17.838 78.453, 17.495 79.008 C 17.153 79.562, 17.576 80.719, 18.436 81.579 C 19.296 82.439, 20 84.228, 20 85.553 C 20 88.026, 24.816 93.761, 28.588 95.779 C 29.730 96.391, 32.288 96.689, 34.272 96.443 C 36.256 96.197, 38.140 96.417, 38.458 96.932 C 39.532 98.669, 50.356 96.067, 49.740 94.220 C 49.608 93.824, 49.950 93.300, 50.500 93.056 C 51.050 92.812, 52.372 91.799, 53.439 90.806 C 54.505 89.813, 55.716 89, 56.130 89 C 56.544 89, 56.737 86.188, 56.559 82.750 C 56.379 79.294, 56.712 75.907, 57.303 75.174 C 57.964 74.354, 58.010 73.590, 57.423 73.174 C 56.902 72.803, 56.414 71.233, 56.339 69.685 C 56.173 66.247, 56 66.060, 52.730 65.790 C 51.129 65.657, 49.931 64.843, 49.627 63.682 C 49.355 62.641, 48.540 61.993, 47.816 62.243 C 47.092 62.492, 45.556 61.690, 44.402 60.461 C 42.264 58.183, 37.506 56.722, 35.250 57.652 M 111.500 63.712 C 109.300 64.624, 107.350 65.737, 107.167 66.185 C 106.983 66.633, 105.775 67, 104.482 67 C 99.964 67, 91.663 71.726, 91.166 74.581 C 90.982 75.636, 90.082 77.082, 89.166 77.793 C 87.889 78.784, 87.542 80.534, 87.681 85.293 C 87.957 94.798, 87.963 94.822, 89.920 94.311 C 90.898 94.055, 93.228 94.779, 95.099 95.919 C 96.970 97.059, 99.202 97.994, 100.060 97.996 C 100.918 97.998, 103.008 99.357, 104.704 101.015 C 109.109 105.321, 113.089 106.522, 116.726 104.642 C 119.757 103.074, 122.499 103.820, 122.502 106.214 C 122.504 108.108, 128.920 107.208, 131.852 104.902 C 133.182 103.856, 135.459 103, 136.912 103 C 138.366 103, 140.443 102.386, 141.527 101.636 C 142.970 100.638, 144.978 100.470, 149 101.012 C 152.227 101.446, 154.999 101.355, 155.706 100.790 C 156.370 100.261, 157.356 100.102, 157.898 100.437 C 158.440 100.772, 160.275 99.686, 161.976 98.023 C 165.200 94.872, 167 94.197, 167 96.139 C 167 97.492, 174.444 96.808, 180.586 94.891 C 185.461 93.369, 188.318 88.479, 187.821 82.506 C 187.534 79.056, 187.021 78.400, 183 76.351 C 180.525 75.089, 177.536 74.044, 176.357 74.028 C 175.178 74.013, 173.952 73.316, 173.631 72.480 C 172.521 69.587, 166.035 66.686, 160.295 66.514 C 155.389 66.368, 154.587 66.640, 152.801 69.055 C 150.726 71.861, 147.594 72.067, 145.500 69.536 C 143.861 67.554, 139.945 65.807, 138.438 66.386 C 137.017 66.931, 131.073 64.292, 129.827 62.564 C 129.428 62.010, 128.515 62.158, 127.590 62.925 C 126.117 64.148, 122.374 64.039, 117.500 62.631 C 116.400 62.313, 113.700 62.800, 111.500 63.712 M 40.349 122.250 C 40.092 122.662, 38.769 123, 37.409 123 C 35.779 123, 34.627 123.767, 34.031 125.250 C 33.534 126.487, 33.098 127.184, 33.063 126.798 C 33.029 126.412, 31.762 127.253, 30.250 128.668 C 28.738 130.083, 27.613 131.637, 27.750 132.120 C 27.888 132.604, 27.277 133, 26.393 133 C 25.365 133, 24.996 133.548, 25.370 134.523 C 25.692 135.360, 25.177 136.842, 24.227 137.816 C 21.604 140.504, 21.514 143, 24.039 143 C 25.310 143, 25.989 143.504, 25.726 144.250 C 25.483 144.938, 24.546 145.438, 23.642 145.361 C 22.739 145.285, 22 145.847, 22 146.611 C 22 147.375, 22.788 148.007, 23.750 148.015 C 25.235 148.028, 25.274 148.173, 24.008 148.974 C 22.820 149.725, 22.770 150.170, 23.758 151.158 C 24.441 151.841, 25 153.435, 25 154.700 C 25 156.487, 25.558 157, 27.500 157 C 28.875 157, 30 157.477, 30 158.059 C 30 158.641, 29.550 158.840, 29 158.500 C 28.450 158.160, 28 158.269, 28 158.741 C 28 160.215, 30.317 162, 32.231 162 C 33.239 162, 34.322 162.675, 34.638 163.500 C 35.284 165.181, 39.545 165.545, 40.500 164 C 40.840 163.450, 42.190 163, 43.500 163 C 44.810 163, 46.149 162.567, 46.476 162.038 C 46.857 161.422, 47.981 161.422, 49.601 162.038 C 52.962 163.316, 54.052 163.251, 53.750 161.788 C 53.609 161.107, 54.613 160.541, 56.044 160.495 C 59.948 160.369, 62.793 156.951, 62.224 153.070 C 61.963 151.292, 62.347 148.720, 63.078 147.354 C 64.184 145.287, 64.184 144.732, 63.076 144.047 C 62.329 143.586, 62.078 142.683, 62.504 141.994 C 64.242 139.181, 64.837 133.875, 63.473 133.351 C 62.720 133.062, 62.394 132.137, 62.733 131.253 C 63.135 130.207, 62.944 129.916, 62.170 130.395 C 61.468 130.829, 61 130.495, 61 129.559 C 61 128.702, 60.550 128, 60 128 C 59.450 128, 58.069 127.069, 56.931 125.931 C 54.973 123.973, 54.725 123.950, 52.347 125.508 C 49.990 127.052, 49.748 127.041, 48.449 125.327 C 47.687 124.322, 47.049 123.002, 47.032 122.394 C 46.997 121.176, 41.097 121.049, 40.349 122.250 M 127.514 121.977 C 127.054 122.721, 125.643 122.979, 123.917 122.633 C 122.356 122.321, 120.809 122.501, 120.480 123.033 C 120.151 123.565, 118.109 124, 115.941 124 C 113.241 124, 112 124.438, 112 125.391 C 112 126.895, 105.227 130, 101.947 130 C 99.573 130, 90.456 134.453, 89.430 136.113 C 89.039 136.746, 89.457 137.676, 90.360 138.181 C 91.315 138.716, 92 140.360, 92 142.115 C 92 145.872, 93.606 149, 95.535 149 C 96.341 149, 97 149.457, 97 150.016 C 97 150.575, 95.763 150.942, 94.250 150.833 C 92.737 150.724, 90.472 151.191, 89.215 151.871 C 87.241 152.940, 87.022 153.611, 87.608 156.804 C 87.981 158.837, 88.672 160.650, 89.143 160.833 C 89.615 161.017, 90 161.704, 90 162.361 C 90 165.171, 93.919 166.980, 99.247 166.629 C 102.136 166.438, 105.370 166.729, 106.434 167.275 C 107.498 167.821, 111.245 168.455, 114.762 168.685 C 122.160 169.169, 128.261 166.838, 133.719 161.444 C 136.970 158.231, 140.521 157, 146.543 157 C 150.399 157, 153 156.151, 153 154.893 C 153 154.402, 150.059 154, 146.465 154 C 140.376 154, 139.998 153.872, 140.937 152.118 C 141.491 151.082, 143.296 150.037, 144.948 149.794 C 147.353 149.441, 147.733 149.617, 146.853 150.677 C 146.093 151.593, 146.083 152, 146.821 152 C 147.407 152, 148.544 151.061, 149.348 149.914 C 150.499 148.271, 151.209 148.042, 152.693 148.836 C 154.892 150.013, 169.953 149.256, 171.625 147.885 C 173.333 146.484, 175.317 138.400, 174.627 135.651 C 174.292 134.314, 173.315 132.951, 172.457 132.622 C 171.560 132.278, 171.156 132.443, 171.507 133.011 C 172.603 134.785, 171.126 134.052, 168.994 131.763 C 167.303 129.948, 166.748 129.790, 166.048 130.923 C 165.340 132.068, 164.653 132.099, 162.228 131.094 C 160.602 130.421, 157.523 129.676, 155.386 129.440 C 153.249 129.203, 150.600 128.864, 149.500 128.687 C 146.783 128.249, 140.729 125.005, 139.500 123.329 C 138.122 121.449, 128.510 120.365, 127.514 121.977" stroke="none" fill="#fffcfc" fill-rule="evenodd"/><path d="" stroke="none" fill="#fcfcfc" fill-rule="evenodd"/></svg>