<svg width="250" height="350" viewBox="0 0 250 350" fill="none" xmlns="http://www.w3.org/2000/svg">
<g clip-path="url(#clip0_99_580)">
<rect width="250" height="350" rx="12.4" fill="#DDDDDD"/>
<path d="M14.848 49.496C18.912 46.232 22.096 43.56 24.4 41.48C26.704 39.368 28.64 37.176 30.208 34.904C31.808 32.6 32.608 30.344 32.608 28.136C32.608 26.056 32.096 24.424 31.072 23.24C30.08 22.024 28.464 21.416 26.224 21.416C24.048 21.416 22.352 22.104 21.136 23.48C19.952 24.824 19.312 26.632 19.216 28.904H14.992C15.12 25.32 16.208 22.552 18.256 20.6C20.304 18.648 22.944 17.672 26.176 17.672C29.472 17.672 32.08 18.584 34 20.408C35.952 22.232 36.928 24.744 36.928 27.944C36.928 30.6 36.128 33.192 34.528 35.72C32.96 38.216 31.168 40.424 29.152 42.344C27.136 44.232 24.56 46.44 21.424 48.968H37.936V52.616H14.848V49.496Z" fill="#0F0E16"/>
<path d="M208.448 303.504C212.512 306.768 215.696 309.44 218 311.52C220.304 313.632 222.24 315.824 223.808 318.096C225.408 320.4 226.208 322.656 226.208 324.864C226.208 326.944 225.696 328.576 224.672 329.76C223.68 330.976 222.064 331.584 219.824 331.584C217.648 331.584 215.952 330.896 214.736 329.52C213.552 328.176 212.912 326.368 212.816 324.096H208.592C208.72 327.68 209.808 330.448 211.856 332.4C213.904 334.352 216.544 335.328 219.776 335.328C223.072 335.328 225.68 334.416 227.6 332.592C229.552 330.768 230.528 328.256 230.528 325.056C230.528 322.4 229.728 319.808 228.128 317.28C226.56 314.784 224.768 312.576 222.752 310.656C220.736 308.768 218.16 306.56 215.024 304.032H231.536V300.384H208.448V303.504Z" fill="#0F0E16"/>
<path d="M96.9261 202.273V211H95.9205V202.273H96.9261ZM101.512 211.136C100.882 211.136 100.338 210.997 99.8803 210.719C99.4258 210.438 99.0749 210.045 98.8278 209.543C98.5835 209.037 98.4613 208.449 98.4613 207.778C98.4613 207.108 98.5835 206.517 98.8278 206.006C99.0749 205.491 99.4187 205.091 99.859 204.804C100.302 204.514 100.819 204.369 101.41 204.369C101.751 204.369 102.088 204.426 102.42 204.54C102.752 204.653 103.055 204.838 103.328 205.094C103.6 205.347 103.818 205.682 103.98 206.099C104.142 206.517 104.223 207.031 104.223 207.642V208.068H99.1772V207.199H103.2C103.2 206.83 103.126 206.5 102.978 206.21C102.833 205.92 102.626 205.692 102.356 205.524C102.089 205.357 101.774 205.273 101.41 205.273C101.01 205.273 100.663 205.372 100.37 205.571C100.081 205.767 99.8576 206.023 99.7013 206.338C99.5451 206.653 99.467 206.991 99.467 207.352V207.932C99.467 208.426 99.5522 208.845 99.7227 209.189C99.896 209.53 100.136 209.79 100.443 209.969C100.75 210.145 101.106 210.233 101.512 210.233C101.777 210.233 102.015 210.196 102.228 210.122C102.444 210.045 102.63 209.932 102.787 209.781C102.943 209.628 103.064 209.437 103.149 209.21L104.12 209.483C104.018 209.812 103.846 210.102 103.605 210.352C103.363 210.599 103.065 210.793 102.71 210.932C102.355 211.068 101.956 211.136 101.512 211.136ZM110.389 205.92L109.485 206.176C109.429 206.026 109.345 205.879 109.234 205.737C109.126 205.592 108.978 205.473 108.791 205.379C108.603 205.286 108.363 205.239 108.071 205.239C107.67 205.239 107.336 205.331 107.069 205.516C106.805 205.697 106.673 205.929 106.673 206.21C106.673 206.46 106.764 206.658 106.946 206.803C107.127 206.947 107.412 207.068 107.798 207.165L108.77 207.403C109.355 207.545 109.791 207.763 110.078 208.055C110.365 208.345 110.508 208.719 110.508 209.176C110.508 209.551 110.4 209.886 110.184 210.182C109.971 210.477 109.673 210.71 109.289 210.881C108.906 211.051 108.46 211.136 107.951 211.136C107.284 211.136 106.731 210.991 106.294 210.702C105.856 210.412 105.579 209.989 105.463 209.432L106.417 209.193C106.508 209.545 106.68 209.81 106.933 209.986C107.189 210.162 107.522 210.25 107.934 210.25C108.403 210.25 108.775 210.151 109.051 209.952C109.329 209.75 109.468 209.509 109.468 209.227C109.468 209 109.389 208.81 109.23 208.656C109.071 208.5 108.826 208.384 108.497 208.307L107.406 208.051C106.806 207.909 106.366 207.689 106.085 207.391C105.806 207.089 105.667 206.713 105.667 206.261C105.667 205.892 105.771 205.565 105.978 205.281C106.189 204.997 106.474 204.774 106.835 204.612C107.199 204.45 107.61 204.369 108.071 204.369C108.718 204.369 109.227 204.511 109.596 204.795C109.968 205.08 110.233 205.455 110.389 205.92ZM114.869 204.455V205.307H111.477V204.455H114.869ZM112.465 202.886H113.471V209.125C113.471 209.409 113.512 209.622 113.594 209.764C113.68 209.903 113.788 209.997 113.918 210.045C114.052 210.091 114.192 210.114 114.34 210.114C114.451 210.114 114.542 210.108 114.613 210.097C114.684 210.082 114.741 210.071 114.783 210.062L114.988 210.966C114.92 210.991 114.825 211.017 114.702 211.043C114.58 211.071 114.425 211.085 114.238 211.085C113.954 211.085 113.675 211.024 113.403 210.902C113.133 210.78 112.908 210.594 112.729 210.344C112.553 210.094 112.465 209.778 112.465 209.398V202.886ZM118.308 211.153C117.893 211.153 117.516 211.075 117.178 210.919C116.84 210.76 116.572 210.531 116.373 210.233C116.174 209.932 116.075 209.568 116.075 209.142C116.075 208.767 116.148 208.463 116.296 208.23C116.444 207.994 116.641 207.81 116.888 207.676C117.136 207.543 117.408 207.443 117.707 207.378C118.008 207.31 118.31 207.256 118.614 207.216C119.012 207.165 119.335 207.126 119.582 207.101C119.832 207.072 120.013 207.026 120.127 206.96C120.244 206.895 120.302 206.781 120.302 206.619V206.585C120.302 206.165 120.187 205.838 119.957 205.605C119.729 205.372 119.384 205.256 118.921 205.256C118.441 205.256 118.065 205.361 117.792 205.571C117.519 205.781 117.327 206.006 117.217 206.244L116.262 205.903C116.433 205.506 116.66 205.196 116.944 204.974C117.231 204.75 117.543 204.594 117.881 204.506C118.222 204.415 118.558 204.369 118.887 204.369C119.097 204.369 119.339 204.395 119.612 204.446C119.887 204.494 120.153 204.595 120.408 204.749C120.667 204.902 120.881 205.134 121.052 205.443C121.222 205.753 121.308 206.168 121.308 206.688V211H120.302V210.114H120.251C120.183 210.256 120.069 210.408 119.91 210.57C119.751 210.732 119.539 210.869 119.275 210.983C119.011 211.097 118.688 211.153 118.308 211.153ZM118.461 210.25C118.859 210.25 119.194 210.172 119.467 210.016C119.742 209.859 119.95 209.658 120.089 209.411C120.231 209.163 120.302 208.903 120.302 208.631V207.71C120.259 207.761 120.165 207.808 120.021 207.851C119.879 207.891 119.714 207.926 119.526 207.957C119.342 207.986 119.161 208.011 118.985 208.034C118.812 208.054 118.671 208.071 118.563 208.085C118.302 208.119 118.058 208.175 117.83 208.251C117.606 208.325 117.424 208.437 117.285 208.588C117.148 208.736 117.08 208.937 117.08 209.193C117.08 209.543 117.21 209.807 117.468 209.986C117.729 210.162 118.06 210.25 118.461 210.25ZM123.143 211V204.455H124.115V205.443H124.183C124.302 205.119 124.518 204.857 124.831 204.655C125.143 204.453 125.495 204.352 125.887 204.352C125.961 204.352 126.054 204.354 126.164 204.357C126.275 204.359 126.359 204.364 126.416 204.369V205.392C126.382 205.384 126.304 205.371 126.181 205.354C126.062 205.334 125.936 205.324 125.802 205.324C125.484 205.324 125.2 205.391 124.95 205.524C124.703 205.655 124.507 205.837 124.362 206.07C124.22 206.3 124.149 206.562 124.149 206.858V211H123.143ZM133.159 204.455L130.739 211H129.716L127.296 204.455H128.387L130.194 209.67H130.262L132.069 204.455H133.159ZM136.214 211.153C135.799 211.153 135.423 211.075 135.085 210.919C134.746 210.76 134.478 210.531 134.279 210.233C134.08 209.932 133.981 209.568 133.981 209.142C133.981 208.767 134.055 208.463 134.202 208.23C134.35 207.994 134.548 207.81 134.795 207.676C135.042 207.543 135.315 207.443 135.613 207.378C135.914 207.31 136.217 207.256 136.521 207.216C136.918 207.165 137.241 207.126 137.488 207.101C137.738 207.072 137.92 207.026 138.033 206.96C138.15 206.895 138.208 206.781 138.208 206.619V206.585C138.208 206.165 138.093 205.838 137.863 205.605C137.636 205.372 137.29 205.256 136.827 205.256C136.347 205.256 135.971 205.361 135.698 205.571C135.425 205.781 135.234 206.006 135.123 206.244L134.168 205.903C134.339 205.506 134.566 205.196 134.85 204.974C135.137 204.75 135.45 204.594 135.788 204.506C136.129 204.415 136.464 204.369 136.793 204.369C137.004 204.369 137.245 204.395 137.518 204.446C137.793 204.494 138.059 204.595 138.315 204.749C138.573 204.902 138.788 205.134 138.958 205.443C139.129 205.753 139.214 206.168 139.214 206.688V211H138.208V210.114H138.157C138.089 210.256 137.975 210.408 137.816 210.57C137.657 210.732 137.445 210.869 137.181 210.983C136.917 211.097 136.594 211.153 136.214 211.153ZM136.367 210.25C136.765 210.25 137.1 210.172 137.373 210.016C137.648 209.859 137.856 209.658 137.995 209.411C138.137 209.163 138.208 208.903 138.208 208.631V207.71C138.165 207.761 138.072 207.808 137.927 207.851C137.785 207.891 137.62 207.926 137.433 207.957C137.248 207.986 137.067 208.011 136.891 208.034C136.718 208.054 136.577 208.071 136.469 208.085C136.208 208.119 135.964 208.175 135.737 208.251C135.512 208.325 135.33 208.437 135.191 208.588C135.055 208.736 134.987 208.937 134.987 209.193C134.987 209.543 135.116 209.807 135.374 209.986C135.636 210.162 135.967 210.25 136.367 210.25ZM143.691 213.591C143.206 213.591 142.788 213.528 142.439 213.403C142.089 213.281 141.798 213.119 141.565 212.918C141.335 212.719 141.152 212.506 141.015 212.278L141.816 211.716C141.907 211.835 142.022 211.972 142.162 212.125C142.301 212.281 142.491 212.416 142.733 212.53C142.977 212.646 143.297 212.705 143.691 212.705C144.22 212.705 144.656 212.577 145 212.321C145.343 212.065 145.515 211.665 145.515 211.119V209.79H145.43C145.356 209.909 145.251 210.057 145.115 210.233C144.981 210.406 144.788 210.561 144.535 210.697C144.285 210.831 143.947 210.898 143.521 210.898C142.993 210.898 142.518 210.773 142.098 210.523C141.68 210.273 141.349 209.909 141.105 209.432C140.863 208.955 140.743 208.375 140.743 207.693C140.743 207.023 140.86 206.439 141.096 205.942C141.332 205.442 141.66 205.055 142.081 204.783C142.501 204.507 142.987 204.369 143.538 204.369C143.964 204.369 144.302 204.44 144.552 204.582C144.805 204.722 144.998 204.881 145.132 205.06C145.268 205.236 145.373 205.381 145.447 205.494H145.549V204.455H146.521V211.188C146.521 211.75 146.393 212.207 146.137 212.56C145.885 212.915 145.544 213.175 145.115 213.339C144.689 213.507 144.214 213.591 143.691 213.591ZM143.657 209.994C144.061 209.994 144.402 209.902 144.68 209.717C144.958 209.533 145.17 209.267 145.315 208.92C145.46 208.574 145.532 208.159 145.532 207.676C145.532 207.205 145.461 206.788 145.319 206.428C145.177 206.067 144.967 205.784 144.689 205.58C144.41 205.375 144.066 205.273 143.657 205.273C143.231 205.273 142.876 205.381 142.592 205.597C142.311 205.812 142.099 206.102 141.957 206.466C141.818 206.83 141.748 207.233 141.748 207.676C141.748 208.131 141.819 208.533 141.961 208.882C142.106 209.229 142.319 209.501 142.6 209.7C142.885 209.896 143.237 209.994 143.657 209.994ZM149.368 207.062V211H148.362V204.455H149.333V205.477H149.419C149.572 205.145 149.805 204.878 150.118 204.676C150.43 204.472 150.833 204.369 151.328 204.369C151.771 204.369 152.159 204.46 152.491 204.642C152.824 204.821 153.082 205.094 153.267 205.46C153.451 205.824 153.544 206.284 153.544 206.841V211H152.538V206.909C152.538 206.395 152.404 205.994 152.137 205.707C151.87 205.418 151.504 205.273 151.038 205.273C150.717 205.273 150.43 205.342 150.177 205.482C149.927 205.621 149.73 205.824 149.585 206.091C149.44 206.358 149.368 206.682 149.368 207.062Z" fill="#0F0E16"/>
<path fill-rule="evenodd" clip-rule="evenodd" d="M102.451 140.617C102.178 140.653 101.711 140.679 101.413 140.675C100.641 140.664 99.8685 140.935 100.578 140.968C100.733 140.975 100.706 141.002 100.463 141.081C97.82 141.939 95.6337 144.777 95.3198 147.756C95.1674 149.202 95.202 176.126 95.3572 176.915C95.4275 177.273 95.5728 178.074 95.6797 178.694C95.7867 179.315 95.9713 180.331 96.09 180.951C96.2087 181.572 96.3718 182.466 96.4527 182.937C96.5337 183.409 96.638 184.013 96.6846 184.279C96.7777 184.81 96.7111 184.97 96.3388 185.111C96.0839 185.208 96.072 185.338 96.3125 185.401C96.5171 185.455 96.607 194.583 96.4029 194.583C96.2537 194.583 96.3003 194.752 96.5064 194.958C96.6645 195.116 96.7311 195.133 96.8663 195.048C97.0891 194.909 147.237 194.898 147.376 195.037C147.439 195.1 147.514 195.078 147.612 194.969C147.841 194.714 147.881 184.984 147.654 184.94C147.447 184.9 147.453 184.847 148.037 181.719C148.139 181.173 148.266 180.482 148.319 180.184C148.371 179.886 148.453 179.48 148.499 179.281C148.545 179.083 148.675 178.453 148.787 177.882L148.99 176.844L149.016 162.49C149.044 147.192 149.049 147.376 148.592 146.009C147.627 143.122 144.913 140.916 141.993 140.646C141.142 140.567 103.041 140.54 102.451 140.617ZM143.366 141.381C145.143 142.019 146.738 143.278 147.463 144.613C147.518 144.713 147.654 144.957 147.767 145.156C148.013 145.587 148.271 146.37 148.451 147.233C148.61 147.992 148.653 176.216 148.497 176.91C148.449 177.122 148.368 177.519 148.317 177.792C148.166 178.589 147.806 180.543 147.584 181.764C147.471 182.385 147.292 183.339 147.187 183.885L146.996 184.878L122.178 184.901C108.528 184.914 97.3298 184.893 97.2929 184.856C97.256 184.819 97.184 184.544 97.133 184.247C97.0818 183.949 96.9762 183.36 96.898 182.937C96.8198 182.515 96.6968 181.825 96.6245 181.403C96.3793 179.972 96.025 178.11 95.8775 177.476C95.7049 176.733 95.6149 148.933 95.781 147.648C96.1555 144.75 98.3195 142.122 100.917 141.41C101.14 141.349 101.424 141.264 101.549 141.222C101.979 141.077 102.419 141.074 122.448 141.087L142.58 141.099L143.366 141.381ZM114.386 148.289C114.17 148.505 114.236 183.992 114.452 184.108C114.641 184.209 129.583 184.247 129.843 184.147C130.032 184.074 130.066 148.477 129.878 148.289C129.721 148.132 114.543 148.132 114.386 148.289ZM129.556 157.366C129.569 162.17 129.569 170.072 129.556 174.926L129.531 183.751L122.153 183.728L114.774 183.705L114.751 166.281C114.738 156.698 114.747 148.807 114.771 148.745C114.805 148.656 116.369 148.632 122.173 148.632H129.532L129.556 157.366ZM127.56 165.469C127.32 165.686 127.124 165.785 126.931 165.785C126.616 165.785 126.419 166.039 126.512 166.33C126.581 166.55 126.856 166.705 127.046 166.632C127.136 166.598 127.323 166.698 127.55 166.903C128.147 167.443 128.856 167.327 129.243 166.625C129.809 165.6 128.45 164.665 127.56 165.469ZM128.664 165.735C129.098 166.137 128.884 166.778 128.316 166.778C128.148 166.778 127.986 166.737 127.955 166.687C127.922 166.635 128.013 166.597 128.173 166.597C128.572 166.597 128.817 166.22 128.585 165.963C128.496 165.865 128.328 165.785 128.212 165.785C128.005 165.785 127.94 165.694 128.06 165.574C128.182 165.453 128.431 165.519 128.664 165.735ZM147.393 185.578L147.365 185.781L122.182 185.804C106.657 185.818 96.9666 185.794 96.9146 185.742C96.5304 185.358 95.3747 185.375 122.181 185.375H147.422L147.393 185.578ZM97.6767 186.549C97.7539 186.829 97.7776 192.98 97.7022 193.177C97.6465 193.322 97.3471 193.364 97.0873 193.265C96.896 193.191 96.8668 186.416 97.0572 186.336C97.3218 186.224 97.6149 186.325 97.6767 186.549ZM147.211 186.386C147.292 186.467 147.319 187.351 147.319 189.806C147.319 193.418 147.327 193.363 146.806 193.303L146.552 193.274L146.528 189.953C146.513 187.766 146.537 186.571 146.599 186.454C146.705 186.258 147.045 186.22 147.211 186.386ZM146.034 190.002L146.01 193.274L122.187 193.297C104.651 193.314 98.3304 193.293 98.2404 193.218C98.1099 193.11 98.0501 186.917 98.1782 186.789C98.2113 186.756 108.998 186.729 122.148 186.729H146.058L146.034 190.002ZM147.274 194.132V194.448H122.132H96.9896L96.9599 194.238C96.9435 194.123 96.9524 193.97 96.9797 193.9C97.0225 193.788 100.444 193.774 122.152 193.793L147.274 193.816V194.132ZM123.396 198.917C123.301 198.978 123.437 199.003 123.847 198.999C124.258 198.996 124.38 198.971 124.253 198.917C124.007 198.81 123.56 198.81 123.396 198.917ZM127.368 198.917C127.368 198.966 127.5 199.004 127.662 199.001C127.907 198.995 127.926 198.982 127.774 198.917C127.525 198.81 127.368 198.81 127.368 198.917Z" fill="#0F0E16"/>
<path d="M106.861 279.34C106.876 280.096 107.716 280.541 110.571 281.307C114.861 282.458 116.351 283.173 118.332 285.031C121.803 288.287 123.721 292.55 123.977 297.573C124.107 300.138 124.062 300.522 123.697 299.977C123.457 299.62 122.645 298.399 121.891 297.263C119.075 293.022 113.958 290.335 109.396 290.703C105.216 291.039 101.574 293.564 99.8025 297.353C99.0306 299.004 98.5327 299.714 98.533 302.491C98.5332 305.077 99.0516 306.027 99.638 307.3C100.631 309.456 102.925 311.871 104.964 312.907C106.452 313.663 106.954 313.745 109.206 313.599C110.763 313.499 112.407 313.149 113.415 312.703C114.325 312.301 115.134 312.037 115.213 312.116C115.292 312.195 114.854 313.229 114.239 314.414C113.217 316.383 112.962 317.852 113.117 319.621C113.37 322.502 114.294 325.667 116.392 327.652C118.586 329.727 121.041 330.735 124.953 330.589C128.592 330.453 130.705 329.343 132.67 327.361C134.593 325.422 135.55 322.497 135.777 319.771C135.929 317.952 135.67 316.653 134.57 314.429C133.907 313.087 133.47 311.989 133.599 311.989C133.729 311.989 134.729 312.406 135.821 312.915C140.929 315.297 146.785 312.99 149.261 307.621C149.855 306.333 150.337 305.418 150.335 302.491C150.332 299.392 149.87 298.709 149.144 297.233C146.846 292.566 141.52 289.873 136.656 290.919C132.514 291.81 129.031 294.316 126.482 298.24C125.69 299.459 124.972 300.456 124.886 300.456C124.636 300.456 125.139 296.074 125.655 293.757C126.66 289.243 129.649 285.146 133.437 283.091C134.887 282.305 137.838 281.359 141.064 280.646C141.567 280.535 142.031 280.153 142.132 279.768C142.308 279.091 142.175 279.086 124.583 279.086C114.833 279.086 106.858 279.2 106.861 279.34Z" fill="#0F0E16"/>
<path d="M100.866 78.9495C100.883 78.1209 101.794 77.6327 104.89 76.7925C109.545 75.5295 111.16 74.7457 113.309 72.7076C117.074 69.1366 119.155 64.4616 119.432 58.9526C119.574 56.139 119.525 55.7179 119.129 56.3159C118.869 56.7074 117.987 58.0467 117.169 59.2922C114.115 63.944 108.565 66.8901 103.615 66.4873C99.0816 66.1183 95.131 63.3493 93.2094 59.1936C92.3721 57.3827 91.8321 56.604 91.8323 53.558C91.8326 50.7216 92.3949 49.6802 93.031 48.2842C94.1085 45.9193 96.5971 43.2704 98.8086 42.1341C100.422 41.3051 100.967 41.2152 103.41 41.3749C105.099 41.4853 106.882 41.869 107.976 42.3579C108.963 42.7989 109.841 43.0887 109.926 43.002C110.012 42.9153 109.536 41.781 108.869 40.4814C107.761 38.3217 107.484 36.7103 107.653 34.7702C107.927 31.6106 108.929 28.1389 111.205 25.9627C113.585 23.6866 116.248 22.581 120.491 22.741C124.439 22.8898 126.731 24.1079 128.863 26.2819C130.948 28.4086 131.986 31.6167 132.233 34.6055C132.397 36.6012 132.117 38.026 130.924 40.465C130.204 41.9368 129.73 43.141 129.87 43.141C130.011 43.141 131.095 42.684 132.28 42.1254C137.821 39.5132 144.174 42.0435 146.859 47.9319C147.504 49.345 148.026 50.3483 148.024 53.558C148.021 56.9575 147.52 57.7058 146.732 59.3246C144.24 64.4435 138.462 67.3972 133.186 66.2498C128.693 65.273 124.915 62.5241 122.15 58.2201C121.291 56.8837 120.512 55.7903 120.419 55.7903C120.148 55.7903 120.694 60.5963 121.253 63.138C122.343 68.088 125.585 72.5818 129.695 74.8358C131.267 75.6982 134.469 76.7358 137.968 77.5169C138.513 77.6386 139.017 78.0578 139.126 78.4804C139.318 79.2229 139.173 79.2286 120.09 79.2286C109.514 79.2286 100.863 79.103 100.866 78.9495Z" fill="#0F0E16"/>
<path d="M211.428 275.315C211.435 275.656 211.819 275.857 213.126 276.203C215.089 276.723 215.771 277.046 216.677 277.885C218.266 279.356 219.144 281.281 219.261 283.549C219.32 284.707 219.3 284.881 219.132 284.635C219.023 284.473 218.651 283.922 218.306 283.409C217.017 281.494 214.676 280.281 212.588 280.446C210.675 280.598 209.008 281.739 208.198 283.45C207.844 284.195 207.617 284.516 207.617 285.77C207.617 286.938 207.854 287.367 208.122 287.942C208.577 288.916 209.627 290.006 210.56 290.474C211.241 290.816 211.47 290.853 212.501 290.787C213.214 290.741 213.966 290.583 214.427 290.382C214.844 290.2 215.214 290.081 215.25 290.117C215.286 290.153 215.086 290.62 214.804 291.155C214.337 292.044 214.22 292.708 214.291 293.506C214.407 294.807 214.829 296.237 215.789 297.133C216.794 298.07 217.917 298.525 219.707 298.46C221.373 298.398 222.34 297.897 223.239 297.002C224.119 296.126 224.557 294.805 224.661 293.574C224.73 292.752 224.612 292.166 224.108 291.161C223.805 290.555 223.605 290.06 223.664 290.06C223.723 290.06 224.181 290.248 224.681 290.478C227.018 291.553 229.698 290.511 230.831 288.087C231.103 287.505 231.324 287.092 231.323 285.77C231.321 284.37 231.11 284.062 230.778 283.396C229.726 281.288 227.289 280.072 225.063 280.544C223.168 280.946 221.574 282.078 220.407 283.851C220.045 284.401 219.716 284.851 219.677 284.851C219.562 284.851 219.793 282.872 220.029 281.826C220.488 279.787 221.856 277.937 223.59 277.009C224.253 276.654 225.604 276.226 227.08 275.905C227.31 275.855 227.523 275.682 227.569 275.508C227.65 275.202 227.589 275.2 219.538 275.2C215.076 275.2 211.427 275.252 211.428 275.315Z" fill="#0F0E16"/>
<path d="M17.4279 77.6851C17.435 77.3439 17.8191 77.1429 19.1255 76.7969C21.0891 76.2769 21.7706 75.9541 22.6772 75.1149C24.2657 73.6445 25.1437 71.7195 25.2605 69.4511C25.3202 68.2925 25.2997 68.1191 25.1324 68.3654C25.0228 68.5266 24.6509 69.0781 24.3059 69.5909C23.0173 71.5064 20.6759 72.7195 18.5878 72.5536C16.675 72.4017 15.0084 71.2615 14.1977 69.5503C13.8445 68.8047 13.6167 68.484 13.6168 67.2298C13.6169 66.0618 13.8541 65.633 14.1224 65.0582C14.577 64.0844 15.6269 62.9937 16.5599 62.5258C17.2405 62.1845 17.4704 62.1474 18.501 62.2132C19.2137 62.2587 19.9657 62.4167 20.4273 62.6179C20.8438 62.7995 21.214 62.9189 21.2501 62.8832C21.2862 62.8475 21.0855 62.3804 20.8042 61.8453C20.3366 60.956 20.2199 60.2925 20.2909 59.4936C20.4066 58.1926 20.8294 56.7631 21.7894 55.867C22.7935 54.9298 23.917 54.4745 25.7072 54.5404C27.3727 54.6017 28.3396 55.1033 29.239 55.9984C30.1189 56.8741 30.5567 58.1951 30.6607 59.4258C30.7301 60.2475 30.6118 60.8342 30.1085 61.8385C29.8048 62.4446 29.6048 62.9404 29.6641 62.9404C29.7234 62.9404 30.1808 62.7522 30.6807 62.5222C33.0181 61.4466 35.6984 62.4885 36.8313 64.9132C37.1031 65.495 37.3236 65.9081 37.3226 67.2298C37.3215 68.6295 37.1101 68.9377 36.7776 69.6043C35.7262 71.712 33.2887 72.9282 31.0627 72.4558C29.1675 72.0536 27.5737 70.9217 26.4069 69.1495C26.0446 68.5992 25.716 68.1489 25.6767 68.1489C25.5624 68.1489 25.7926 70.1279 26.0286 71.1745C26.4883 73.2127 27.8563 75.0631 29.5899 75.9912C30.2532 76.3463 31.604 76.7736 33.0802 77.0952C33.3103 77.1453 33.5228 77.3179 33.5688 77.4919C33.6496 77.7977 33.5887 77.8 25.5379 77.8C21.0761 77.8 17.4266 77.7483 17.4279 77.6851Z" fill="#0F0E16"/>
</g>
<defs>
<clipPath id="clip0_99_580">
<rect width="250" height="350" rx="12.4" fill="white"/>
</clipPath>
</defs>
</svg>
