<svg width="250" height="350" viewBox="0 0 250 350" fill="none" xmlns="http://www.w3.org/2000/svg">
<g clip-path="url(#clip0_155_834)">
<mask id="mask0_155_834" style="mask-type:luminance" maskUnits="userSpaceOnUse" x="0" y="0" width="250" height="350">
<path d="M237.6 0H12.4C5.55167 0 0 5.55167 0 12.4V337.6C0 344.448 5.55167 350 12.4 350H237.6C244.448 350 250 344.448 250 337.6V12.4C250 5.55167 244.448 0 237.6 0Z" fill="white"/>
</mask>
<g mask="url(#mask0_155_834)">
<path d="M237.6 0H12.4C5.55167 0 0 5.55167 0 12.4V337.6C0 344.448 5.55167 350 12.4 350H237.6C244.448 350 250 344.448 250 337.6V12.4C250 5.55167 244.448 0 237.6 0Z" fill="#DDDDDD"/>
<path d="M21.712 34.952C19.92 34.248 18.544 33.224 17.584 31.88C16.624 30.536 16.144 28.904 16.144 26.984C16.144 25.256 16.576 23.704 17.44 22.328C18.304 20.92 19.584 19.816 21.28 19.016C23.008 18.184 25.088 17.768 27.52 17.768C29.952 17.768 32.016 18.184 33.712 19.016C35.44 19.816 36.736 20.92 37.6 22.328C38.496 23.704 38.944 25.256 38.944 26.984C38.944 28.84 38.448 30.472 37.456 31.88C36.464 33.256 35.104 34.28 33.376 34.952C35.36 35.56 36.928 36.632 38.08 38.168C39.264 39.672 39.856 41.496 39.856 43.64C39.856 45.72 39.344 47.544 38.32 49.112C37.296 50.648 35.84 51.848 33.952 52.712C32.096 53.544 29.952 53.96 27.52 53.96C25.088 53.96 22.944 53.544 21.088 52.712C19.264 51.848 17.84 50.648 16.816 49.112C15.792 47.544 15.28 45.72 15.28 43.64C15.28 41.496 15.856 39.656 17.008 38.12C18.16 36.584 19.728 35.528 21.712 34.952ZM34.72 27.512C34.72 25.56 34.08 24.056 32.8 23C31.52 21.944 29.76 21.416 27.52 21.416C25.312 21.416 23.568 21.944 22.288 23C21.008 24.056 20.368 25.576 20.368 27.56C20.368 29.352 21.024 30.792 22.336 31.88C23.68 32.968 25.408 33.512 27.52 33.512C29.664 33.512 31.392 32.968 32.704 31.88C34.048 30.76 34.72 29.304 34.72 27.512ZM27.52 36.872C25.152 36.872 23.216 37.432 21.712 38.552C20.208 39.64 19.456 41.288 19.456 43.496C19.456 45.544 20.176 47.192 21.616 48.44C23.088 49.688 25.056 50.312 27.52 50.312C29.984 50.312 31.936 49.688 33.376 48.44C34.816 47.192 35.536 45.544 35.536 43.496C35.536 41.352 34.8 39.72 33.328 38.6C31.856 37.448 29.92 36.872 27.52 36.872Z" fill="#0F0E16"/>
<path d="M215.312 318.048C213.52 318.752 212.144 319.776 211.184 321.12C210.224 322.464 209.744 324.096 209.744 326.016C209.744 327.744 210.176 329.296 211.04 330.672C211.904 332.08 213.184 333.184 214.88 333.984C216.608 334.816 218.688 335.232 221.12 335.232C223.552 335.232 225.616 334.816 227.312 333.984C229.04 333.184 230.336 332.08 231.2 330.672C232.096 329.296 232.544 327.744 232.544 326.016C232.544 324.16 232.048 322.528 231.056 321.12C230.064 319.744 228.704 318.72 226.976 318.048C228.96 317.44 230.528 316.368 231.68 314.832C232.864 313.328 233.456 311.504 233.456 309.36C233.456 307.28 232.944 305.456 231.92 303.888C230.896 302.352 229.44 301.152 227.552 300.288C225.696 299.456 223.552 299.04 221.12 299.04C218.688 299.04 216.544 299.456 214.688 300.288C212.864 301.152 211.44 302.352 210.416 303.888C209.392 305.456 208.88 307.28 208.88 309.36C208.88 311.504 209.456 313.344 210.608 314.88C211.76 316.416 213.328 317.472 215.312 318.048ZM228.32 325.488C228.32 327.44 227.68 328.944 226.4 330C225.12 331.056 223.36 331.584 221.12 331.584C218.912 331.584 217.168 331.056 215.888 330C214.608 328.944 213.968 327.424 213.968 325.44C213.968 323.648 214.624 322.208 215.936 321.12C217.28 320.032 219.008 319.488 221.12 319.488C223.264 319.488 224.992 320.032 226.304 321.12C227.648 322.24 228.32 323.696 228.32 325.488ZM221.12 316.128C218.752 316.128 216.816 315.568 215.312 314.448C213.808 313.36 213.056 311.712 213.056 309.504C213.056 307.456 213.776 305.808 215.216 304.56C216.688 303.312 218.656 302.688 221.12 302.688C223.584 302.688 225.536 303.312 226.976 304.56C228.416 305.808 229.136 307.456 229.136 309.504C229.136 311.648 228.4 313.28 226.928 314.4C225.456 315.552 223.52 316.128 221.12 316.128Z" fill="#0F0E16"/>
<path fill-rule="evenodd" clip-rule="evenodd" d="M105.451 141.617C105.178 141.653 104.711 141.679 104.413 141.675C103.641 141.664 102.868 141.935 103.578 141.968C103.733 141.975 103.706 142.002 103.463 142.081C100.82 142.939 98.6337 145.777 98.3198 148.756C98.1674 150.202 98.202 177.126 98.3572 177.915C98.4275 178.273 98.5728 179.074 98.6797 179.694C98.7867 180.315 98.9713 181.331 99.09 181.951C99.2087 182.572 99.3718 183.466 99.4527 183.937C99.5337 184.409 99.638 185.013 99.6846 185.279C99.7777 185.81 99.7111 185.97 99.3388 186.111C99.0839 186.208 99.072 186.338 99.3125 186.401C99.5171 186.455 99.607 195.583 99.4029 195.583C99.2537 195.583 99.3003 195.752 99.5064 195.958C99.6645 196.116 99.7311 196.133 99.8663 196.048C100.089 195.909 150.237 195.898 150.376 196.037C150.439 196.1 150.514 196.078 150.612 195.969C150.841 195.714 150.881 185.984 150.654 185.94C150.447 185.9 150.453 185.847 151.037 182.719C151.139 182.173 151.266 181.482 151.319 181.184C151.371 180.886 151.453 180.48 151.499 180.281C151.545 180.083 151.675 179.453 151.787 178.882L151.99 177.844L152.016 163.49C152.044 148.192 152.049 148.376 151.592 147.009C150.627 144.122 147.913 141.916 144.993 141.646C144.142 141.567 106.041 141.54 105.451 141.617ZM146.366 142.381C148.143 143.019 149.738 144.278 150.463 145.613C150.518 145.713 150.654 145.957 150.767 146.156C151.013 146.587 151.271 147.37 151.451 148.233C151.61 148.992 151.653 177.216 151.497 177.91C151.449 178.122 151.368 178.519 151.317 178.792C151.166 179.589 150.806 181.543 150.584 182.764C150.471 183.385 150.292 184.339 150.187 184.885L149.996 185.878L125.178 185.901C111.528 185.914 100.33 185.893 100.293 185.856C100.256 185.819 100.184 185.544 100.133 185.247C100.082 184.949 99.9762 184.36 99.898 183.937C99.8198 183.515 99.6968 182.825 99.6245 182.403C99.3793 180.972 99.025 179.11 98.8775 178.476C98.7049 177.733 98.6149 149.933 98.781 148.648C99.1555 145.75 101.32 143.122 103.917 142.41C104.14 142.349 104.424 142.264 104.549 142.222C104.979 142.077 105.419 142.074 125.448 142.087L145.58 142.099L146.366 142.381ZM117.386 149.289C117.17 149.505 117.236 184.992 117.452 185.108C117.641 185.209 132.583 185.247 132.843 185.147C133.032 185.074 133.066 149.477 132.878 149.289C132.721 149.132 117.543 149.132 117.386 149.289ZM132.556 158.366C132.569 163.17 132.569 171.072 132.556 175.926L132.531 184.751L125.153 184.728L117.774 184.705L117.751 167.281C117.738 157.698 117.747 149.807 117.771 149.745C117.805 149.656 119.369 149.632 125.173 149.632H132.532L132.556 158.366ZM130.56 166.469C130.32 166.686 130.124 166.785 129.931 166.785C129.616 166.785 129.419 167.039 129.512 167.33C129.581 167.55 129.856 167.705 130.046 167.632C130.136 167.598 130.323 167.698 130.55 167.903C131.147 168.443 131.856 168.327 132.243 167.625C132.809 166.6 131.45 165.665 130.56 166.469ZM131.664 166.735C132.098 167.137 131.884 167.778 131.316 167.778C131.148 167.778 130.986 167.737 130.955 167.687C130.922 167.635 131.013 167.597 131.173 167.597C131.572 167.597 131.817 167.22 131.585 166.963C131.496 166.865 131.328 166.785 131.212 166.785C131.005 166.785 130.94 166.694 131.06 166.574C131.182 166.453 131.431 166.519 131.664 166.735ZM150.393 186.578L150.365 186.781L125.182 186.804C109.657 186.818 99.9666 186.794 99.9146 186.742C99.5304 186.358 98.3747 186.375 125.181 186.375H150.422L150.393 186.578ZM100.677 187.549C100.754 187.829 100.778 193.98 100.702 194.177C100.646 194.322 100.347 194.364 100.087 194.265C99.896 194.191 99.8668 187.416 100.057 187.336C100.322 187.224 100.615 187.325 100.677 187.549ZM150.211 187.386C150.292 187.467 150.319 188.351 150.319 190.806C150.319 194.418 150.327 194.363 149.806 194.303L149.552 194.274L149.528 190.953C149.513 188.766 149.537 187.571 149.599 187.454C149.705 187.258 150.045 187.22 150.211 187.386ZM149.034 191.002L149.01 194.274L125.187 194.297C107.651 194.314 101.33 194.293 101.24 194.218C101.11 194.11 101.05 187.917 101.178 187.789C101.211 187.756 111.998 187.729 125.148 187.729H149.058L149.034 191.002ZM150.274 195.132V195.448H125.132H99.9896L99.9599 195.238C99.9435 195.123 99.9524 194.97 99.9797 194.9C100.022 194.788 103.444 194.774 125.152 194.793L150.274 194.816V195.132ZM126.396 199.917C126.301 199.978 126.437 200.003 126.847 199.999C127.258 199.996 127.38 199.971 127.253 199.917C127.007 199.81 126.56 199.81 126.396 199.917ZM130.368 199.917C130.368 199.966 130.5 200.004 130.662 200.001C130.907 199.995 130.926 199.982 130.774 199.917C130.525 199.81 130.368 199.81 130.368 199.917Z" fill="#0F0E16"/>
<path d="M52.8662 94.9495C52.8829 94.1209 53.7935 93.6327 56.8901 92.7925C61.5445 91.5295 63.1601 90.7457 65.309 88.7076C69.0742 85.1366 71.1554 80.4616 71.4324 74.9526C71.5738 72.139 71.5253 71.7179 71.1286 72.3159C70.8689 72.7074 69.9873 74.0467 69.1695 75.2922C66.115 79.944 60.5651 82.8901 55.6155 82.4873C51.0816 82.1183 47.131 79.3493 45.2094 75.1936C44.3721 73.3827 43.8321 72.604 43.8323 69.558C43.8326 66.7216 44.3949 65.6802 45.031 64.2842C46.1085 61.9193 48.5971 59.2704 50.8086 58.1341C52.422 57.3051 52.9669 57.2152 55.4099 57.3749C57.0991 57.4853 58.8817 57.869 59.9758 58.3579C60.963 58.7989 61.8407 59.0887 61.9262 59.002C62.0118 58.9153 61.5361 57.781 60.8691 56.4814C59.7608 54.3217 59.4843 52.7103 59.6526 50.7702C59.9267 47.6106 60.9289 44.1389 63.2046 41.9627C65.5847 39.6866 68.2477 38.581 72.4911 38.741C76.439 38.8898 78.7309 40.1079 80.8628 42.2819C82.9485 44.4086 83.9863 47.6167 84.2327 50.6055C84.3973 52.6012 84.1168 54.026 82.9238 56.465C82.2039 57.9368 81.7299 59.141 81.8704 59.141C82.011 59.141 83.0953 58.684 84.2801 58.1254C89.8208 55.5132 96.1741 58.0435 98.8594 63.9319C99.5038 65.345 100.026 66.3483 100.024 69.558C100.021 72.9575 99.5203 73.7058 98.7322 75.3246C96.2399 80.4435 90.4622 83.3972 85.1857 82.2498C80.6934 81.273 76.9154 78.5241 74.1497 74.2201C73.291 72.8837 72.5121 71.7903 72.4188 71.7903C72.1479 71.7903 72.6936 76.5963 73.253 79.138C74.3425 84.088 77.5854 88.5818 81.6946 90.8358C83.2668 91.6982 86.4688 92.7358 89.968 93.5169C90.5132 93.6386 91.0171 94.0578 91.1261 94.4804C91.3176 95.2229 91.1733 95.2286 72.0898 95.2286C61.5138 95.2286 52.8631 95.103 52.8662 94.9495Z" fill="#0F0E16"/>
<path d="M51.8662 257.05C51.8829 257.879 52.7935 258.367 55.8901 259.207C60.5445 260.47 62.1601 261.254 64.309 263.292C68.0742 266.863 70.1554 271.538 70.4324 277.047C70.5738 279.861 70.5253 280.282 70.1286 279.684C69.8689 279.293 68.9873 277.953 68.1695 276.708C65.115 272.056 59.5651 269.11 54.6155 269.513C50.0816 269.882 46.131 272.651 44.2094 276.806C43.3721 278.617 42.8321 279.396 42.8323 282.442C42.8326 285.278 43.3949 286.32 44.031 287.716C45.1085 290.081 47.5971 292.73 49.8086 293.866C51.422 294.695 51.9669 294.785 54.4099 294.625C56.0991 294.515 57.8817 294.131 58.9758 293.642C59.963 293.201 60.8407 292.911 60.9262 292.998C61.0118 293.085 60.5361 294.219 59.8691 295.519C58.7608 297.678 58.4843 299.29 58.6526 301.23C58.9267 304.389 59.9289 307.861 62.2046 310.037C64.5847 312.313 67.2477 313.419 71.4911 313.259C75.439 313.11 77.7309 311.892 79.8628 309.718C81.9485 307.591 82.9863 304.383 83.2327 301.395C83.3973 299.399 83.1168 297.974 81.9238 295.535C81.2039 294.063 80.7299 292.859 80.8704 292.859C81.011 292.859 82.0953 293.316 83.2801 293.875C88.8208 296.487 95.1741 293.956 97.8594 288.068C98.5038 286.655 99.0263 285.652 99.024 282.442C99.0213 279.043 98.5203 278.294 97.7322 276.675C95.2399 271.556 89.4622 268.603 84.1857 269.75C79.6934 270.727 75.9154 273.476 73.1497 277.78C72.291 279.116 71.5121 280.21 71.4188 280.21C71.1479 280.21 71.6936 275.404 72.253 272.862C73.3425 267.912 76.5854 263.418 80.6946 261.164C82.2668 260.302 85.4688 259.264 88.968 258.483C89.5132 258.361 90.0171 257.942 90.1261 257.52C90.3176 256.777 90.1733 256.771 71.0898 256.771C60.5138 256.771 51.8631 256.897 51.8662 257.05Z" fill="#0F0E16"/>
<mask id="mask1_155_834" style="mask-type:luminance" maskUnits="userSpaceOnUse" x="152" y="35" width="64" height="68">
<path d="M216 35H152V103H216V35Z" fill="white"/>
</mask>
<g mask="url(#mask1_155_834)">
<path d="M161.034 95.2238C161.051 94.3951 161.961 93.9069 165.058 93.0667C169.712 91.8038 171.328 91.0199 173.477 88.9819C177.242 85.4109 179.323 80.7358 179.6 75.2268C179.741 72.4132 179.693 71.9921 179.296 72.5902C179.037 72.9816 178.155 74.3209 177.337 75.5665C174.283 80.2182 168.733 83.1644 163.783 82.7615C159.249 82.3925 155.299 79.6235 153.377 75.4679C152.54 73.657 152 72.8782 152 69.8323C152 66.9959 152.563 65.9544 153.199 64.5584C154.276 62.1936 156.765 59.5446 158.976 58.4083C160.59 57.5793 161.135 57.4894 163.578 57.6491C165.267 57.7595 167.049 58.1433 168.144 58.6321C169.131 59.0731 170.008 59.363 170.094 59.2762C170.179 59.1895 169.704 58.0552 169.037 56.7556C167.928 54.5959 167.652 52.9846 167.82 51.0444C168.094 47.8848 169.097 44.4131 171.372 42.2369C173.752 39.9608 176.415 38.8552 180.659 39.0152C184.607 39.164 186.899 40.3821 189.03 42.5561C191.116 44.6829 192.154 47.8909 192.4 50.8797C192.565 52.8754 192.285 54.3002 191.091 56.7393C190.372 58.2111 189.898 59.4153 190.038 59.4153C190.179 59.4153 191.263 58.9582 192.448 58.3996C197.988 55.7874 204.342 58.3178 207.027 64.2062C207.671 65.6192 208.194 66.6225 208.192 69.8323C208.189 73.2317 207.688 73.9801 206.9 75.5988C204.408 80.7177 198.63 83.6714 193.353 82.524C188.861 81.5472 185.083 78.7983 182.317 74.4943C181.459 73.1579 180.68 72.0645 180.586 72.0645C180.316 72.0645 180.861 76.8706 181.421 79.4122C182.51 84.3623 185.753 88.8561 189.862 91.1101C191.434 91.9724 194.636 93.0101 198.136 93.7911C198.681 93.9128 199.185 94.332 199.294 94.7546C199.485 95.4971 199.341 95.5028 180.258 95.5028C169.681 95.5028 161.031 95.3772 161.034 95.2238Z" fill="#0F0E16"/>
</g>
<path d="M156.866 257.05C156.883 257.879 157.794 258.367 160.89 259.207C165.545 260.47 167.16 261.254 169.309 263.292C173.074 266.863 175.155 271.538 175.432 277.047C175.574 279.861 175.525 280.282 175.129 279.684C174.869 279.293 173.987 277.953 173.169 276.708C170.115 272.056 164.565 269.11 159.615 269.513C155.082 269.882 151.131 272.651 149.209 276.806C148.372 278.617 147.832 279.396 147.832 282.442C147.833 285.278 148.395 286.32 149.031 287.716C150.109 290.081 152.597 292.73 154.809 293.866C156.422 294.695 156.967 294.785 159.41 294.625C161.099 294.515 162.882 294.131 163.976 293.642C164.963 293.201 165.841 292.911 165.926 292.998C166.012 293.085 165.536 294.219 164.869 295.519C163.761 297.678 163.484 299.29 163.653 301.23C163.927 304.389 164.929 307.861 167.205 310.037C169.585 312.313 172.248 313.419 176.491 313.259C180.439 313.11 182.731 311.892 184.863 309.718C186.948 307.591 187.986 304.383 188.233 301.395C188.397 299.399 188.117 297.974 186.924 295.535C186.204 294.063 185.73 292.859 185.87 292.859C186.011 292.859 187.095 293.316 188.28 293.875C193.821 296.487 200.174 293.956 202.859 288.068C203.504 286.655 204.026 285.652 204.024 282.442C204.021 279.043 203.52 278.294 202.732 276.675C200.24 271.556 194.462 268.603 189.186 269.75C184.693 270.727 180.915 273.476 178.15 277.78C177.291 279.116 176.512 280.21 176.419 280.21C176.148 280.21 176.694 275.404 177.253 272.862C178.343 267.912 181.585 263.418 185.695 261.164C187.267 260.302 190.469 259.264 193.968 258.483C194.513 258.361 195.017 257.942 195.126 257.52C195.318 256.777 195.173 256.771 176.09 256.771C165.514 256.771 156.863 256.897 156.866 257.05Z" fill="#0F0E16"/>
<path d="M105.866 141.95C105.883 141.121 106.794 140.633 109.89 139.793C114.545 138.53 116.16 137.746 118.309 135.708C122.074 132.137 124.155 127.462 124.432 121.953C124.574 119.139 124.525 118.718 124.129 119.316C123.869 119.707 122.987 121.047 122.169 122.292C119.115 126.944 113.565 129.89 108.615 129.487C104.082 129.118 100.131 126.349 98.2094 122.194C97.3721 120.383 96.8321 119.604 96.8323 116.558C96.8326 113.722 97.3949 112.68 98.031 111.284C99.1085 108.919 101.597 106.27 103.809 105.134C105.422 104.305 105.967 104.215 108.41 104.375C110.099 104.485 111.882 104.869 112.976 105.358C113.963 105.799 114.841 106.089 114.926 106.002C115.012 105.915 114.536 104.781 113.869 103.481C112.761 101.322 112.484 99.7103 112.653 97.7702C112.927 94.6106 113.929 91.1389 116.205 88.9627C118.585 86.6866 121.248 85.581 125.491 85.741C129.439 85.8898 131.731 87.1079 133.863 89.2819C135.948 91.4086 136.986 94.6167 137.233 97.6055C137.397 99.6012 137.117 101.026 135.924 103.465C135.204 104.937 134.73 106.141 134.87 106.141C135.011 106.141 136.095 105.684 137.28 105.125C142.821 102.513 149.174 105.044 151.859 110.932C152.504 112.345 153.026 113.348 153.024 116.558C153.021 119.957 152.52 120.706 151.732 122.325C149.24 127.444 143.462 130.397 138.186 129.25C133.693 128.273 129.915 125.524 127.15 121.22C126.291 119.884 125.512 118.79 125.419 118.79C125.148 118.79 125.694 123.596 126.253 126.138C127.343 131.088 130.585 135.582 134.695 137.836C136.267 138.698 139.469 139.736 142.968 140.517C143.513 140.639 144.017 141.058 144.126 141.48C144.318 142.223 144.173 142.229 125.09 142.229C114.514 142.229 105.863 142.103 105.866 141.95Z" fill="#0F0E16"/>
<path d="M105.866 213.05C105.883 213.879 106.794 214.367 109.89 215.207C114.545 216.47 116.16 217.254 118.309 219.292C122.074 222.863 124.155 227.538 124.432 233.047C124.574 235.861 124.525 236.282 124.129 235.684C123.869 235.293 122.987 233.953 122.169 232.708C119.115 228.056 113.565 225.11 108.615 225.513C104.082 225.882 100.131 228.651 98.2094 232.806C97.3721 234.617 96.8321 235.396 96.8323 238.442C96.8326 241.278 97.3949 242.32 98.031 243.716C99.1085 246.081 101.597 248.73 103.809 249.866C105.422 250.695 105.967 250.785 108.41 250.625C110.099 250.515 111.882 250.131 112.976 249.642C113.963 249.201 114.841 248.911 114.926 248.998C115.012 249.085 114.536 250.219 113.869 251.519C112.761 253.678 112.484 255.29 112.653 257.23C112.927 260.389 113.929 263.861 116.205 266.037C118.585 268.313 121.248 269.419 125.491 269.259C129.439 269.11 131.731 267.892 133.863 265.718C135.948 263.591 136.986 260.383 137.233 257.395C137.397 255.399 137.117 253.974 135.924 251.535C135.204 250.063 134.73 248.859 134.87 248.859C135.011 248.859 136.095 249.316 137.28 249.875C142.821 252.487 149.174 249.956 151.859 244.068C152.504 242.655 153.026 241.652 153.024 238.442C153.021 235.043 152.52 234.294 151.732 232.675C149.24 227.556 143.462 224.603 138.186 225.75C133.693 226.727 129.915 229.476 127.15 233.78C126.291 235.116 125.512 236.21 125.419 236.21C125.148 236.21 125.694 231.404 126.253 228.862C127.343 223.912 130.585 219.418 134.695 217.164C136.267 216.302 139.469 215.264 142.968 214.483C143.513 214.361 144.017 213.942 144.126 213.52C144.318 212.777 144.173 212.771 125.09 212.771C114.514 212.771 105.863 212.897 105.866 213.05Z" fill="#0F0E16"/>
<path d="M181.866 193.95C181.883 193.121 182.794 192.633 185.89 191.793C190.545 190.53 192.16 189.746 194.309 187.708C198.074 184.137 200.155 179.462 200.432 173.953C200.574 171.139 200.525 170.718 200.129 171.316C199.869 171.707 198.987 173.047 198.169 174.292C195.115 178.944 189.565 181.89 184.615 181.487C180.082 181.118 176.131 178.349 174.209 174.194C173.372 172.383 172.832 171.604 172.832 168.558C172.833 165.722 173.395 164.68 174.031 163.284C175.109 160.919 177.597 158.27 179.809 157.134C181.422 156.305 181.967 156.215 184.41 156.375C186.099 156.485 187.882 156.869 188.976 157.358C189.963 157.799 190.841 158.089 190.926 158.002C191.012 157.915 190.536 156.781 189.869 155.481C188.761 153.322 188.484 151.71 188.653 149.77C188.927 146.611 189.929 143.139 192.205 140.963C194.585 138.687 197.248 137.581 201.491 137.741C205.439 137.89 207.731 139.108 209.863 141.282C211.948 143.409 212.986 146.617 213.233 149.605C213.397 151.601 213.117 153.026 211.924 155.465C211.204 156.937 210.73 158.141 210.87 158.141C211.011 158.141 212.095 157.684 213.28 157.125C218.821 154.513 225.174 157.044 227.859 162.932C228.504 164.345 229.026 165.348 229.024 168.558C229.021 171.957 228.52 172.706 227.732 174.325C225.24 179.444 219.462 182.397 214.186 181.25C209.693 180.273 205.915 177.524 203.15 173.22C202.291 171.884 201.512 170.79 201.419 170.79C201.148 170.79 201.694 175.596 202.253 178.138C203.343 183.088 206.585 187.582 210.695 189.836C212.267 190.698 215.469 191.736 218.968 192.517C219.513 192.639 220.017 193.058 220.126 193.48C220.318 194.223 220.173 194.229 201.09 194.229C190.514 194.229 181.863 194.103 181.866 193.95Z" fill="#0F0E16"/>
<path d="M24.8662 193.95C24.8829 193.121 25.7935 192.633 28.8901 191.793C33.5445 190.53 35.1601 189.746 37.309 187.708C41.0742 184.137 43.1554 179.462 43.4324 173.953C43.5738 171.139 43.5253 170.718 43.1286 171.316C42.8689 171.707 41.9873 173.047 41.1695 174.292C38.115 178.944 32.5651 181.89 27.6155 181.487C23.0816 181.118 19.131 178.349 17.2094 174.194C16.3721 172.383 15.8321 171.604 15.8323 168.558C15.8326 165.722 16.3949 164.68 17.031 163.284C18.1085 160.919 20.5971 158.27 22.8086 157.134C24.422 156.305 24.9669 156.215 27.4099 156.375C29.0991 156.485 30.8817 156.869 31.9758 157.358C32.963 157.799 33.8407 158.089 33.9262 158.002C34.0118 157.915 33.5361 156.781 32.8691 155.481C31.7608 153.322 31.4843 151.71 31.6526 149.77C31.9267 146.611 32.9289 143.139 35.2046 140.963C37.5847 138.687 40.2477 137.581 44.4911 137.741C48.439 137.89 50.7309 139.108 52.8628 141.282C54.9485 143.409 55.9863 146.617 56.2327 149.605C56.3973 151.601 56.1168 153.026 54.9238 155.465C54.2039 156.937 53.7299 158.141 53.8704 158.141C54.011 158.141 55.0953 157.684 56.2801 157.125C61.8208 154.513 68.1741 157.044 70.8594 162.932C71.5038 164.345 72.0263 165.348 72.024 168.558C72.0213 171.957 71.5203 172.706 70.7322 174.325C68.2399 179.444 62.4622 182.397 57.1857 181.25C52.6934 180.273 48.9154 177.524 46.1497 173.22C45.291 171.884 44.5121 170.79 44.4188 170.79C44.1479 170.79 44.6936 175.596 45.253 178.138C46.3425 183.088 49.5854 187.582 53.6946 189.836C55.2668 190.698 58.4688 191.736 61.968 192.517C62.5132 192.639 63.0171 193.058 63.1261 193.48C63.3176 194.223 63.1733 194.229 44.0898 194.229C33.5138 194.229 24.8631 194.103 24.8662 193.95Z" fill="#0F0E16"/>
<path d="M211.428 270.315C211.435 270.656 211.819 270.857 213.126 271.203C215.089 271.723 215.771 272.046 216.677 272.885C218.266 274.356 219.144 276.281 219.261 278.549C219.32 279.707 219.3 279.881 219.132 279.635C219.023 279.473 218.651 278.922 218.306 278.409C217.017 276.494 214.676 275.281 212.588 275.446C210.675 275.598 209.008 276.739 208.198 278.45C207.844 279.195 207.617 279.516 207.617 280.77C207.617 281.938 207.854 282.367 208.122 282.942C208.577 283.916 209.627 285.006 210.56 285.474C211.241 285.816 211.47 285.853 212.501 285.787C213.214 285.741 213.966 285.583 214.427 285.382C214.844 285.2 215.214 285.081 215.25 285.117C215.286 285.153 215.086 285.62 214.804 286.155C214.337 287.044 214.22 287.708 214.291 288.506C214.407 289.807 214.829 291.237 215.789 292.133C216.794 293.07 217.917 293.525 219.707 293.46C221.373 293.398 222.34 292.897 223.239 292.002C224.119 291.126 224.557 289.805 224.661 288.574C224.73 287.752 224.612 287.166 224.108 286.161C223.805 285.555 223.605 285.06 223.664 285.06C223.723 285.06 224.181 285.248 224.681 285.478C227.018 286.553 229.698 285.511 230.831 283.087C231.103 282.505 231.324 282.092 231.323 280.77C231.321 279.37 231.11 279.062 230.778 278.396C229.726 276.288 227.289 275.072 225.063 275.544C223.168 275.946 221.574 277.078 220.407 278.851C220.045 279.401 219.716 279.851 219.677 279.851C219.562 279.851 219.793 277.872 220.029 276.826C220.488 274.787 221.856 272.937 223.59 272.009C224.253 271.654 225.604 271.226 227.08 270.905C227.31 270.855 227.523 270.682 227.569 270.508C227.65 270.202 227.589 270.2 219.538 270.2C215.076 270.2 211.427 270.252 211.428 270.315Z" fill="#0F0E16"/>
<path d="M17.4279 80.6851C17.435 80.3439 17.8191 80.1429 19.1255 79.7969C21.0891 79.2769 21.7706 78.9541 22.6772 78.1149C24.2657 76.6445 25.1437 74.7195 25.2605 72.4511C25.3202 71.2925 25.2997 71.1191 25.1324 71.3654C25.0228 71.5266 24.6509 72.0781 24.3059 72.5909C23.0173 74.5064 20.6759 75.7195 18.5878 75.5536C16.675 75.4017 15.0084 74.2615 14.1977 72.5503C13.8445 71.8047 13.6167 71.484 13.6168 70.2298C13.6169 69.0618 13.8541 68.633 14.1224 68.0582C14.577 67.0844 15.6269 65.9937 16.5599 65.5258C17.2405 65.1845 17.4704 65.1474 18.501 65.2132C19.2137 65.2587 19.9657 65.4167 20.4273 65.6179C20.8438 65.7995 21.214 65.9189 21.2501 65.8832C21.2862 65.8475 21.0855 65.3804 20.8042 64.8453C20.3366 63.956 20.2199 63.2925 20.2909 62.4936C20.4066 61.1926 20.8294 59.7631 21.7894 58.867C22.7935 57.9298 23.917 57.4745 25.7072 57.5404C27.3727 57.6017 28.3396 58.1033 29.239 58.9984C30.1189 59.8741 30.5567 61.1951 30.6607 62.4258C30.7301 63.2475 30.6118 63.8342 30.1085 64.8385C29.8048 65.4446 29.6048 65.9404 29.6641 65.9404C29.7234 65.9404 30.1808 65.7522 30.6807 65.5222C33.0181 64.4466 35.6984 65.4885 36.8313 67.9132C37.1031 68.495 37.3236 68.9081 37.3226 70.2298C37.3215 71.6295 37.1101 71.9377 36.7776 72.6043C35.7262 74.712 33.2887 75.9282 31.0627 75.4558C29.1675 75.0536 27.5737 73.9217 26.4069 72.1495C26.0446 71.5992 25.716 71.1489 25.6767 71.1489C25.5624 71.1489 25.7926 73.1279 26.0286 74.1745C26.4883 76.2127 27.8563 78.0631 29.5899 78.9912C30.2532 79.3463 31.604 79.7736 33.0802 80.0952C33.3103 80.1453 33.5228 80.3179 33.5688 80.4919C33.6496 80.7977 33.5887 80.8 25.5379 80.8C21.0761 80.8 17.4266 80.7483 17.4279 80.6851Z" fill="#0F0E16"/>
</g>
<path d="M84.688 197.16V209H83.232V197.16H84.688ZM95.1695 204.28C95.1695 204.557 95.1535 204.851 95.1215 205.16H88.1135C88.1668 206.024 88.4602 206.701 88.9935 207.192C89.5375 207.672 90.1935 207.912 90.9615 207.912C91.5908 207.912 92.1135 207.768 92.5295 207.48C92.9562 207.181 93.2548 206.787 93.4255 206.296H94.9935C94.7588 207.139 94.2895 207.827 93.5855 208.36C92.8815 208.883 92.0068 209.144 90.9615 209.144C90.1295 209.144 89.3828 208.957 88.7215 208.584C88.0708 208.211 87.5588 207.683 87.1855 207C86.8122 206.307 86.6255 205.507 86.6255 204.6C86.6255 203.693 86.8068 202.899 87.1695 202.216C87.5322 201.533 88.0388 201.011 88.6895 200.648C89.3508 200.275 90.1082 200.088 90.9615 200.088C91.7935 200.088 92.5295 200.269 93.1695 200.632C93.8095 200.995 94.3002 201.496 94.6415 202.136C94.9935 202.765 95.1695 203.48 95.1695 204.28ZM93.6655 203.976C93.6655 203.421 93.5428 202.947 93.2975 202.552C93.0522 202.147 92.7162 201.843 92.2895 201.64C91.8735 201.427 91.4095 201.32 90.8975 201.32C90.1615 201.32 89.5322 201.555 89.0095 202.024C88.4975 202.493 88.2042 203.144 88.1295 203.976H93.6655ZM100.195 209.144C99.5234 209.144 98.9207 209.032 98.3874 208.808C97.854 208.573 97.4327 208.253 97.1234 207.848C96.814 207.432 96.6434 206.957 96.6114 206.424H98.1154C98.158 206.861 98.3607 207.219 98.7234 207.496C99.0967 207.773 99.582 207.912 100.179 207.912C100.734 207.912 101.171 207.789 101.491 207.544C101.811 207.299 101.971 206.989 101.971 206.616C101.971 206.232 101.801 205.949 101.459 205.768C101.118 205.576 100.59 205.389 99.8754 205.208C99.2247 205.037 98.6914 204.867 98.2754 204.696C97.87 204.515 97.518 204.253 97.2194 203.912C96.9314 203.56 96.7874 203.101 96.7874 202.536C96.7874 202.088 96.9207 201.677 97.1874 201.304C97.454 200.931 97.8327 200.637 98.3234 200.424C98.814 200.2 99.374 200.088 100.003 200.088C100.974 200.088 101.758 200.333 102.355 200.824C102.953 201.315 103.273 201.987 103.315 202.84H101.859C101.827 202.381 101.641 202.013 101.299 201.736C100.969 201.459 100.521 201.32 99.9554 201.32C99.4327 201.32 99.0167 201.432 98.7074 201.656C98.398 201.88 98.2434 202.173 98.2434 202.536C98.2434 202.824 98.334 203.064 98.5154 203.256C98.7074 203.437 98.942 203.587 99.2194 203.704C99.5074 203.811 99.902 203.933 100.403 204.072C101.033 204.243 101.545 204.413 101.939 204.584C102.334 204.744 102.67 204.989 102.947 205.32C103.235 205.651 103.385 206.083 103.395 206.616C103.395 207.096 103.262 207.528 102.995 207.912C102.729 208.296 102.35 208.6 101.859 208.824C101.379 209.037 100.825 209.144 100.195 209.144ZM107.227 201.432V206.6C107.227 207.027 107.317 207.331 107.499 207.512C107.68 207.683 107.995 207.768 108.443 207.768H109.515V209H108.203C107.392 209 106.784 208.813 106.379 208.44C105.973 208.067 105.771 207.453 105.771 206.6V201.432H104.635V200.232H105.771V198.024H107.227V200.232H109.515V201.432H107.227ZM110.735 204.584C110.735 203.688 110.916 202.904 111.279 202.232C111.642 201.549 112.138 201.021 112.767 200.648C113.407 200.275 114.116 200.088 114.895 200.088C115.663 200.088 116.33 200.253 116.895 200.584C117.46 200.915 117.882 201.331 118.159 201.832V200.232H119.631V209H118.159V207.368C117.871 207.88 117.439 208.307 116.863 208.648C116.298 208.979 115.636 209.144 114.879 209.144C114.1 209.144 113.396 208.952 112.767 208.568C112.138 208.184 111.642 207.645 111.279 206.952C110.916 206.259 110.735 205.469 110.735 204.584ZM118.159 204.6C118.159 203.939 118.026 203.363 117.759 202.872C117.492 202.381 117.13 202.008 116.671 201.752C116.223 201.485 115.727 201.352 115.183 201.352C114.639 201.352 114.143 201.48 113.695 201.736C113.247 201.992 112.89 202.365 112.623 202.856C112.356 203.347 112.223 203.923 112.223 204.584C112.223 205.256 112.356 205.843 112.623 206.344C112.89 206.835 113.247 207.213 113.695 207.48C114.143 207.736 114.639 207.864 115.183 207.864C115.727 207.864 116.223 207.736 116.671 207.48C117.13 207.213 117.492 206.835 117.759 206.344C118.026 205.843 118.159 205.261 118.159 204.6ZM123.547 201.656C123.803 201.155 124.166 200.765 124.635 200.488C125.115 200.211 125.697 200.072 126.379 200.072V201.576H125.995C124.363 201.576 123.547 202.461 123.547 204.232V209H122.091V200.232H123.547V201.656ZM131.324 207.656L134.044 200.232H135.596L132.156 209H130.46L127.02 200.232H128.588L131.324 207.656ZM136.485 204.584C136.485 203.688 136.666 202.904 137.029 202.232C137.392 201.549 137.888 201.021 138.517 200.648C139.157 200.275 139.866 200.088 140.645 200.088C141.413 200.088 142.08 200.253 142.645 200.584C143.21 200.915 143.632 201.331 143.909 201.832V200.232H145.381V209H143.909V207.368C143.621 207.88 143.189 208.307 142.613 208.648C142.048 208.979 141.386 209.144 140.629 209.144C139.85 209.144 139.146 208.952 138.517 208.568C137.888 208.184 137.392 207.645 137.029 206.952C136.666 206.259 136.485 205.469 136.485 204.584ZM143.909 204.6C143.909 203.939 143.776 203.363 143.509 202.872C143.242 202.381 142.88 202.008 142.421 201.752C141.973 201.485 141.477 201.352 140.933 201.352C140.389 201.352 139.893 201.48 139.445 201.736C138.997 201.992 138.64 202.365 138.373 202.856C138.106 203.347 137.973 203.923 137.973 204.584C137.973 205.256 138.106 205.843 138.373 206.344C138.64 206.835 138.997 207.213 139.445 207.48C139.893 207.736 140.389 207.864 140.933 207.864C141.477 207.864 141.973 207.736 142.421 207.48C142.88 207.213 143.242 206.835 143.509 206.344C143.776 205.843 143.909 205.261 143.909 204.6ZM151.457 200.088C152.215 200.088 152.876 200.253 153.441 200.584C154.017 200.915 154.444 201.331 154.721 201.832V200.232H156.193V209.192C156.193 209.992 156.023 210.701 155.681 211.32C155.34 211.949 154.849 212.44 154.209 212.792C153.58 213.144 152.844 213.32 152.001 213.32C150.849 213.32 149.889 213.048 149.121 212.504C148.353 211.96 147.9 211.219 147.761 210.28H149.201C149.361 210.813 149.692 211.24 150.193 211.56C150.695 211.891 151.297 212.056 152.001 212.056C152.801 212.056 153.452 211.805 153.953 211.304C154.465 210.803 154.721 210.099 154.721 209.192V207.352C154.433 207.864 154.007 208.291 153.441 208.632C152.876 208.973 152.215 209.144 151.457 209.144C150.679 209.144 149.969 208.952 149.329 208.568C148.7 208.184 148.204 207.645 147.841 206.952C147.479 206.259 147.297 205.469 147.297 204.584C147.297 203.688 147.479 202.904 147.841 202.232C148.204 201.549 148.7 201.021 149.329 200.648C149.969 200.275 150.679 200.088 151.457 200.088ZM154.721 204.6C154.721 203.939 154.588 203.363 154.321 202.872C154.055 202.381 153.692 202.008 153.233 201.752C152.785 201.485 152.289 201.352 151.745 201.352C151.201 201.352 150.705 201.48 150.257 201.736C149.809 201.992 149.452 202.365 149.185 202.856C148.919 203.347 148.785 203.923 148.785 204.584C148.785 205.256 148.919 205.843 149.185 206.344C149.452 206.835 149.809 207.213 150.257 207.48C150.705 207.736 151.201 207.864 151.745 207.864C152.289 207.864 152.785 207.736 153.233 207.48C153.692 207.213 154.055 206.835 154.321 206.344C154.588 205.843 154.721 205.261 154.721 204.6ZM162.926 200.072C163.993 200.072 164.857 200.397 165.518 201.048C166.179 201.688 166.51 202.616 166.51 203.832V209H165.07V204.04C165.07 203.165 164.851 202.499 164.414 202.04C163.977 201.571 163.379 201.336 162.622 201.336C161.854 201.336 161.241 201.576 160.782 202.056C160.334 202.536 160.11 203.235 160.11 204.152V209H158.654V200.232H160.11V201.48C160.398 201.032 160.787 200.685 161.278 200.44C161.779 200.195 162.329 200.072 162.926 200.072Z" fill="#0F0E16"/>
</g>
<defs>
<clipPath id="clip0_155_834">
<rect width="250" height="350" fill="white"/>
</clipPath>
</defs>
</svg>
