<svg width="250" height="350" viewBox="0 0 250 350" fill="none" xmlns="http://www.w3.org/2000/svg">
<g clip-path="url(#clip0_155_834)">
<mask id="mask0_155_834" style="mask-type:luminance" maskUnits="userSpaceOnUse" x="0" y="0" width="250" height="350">
<path d="M237.6 0H12.4C5.55167 0 0 5.55167 0 12.4V337.6C0 344.448 5.55167 350 12.4 350H237.6C244.448 350 250 344.448 250 337.6V12.4C250 5.55167 244.448 0 237.6 0Z" fill="white"/>
</mask>
<g mask="url(#mask0_155_834)">
<path d="M237.6 0H12.4C5.55167 0 0 5.55167 0 12.4V337.6C0 344.448 5.55167 350 12.4 350H237.6C244.448 350 250 344.448 250 337.6V12.4C250 5.55167 244.448 0 237.6 0Z" fill="#DDDDDD"/>
<path d="M21.712 34.952C19.92 34.248 18.544 33.224 17.584 31.88C16.624 30.536 16.144 28.904 16.144 26.984C16.144 25.256 16.576 23.704 17.44 22.328C18.304 20.92 19.584 19.816 21.28 19.016C23.008 18.184 25.088 17.768 27.52 17.768C29.952 17.768 32.016 18.184 33.712 19.016C35.44 19.816 36.736 20.92 37.6 22.328C38.496 23.704 38.944 25.256 38.944 26.984C38.944 28.84 38.448 30.472 37.456 31.88C36.464 33.256 35.104 34.28 33.376 34.952C35.36 35.56 36.928 36.632 38.08 38.168C39.264 39.672 39.856 41.496 39.856 43.64C39.856 45.72 39.344 47.544 38.32 49.112C37.296 50.648 35.84 51.848 33.952 52.712C32.096 53.544 29.952 53.96 27.52 53.96C25.088 53.96 22.944 53.544 21.088 52.712C19.264 51.848 17.84 50.648 16.816 49.112C15.792 47.544 15.28 45.72 15.28 43.64C15.28 41.496 15.856 39.656 17.008 38.12C18.16 36.584 19.728 35.528 21.712 34.952ZM34.72 27.512C34.72 25.56 34.08 24.056 32.8 23C31.52 21.944 29.76 21.416 27.52 21.416C25.312 21.416 23.568 21.944 22.288 23C21.008 24.056 20.368 25.576 20.368 27.56C20.368 29.352 21.024 30.792 22.336 31.88C23.68 32.968 25.408 33.512 27.52 33.512C29.664 33.512 31.392 32.968 32.704 31.88C34.048 30.76 34.72 29.304 34.72 27.512ZM27.52 36.872C25.152 36.872 23.216 37.432 21.712 38.552C20.208 39.64 19.456 41.288 19.456 43.496C19.456 45.544 20.176 47.192 21.616 48.44C23.088 49.688 25.056 50.312 27.52 50.312C29.984 50.312 31.936 49.688 33.376 48.44C34.816 47.192 35.536 45.544 35.536 43.496C35.536 41.352 34.8 39.72 33.328 38.6C31.856 37.448 29.92 36.872 27.52 36.872Z" fill="#0F0E16"/>
<path d="M215.312 318.048C213.52 318.752 212.144 319.776 211.184 321.12C210.224 322.464 209.744 324.096 209.744 326.016C209.744 327.744 210.176 329.296 211.04 330.672C211.904 332.08 213.184 333.184 214.88 333.984C216.608 334.816 218.688 335.232 221.12 335.232C223.552 335.232 225.616 334.816 227.312 333.984C229.04 333.184 230.336 332.08 231.2 330.672C232.096 329.296 232.544 327.744 232.544 326.016C232.544 324.16 232.048 322.528 231.056 321.12C230.064 319.744 228.704 318.72 226.976 318.048C228.96 317.44 230.528 316.368 231.68 314.832C232.864 313.328 233.456 311.504 233.456 309.36C233.456 307.28 232.944 305.456 231.92 303.888C230.896 302.352 229.44 301.152 227.552 300.288C225.696 299.456 223.552 299.04 221.12 299.04C218.688 299.04 216.544 299.456 214.688 300.288C212.864 301.152 211.44 302.352 210.416 303.888C209.392 305.456 208.88 307.28 208.88 309.36C208.88 311.504 209.456 313.344 210.608 314.88C211.76 316.416 213.328 317.472 215.312 318.048ZM228.32 325.488C228.32 327.44 227.68 328.944 226.4 330C225.12 331.056 223.36 331.584 221.12 331.584C218.912 331.584 217.168 331.056 215.888 330C214.608 328.944 213.968 327.424 213.968 325.44C213.968 323.648 214.624 322.208 215.936 321.12C217.28 320.032 219.008 319.488 221.12 319.488C223.264 319.488 224.992 320.032 226.304 321.12C227.648 322.24 228.32 323.696 228.32 325.488ZM221.12 316.128C218.752 316.128 216.816 315.568 215.312 314.448C213.808 313.36 213.056 311.712 213.056 309.504C213.056 307.456 213.776 305.808 215.216 304.56C216.688 303.312 218.656 302.688 221.12 302.688C223.584 302.688 225.536 303.312 226.976 304.56C228.416 305.808 229.136 307.456 229.136 309.504C229.136 311.648 228.4 313.28 226.928 314.4C225.456 315.552 223.52 316.128 221.12 316.128Z" fill="#0F0E16"/>
<path fill-rule="evenodd" clip-rule="evenodd" d="M108.778 150.036C108.559 150.064 108.186 150.085 107.948 150.082C107.331 150.073 106.713 150.286 107.281 150.312C107.405 150.318 107.383 150.339 107.189 150.401C105.077 151.077 103.329 153.311 103.078 155.656C102.957 156.795 102.984 177.991 103.108 178.612C103.165 178.894 103.281 179.525 103.366 180.013C103.452 180.502 103.599 181.302 103.694 181.79C103.789 182.279 103.919 182.982 103.984 183.353C104.049 183.725 104.132 184.2 104.169 184.41C104.244 184.828 104.19 184.954 103.893 185.065C103.689 185.141 103.68 185.243 103.872 185.293C104.035 185.336 104.107 192.522 103.944 192.522C103.825 192.522 103.862 192.655 104.027 192.817C104.153 192.941 104.206 192.955 104.314 192.888C104.492 192.778 144.57 192.77 144.681 192.879C144.731 192.929 144.791 192.911 144.87 192.826C145.053 192.625 145.085 184.965 144.903 184.93C144.738 184.899 144.742 184.857 145.209 182.394C145.291 181.964 145.392 181.42 145.435 181.186C145.476 180.951 145.542 180.632 145.578 180.475C145.615 180.319 145.719 179.823 145.809 179.374L145.971 178.556L145.992 167.256C146.014 155.212 146.018 155.357 145.653 154.281C144.882 152.008 142.713 150.271 140.379 150.059C139.699 149.997 109.249 149.975 108.778 150.036ZM141.476 150.638C142.896 151.14 144.171 152.131 144.75 153.182C144.794 153.261 144.903 153.453 144.993 153.61C145.19 153.949 145.396 154.565 145.54 155.245C145.667 155.842 145.701 178.062 145.577 178.608C145.538 178.775 145.474 179.088 145.433 179.303C145.312 179.93 145.025 181.469 144.847 182.43C144.757 182.919 144.614 183.67 144.53 184.1L144.377 184.881L124.543 184.899C113.634 184.91 104.685 184.893 104.655 184.864C104.626 184.835 104.568 184.618 104.528 184.385C104.487 184.15 104.402 183.686 104.34 183.353C104.277 183.021 104.179 182.478 104.121 182.146C103.925 181.019 103.642 179.553 103.524 179.054C103.386 178.469 103.314 156.583 103.447 155.571C103.746 153.29 105.476 151.221 107.552 150.66C107.73 150.612 107.957 150.545 108.057 150.512C108.4 150.398 108.752 150.396 124.759 150.406L140.848 150.416L141.476 150.638ZM118.316 156.076C118.143 156.246 118.196 184.184 118.369 184.275C118.52 184.355 130.461 184.385 130.669 184.306C130.82 184.248 130.847 156.224 130.697 156.076C130.571 155.952 118.441 155.952 118.316 156.076ZM130.439 163.222C130.45 167.004 130.45 173.225 130.439 177.046L130.42 183.994L124.523 183.976L118.626 183.958L118.608 170.241C118.597 162.696 118.604 156.484 118.624 156.435C118.651 156.365 119.901 156.346 124.539 156.346H130.42L130.439 163.222ZM128.844 169.601C128.653 169.772 128.496 169.85 128.342 169.85C128.09 169.85 127.932 170.05 128.007 170.279C128.062 170.452 128.282 170.574 128.434 170.517C128.505 170.49 128.655 170.569 128.836 170.73C129.313 171.155 129.88 171.064 130.189 170.511C130.642 169.704 129.556 168.968 128.844 169.601ZM129.727 169.811C130.073 170.127 129.902 170.632 129.448 170.632C129.314 170.632 129.185 170.599 129.16 170.56C129.134 170.519 129.206 170.489 129.334 170.489C129.653 170.489 129.849 170.192 129.663 169.99C129.592 169.913 129.458 169.85 129.365 169.85C129.2 169.85 129.148 169.778 129.244 169.684C129.341 169.589 129.54 169.641 129.727 169.811ZM144.695 185.432L144.672 185.592L124.546 185.61C112.139 185.621 104.395 185.602 104.353 185.562C104.046 185.259 103.122 185.273 124.546 185.273H144.718L144.695 185.432ZM104.962 186.197C105.024 186.417 105.043 191.26 104.982 191.415C104.938 191.529 104.699 191.562 104.491 191.484C104.338 191.426 104.315 186.092 104.467 186.029C104.679 185.941 104.913 186.02 104.962 186.197ZM144.549 186.068C144.614 186.132 144.635 186.828 144.635 188.761C144.635 191.605 144.642 191.561 144.225 191.514L144.022 191.491L144.003 188.877C143.991 187.155 144.01 186.214 144.06 186.122C144.145 185.968 144.416 185.938 144.549 186.068ZM143.608 188.915L143.589 191.491L124.55 191.509C110.536 191.523 105.484 191.506 105.412 191.447C105.308 191.362 105.26 186.487 105.363 186.386C105.389 186.36 114.01 186.339 124.519 186.339H143.628L143.608 188.915ZM144.599 192.167V192.415H124.506H104.413L104.389 192.25C104.376 192.16 104.383 192.039 104.405 191.984C104.439 191.896 107.174 191.885 124.522 191.9L144.599 191.918V192.167ZM125.517 195.934C125.441 195.982 125.549 196.001 125.877 195.998C126.205 195.996 126.303 195.976 126.201 195.934C126.005 195.85 125.648 195.85 125.517 195.934ZM128.691 195.934C128.691 195.972 128.796 196.002 128.926 196C129.122 195.995 129.137 195.985 129.015 195.934C128.816 195.85 128.691 195.85 128.691 195.934Z" fill="#0F0E16"/>
<path d="M52.8662 94.9495C52.8829 94.1209 53.7935 93.6327 56.8901 92.7925C61.5445 91.5295 63.1601 90.7457 65.309 88.7076C69.0742 85.1366 71.1554 80.4616 71.4324 74.9526C71.5738 72.139 71.5253 71.7179 71.1286 72.3159C70.8689 72.7074 69.9873 74.0467 69.1695 75.2922C66.115 79.944 60.5651 82.8901 55.6155 82.4873C51.0816 82.1183 47.131 79.3493 45.2094 75.1936C44.3721 73.3827 43.8321 72.604 43.8323 69.558C43.8326 66.7216 44.3949 65.6802 45.031 64.2842C46.1085 61.9193 48.5971 59.2704 50.8086 58.1341C52.422 57.3051 52.9669 57.2152 55.4099 57.3749C57.0991 57.4853 58.8817 57.869 59.9758 58.3579C60.963 58.7989 61.8407 59.0887 61.9262 59.002C62.0118 58.9153 61.5361 57.781 60.8691 56.4814C59.7608 54.3217 59.4843 52.7103 59.6526 50.7702C59.9267 47.6106 60.9289 44.1389 63.2046 41.9627C65.5847 39.6866 68.2477 38.581 72.4911 38.741C76.439 38.8898 78.7309 40.1079 80.8628 42.2819C82.9485 44.4086 83.9863 47.6167 84.2327 50.6055C84.3973 52.6012 84.1168 54.026 82.9238 56.465C82.2039 57.9368 81.7299 59.141 81.8704 59.141C82.011 59.141 83.0953 58.684 84.2801 58.1254C89.8208 55.5132 96.1741 58.0435 98.8594 63.9319C99.5038 65.345 100.026 66.3483 100.024 69.558C100.021 72.9575 99.5203 73.7058 98.7322 75.3246C96.2399 80.4435 90.4622 83.3972 85.1857 82.2498C80.6934 81.273 76.9154 78.5241 74.1497 74.2201C73.291 72.8837 72.5121 71.7903 72.4188 71.7903C72.1479 71.7903 72.6936 76.5963 73.253 79.138C74.3425 84.088 77.5854 88.5818 81.6946 90.8358C83.2668 91.6982 86.4688 92.7358 89.968 93.5169C90.5132 93.6386 91.0171 94.0578 91.1261 94.4804C91.3176 95.2229 91.1733 95.2286 72.0898 95.2286C61.5138 95.2286 52.8631 95.103 52.8662 94.9495Z" fill="#0F0E16"/>
<path d="M51.8662 257.05C51.8829 257.879 52.7935 258.367 55.8901 259.207C60.5445 260.47 62.1601 261.254 64.309 263.292C68.0742 266.863 70.1554 271.538 70.4324 277.047C70.5738 279.861 70.5253 280.282 70.1286 279.684C69.8689 279.293 68.9873 277.953 68.1695 276.708C65.115 272.056 59.5651 269.11 54.6155 269.513C50.0816 269.882 46.131 272.651 44.2094 276.806C43.3721 278.617 42.8321 279.396 42.8323 282.442C42.8326 285.278 43.3949 286.32 44.031 287.716C45.1085 290.081 47.5971 292.73 49.8086 293.866C51.422 294.695 51.9669 294.785 54.4099 294.625C56.0991 294.515 57.8817 294.131 58.9758 293.642C59.963 293.201 60.8407 292.911 60.9262 292.998C61.0118 293.085 60.5361 294.219 59.8691 295.519C58.7608 297.678 58.4843 299.29 58.6526 301.23C58.9267 304.389 59.9289 307.861 62.2046 310.037C64.5847 312.313 67.2477 313.419 71.4911 313.259C75.439 313.11 77.7309 311.892 79.8628 309.718C81.9485 307.591 82.9863 304.383 83.2327 301.395C83.3973 299.399 83.1168 297.974 81.9238 295.535C81.2039 294.063 80.7299 292.859 80.8704 292.859C81.011 292.859 82.0953 293.316 83.2801 293.875C88.8208 296.487 95.1741 293.956 97.8594 288.068C98.5038 286.655 99.0263 285.652 99.024 282.442C99.0213 279.043 98.5203 278.294 97.7322 276.675C95.2399 271.556 89.4622 268.603 84.1857 269.75C79.6934 270.727 75.9154 273.476 73.1497 277.78C72.291 279.116 71.5121 280.21 71.4188 280.21C71.1479 280.21 71.6936 275.404 72.253 272.862C73.3425 267.912 76.5854 263.418 80.6946 261.164C82.2668 260.302 85.4688 259.264 88.968 258.483C89.5132 258.361 90.0171 257.942 90.1261 257.52C90.3176 256.777 90.1733 256.771 71.0898 256.771C60.5138 256.771 51.8631 256.897 51.8662 257.05Z" fill="#0F0E16"/>
<mask id="mask1_155_834" style="mask-type:luminance" maskUnits="userSpaceOnUse" x="152" y="35" width="64" height="68">
<path d="M216 35H152V103H216V35Z" fill="white"/>
</mask>
<g mask="url(#mask1_155_834)">
<path d="M161.034 95.2238C161.051 94.3951 161.961 93.9069 165.058 93.0667C169.712 91.8038 171.328 91.0199 173.477 88.9819C177.242 85.4109 179.323 80.7358 179.6 75.2268C179.741 72.4132 179.693 71.9921 179.296 72.5902C179.037 72.9816 178.155 74.3209 177.337 75.5665C174.283 80.2182 168.733 83.1644 163.783 82.7615C159.249 82.3925 155.299 79.6235 153.377 75.4679C152.54 73.657 152 72.8782 152 69.8323C152 66.9959 152.563 65.9544 153.199 64.5584C154.276 62.1936 156.765 59.5446 158.976 58.4083C160.59 57.5793 161.135 57.4894 163.578 57.6491C165.267 57.7595 167.049 58.1433 168.144 58.6321C169.131 59.0731 170.008 59.363 170.094 59.2762C170.179 59.1895 169.704 58.0552 169.037 56.7556C167.928 54.5959 167.652 52.9846 167.82 51.0444C168.094 47.8848 169.097 44.4131 171.372 42.2369C173.752 39.9608 176.415 38.8552 180.659 39.0152C184.607 39.164 186.899 40.3821 189.03 42.5561C191.116 44.6829 192.154 47.8909 192.4 50.8797C192.565 52.8754 192.285 54.3002 191.091 56.7393C190.372 58.2111 189.898 59.4153 190.038 59.4153C190.179 59.4153 191.263 58.9582 192.448 58.3996C197.988 55.7874 204.342 58.3178 207.027 64.2062C207.671 65.6192 208.194 66.6225 208.192 69.8323C208.189 73.2317 207.688 73.9801 206.9 75.5988C204.408 80.7177 198.63 83.6714 193.353 82.524C188.861 81.5472 185.083 78.7983 182.317 74.4943C181.459 73.1579 180.68 72.0645 180.586 72.0645C180.316 72.0645 180.861 76.8706 181.421 79.4122C182.51 84.3623 185.753 88.8561 189.862 91.1101C191.434 91.9724 194.636 93.0101 198.136 93.7911C198.681 93.9128 199.185 94.332 199.294 94.7546C199.485 95.4971 199.341 95.5028 180.258 95.5028C169.681 95.5028 161.031 95.3772 161.034 95.2238Z" fill="#0F0E16"/>
</g>
<path d="M156.866 257.05C156.883 257.879 157.794 258.367 160.89 259.207C165.545 260.47 167.16 261.254 169.309 263.292C173.074 266.863 175.155 271.538 175.432 277.047C175.574 279.861 175.525 280.282 175.129 279.684C174.869 279.293 173.987 277.953 173.169 276.708C170.115 272.056 164.565 269.11 159.615 269.513C155.082 269.882 151.131 272.651 149.209 276.806C148.372 278.617 147.832 279.396 147.832 282.442C147.833 285.278 148.395 286.32 149.031 287.716C150.109 290.081 152.597 292.73 154.809 293.866C156.422 294.695 156.967 294.785 159.41 294.625C161.099 294.515 162.882 294.131 163.976 293.642C164.963 293.201 165.841 292.911 165.926 292.998C166.012 293.085 165.536 294.219 164.869 295.519C163.761 297.678 163.484 299.29 163.653 301.23C163.927 304.389 164.929 307.861 167.205 310.037C169.585 312.313 172.248 313.419 176.491 313.259C180.439 313.11 182.731 311.892 184.863 309.718C186.948 307.591 187.986 304.383 188.233 301.395C188.397 299.399 188.117 297.974 186.924 295.535C186.204 294.063 185.73 292.859 185.87 292.859C186.011 292.859 187.095 293.316 188.28 293.875C193.821 296.487 200.174 293.956 202.859 288.068C203.504 286.655 204.026 285.652 204.024 282.442C204.021 279.043 203.52 278.294 202.732 276.675C200.24 271.556 194.462 268.603 189.186 269.75C184.693 270.727 180.915 273.476 178.15 277.78C177.291 279.116 176.512 280.21 176.419 280.21C176.148 280.21 176.694 275.404 177.253 272.862C178.343 267.912 181.585 263.418 185.695 261.164C187.267 260.302 190.469 259.264 193.968 258.483C194.513 258.361 195.017 257.942 195.126 257.52C195.318 256.777 195.173 256.771 176.09 256.771C165.514 256.771 156.863 256.897 156.866 257.05Z" fill="#0F0E16"/>
<path d="M105.866 141.95C105.883 141.121 106.794 140.633 109.89 139.793C114.545 138.53 116.16 137.746 118.309 135.708C122.074 132.137 124.155 127.462 124.432 121.953C124.574 119.139 124.525 118.718 124.129 119.316C123.869 119.707 122.987 121.047 122.169 122.292C119.115 126.944 113.565 129.89 108.615 129.487C104.082 129.118 100.131 126.349 98.2094 122.194C97.3721 120.383 96.8321 119.604 96.8323 116.558C96.8326 113.722 97.3949 112.68 98.031 111.284C99.1085 108.919 101.597 106.27 103.809 105.134C105.422 104.305 105.967 104.215 108.41 104.375C110.099 104.485 111.882 104.869 112.976 105.358C113.963 105.799 114.841 106.089 114.926 106.002C115.012 105.915 114.536 104.781 113.869 103.481C112.761 101.322 112.484 99.7103 112.653 97.7702C112.927 94.6106 113.929 91.1389 116.205 88.9627C118.585 86.6866 121.248 85.581 125.491 85.741C129.439 85.8898 131.731 87.1079 133.863 89.2819C135.948 91.4086 136.986 94.6167 137.233 97.6055C137.397 99.6012 137.117 101.026 135.924 103.465C135.204 104.937 134.73 106.141 134.87 106.141C135.011 106.141 136.095 105.684 137.28 105.125C142.821 102.513 149.174 105.044 151.859 110.932C152.504 112.345 153.026 113.348 153.024 116.558C153.021 119.957 152.52 120.706 151.732 122.325C149.24 127.444 143.462 130.397 138.186 129.25C133.693 128.273 129.915 125.524 127.15 121.22C126.291 119.884 125.512 118.79 125.419 118.79C125.148 118.79 125.694 123.596 126.253 126.138C127.343 131.088 130.585 135.582 134.695 137.836C136.267 138.698 139.469 139.736 142.968 140.517C143.513 140.639 144.017 141.058 144.126 141.48C144.318 142.223 144.173 142.229 125.09 142.229C114.514 142.229 105.863 142.103 105.866 141.95Z" fill="#0F0E16"/>
<path d="M105.866 213.05C105.883 213.879 106.794 214.367 109.89 215.207C114.545 216.47 116.16 217.254 118.309 219.292C122.074 222.863 124.155 227.538 124.432 233.047C124.574 235.861 124.525 236.282 124.129 235.684C123.869 235.293 122.987 233.953 122.169 232.708C119.115 228.056 113.565 225.11 108.615 225.513C104.082 225.882 100.131 228.651 98.2094 232.806C97.3721 234.617 96.8321 235.396 96.8323 238.442C96.8326 241.278 97.3949 242.32 98.031 243.716C99.1085 246.081 101.597 248.73 103.809 249.866C105.422 250.695 105.967 250.785 108.41 250.625C110.099 250.515 111.882 250.131 112.976 249.642C113.963 249.201 114.841 248.911 114.926 248.998C115.012 249.085 114.536 250.219 113.869 251.519C112.761 253.678 112.484 255.29 112.653 257.23C112.927 260.389 113.929 263.861 116.205 266.037C118.585 268.313 121.248 269.419 125.491 269.259C129.439 269.11 131.731 267.892 133.863 265.718C135.948 263.591 136.986 260.383 137.233 257.395C137.397 255.399 137.117 253.974 135.924 251.535C135.204 250.063 134.73 248.859 134.87 248.859C135.011 248.859 136.095 249.316 137.28 249.875C142.821 252.487 149.174 249.956 151.859 244.068C152.504 242.655 153.026 241.652 153.024 238.442C153.021 235.043 152.52 234.294 151.732 232.675C149.24 227.556 143.462 224.603 138.186 225.75C133.693 226.727 129.915 229.476 127.15 233.78C126.291 235.116 125.512 236.21 125.419 236.21C125.148 236.21 125.694 231.404 126.253 228.862C127.343 223.912 130.585 219.418 134.695 217.164C136.267 216.302 139.469 215.264 142.968 214.483C143.513 214.361 144.017 213.942 144.126 213.52C144.318 212.777 144.173 212.771 125.09 212.771C114.514 212.771 105.863 212.897 105.866 213.05Z" fill="#0F0E16"/>
<path d="M181.866 193.95C181.883 193.121 182.794 192.633 185.89 191.793C190.545 190.53 192.16 189.746 194.309 187.708C198.074 184.137 200.155 179.462 200.432 173.953C200.574 171.139 200.525 170.718 200.129 171.316C199.869 171.707 198.987 173.047 198.169 174.292C195.115 178.944 189.565 181.89 184.615 181.487C180.082 181.118 176.131 178.349 174.209 174.194C173.372 172.383 172.832 171.604 172.832 168.558C172.833 165.722 173.395 164.68 174.031 163.284C175.109 160.919 177.597 158.27 179.809 157.134C181.422 156.305 181.967 156.215 184.41 156.375C186.099 156.485 187.882 156.869 188.976 157.358C189.963 157.799 190.841 158.089 190.926 158.002C191.012 157.915 190.536 156.781 189.869 155.481C188.761 153.322 188.484 151.71 188.653 149.77C188.927 146.611 189.929 143.139 192.205 140.963C194.585 138.687 197.248 137.581 201.491 137.741C205.439 137.89 207.731 139.108 209.863 141.282C211.948 143.409 212.986 146.617 213.233 149.605C213.397 151.601 213.117 153.026 211.924 155.465C211.204 156.937 210.73 158.141 210.87 158.141C211.011 158.141 212.095 157.684 213.28 157.125C218.821 154.513 225.174 157.044 227.859 162.932C228.504 164.345 229.026 165.348 229.024 168.558C229.021 171.957 228.52 172.706 227.732 174.325C225.24 179.444 219.462 182.397 214.186 181.25C209.693 180.273 205.915 177.524 203.15 173.22C202.291 171.884 201.512 170.79 201.419 170.79C201.148 170.79 201.694 175.596 202.253 178.138C203.343 183.088 206.585 187.582 210.695 189.836C212.267 190.698 215.469 191.736 218.968 192.517C219.513 192.639 220.017 193.058 220.126 193.48C220.318 194.223 220.173 194.229 201.09 194.229C190.514 194.229 181.863 194.103 181.866 193.95Z" fill="#0F0E16"/>
<path d="M24.8662 193.95C24.8829 193.121 25.7935 192.633 28.8901 191.793C33.5445 190.53 35.1601 189.746 37.309 187.708C41.0742 184.137 43.1554 179.462 43.4324 173.953C43.5738 171.139 43.5253 170.718 43.1286 171.316C42.8689 171.707 41.9873 173.047 41.1695 174.292C38.115 178.944 32.5651 181.89 27.6155 181.487C23.0816 181.118 19.131 178.349 17.2094 174.194C16.3721 172.383 15.8321 171.604 15.8323 168.558C15.8326 165.722 16.3949 164.68 17.031 163.284C18.1085 160.919 20.5971 158.27 22.8086 157.134C24.422 156.305 24.9669 156.215 27.4099 156.375C29.0991 156.485 30.8817 156.869 31.9758 157.358C32.963 157.799 33.8407 158.089 33.9262 158.002C34.0118 157.915 33.5361 156.781 32.8691 155.481C31.7608 153.322 31.4843 151.71 31.6526 149.77C31.9267 146.611 32.9289 143.139 35.2046 140.963C37.5847 138.687 40.2477 137.581 44.4911 137.741C48.439 137.89 50.7309 139.108 52.8628 141.282C54.9485 143.409 55.9863 146.617 56.2327 149.605C56.3973 151.601 56.1168 153.026 54.9238 155.465C54.2039 156.937 53.7299 158.141 53.8704 158.141C54.011 158.141 55.0953 157.684 56.2801 157.125C61.8208 154.513 68.1741 157.044 70.8594 162.932C71.5038 164.345 72.0263 165.348 72.024 168.558C72.0213 171.957 71.5203 172.706 70.7322 174.325C68.2399 179.444 62.4622 182.397 57.1857 181.25C52.6934 180.273 48.9154 177.524 46.1497 173.22C45.291 171.884 44.5121 170.79 44.4188 170.79C44.1479 170.79 44.6936 175.596 45.253 178.138C46.3425 183.088 49.5854 187.582 53.6946 189.836C55.2668 190.698 58.4688 191.736 61.968 192.517C62.5132 192.639 63.0171 193.058 63.1261 193.48C63.3176 194.223 63.1733 194.229 44.0898 194.229C33.5138 194.229 24.8631 194.103 24.8662 193.95Z" fill="#0F0E16"/>
<path d="M212.811 271.115C212.818 271.456 213.202 271.657 214.509 272.003C216.472 272.523 217.154 272.846 218.06 273.685C219.649 275.156 220.527 277.081 220.644 279.349C220.703 280.507 220.683 280.681 220.515 280.435C220.406 280.273 220.034 279.722 219.689 279.209C218.4 277.294 216.059 276.081 213.971 276.246C212.058 276.398 210.391 277.539 209.581 279.25C209.227 279.995 209 280.316 209 281.57C209 282.738 209.237 283.167 209.505 283.742C209.96 284.716 211.01 285.806 211.943 286.274C212.624 286.616 212.853 286.653 213.884 286.587C214.597 286.541 215.349 286.383 215.81 286.182C216.227 286 216.597 285.881 216.633 285.917C216.669 285.953 216.469 286.42 216.187 286.955C215.72 287.844 215.603 288.508 215.674 289.306C215.79 290.607 216.212 292.037 217.172 292.933C218.177 293.87 219.3 294.325 221.09 294.26C222.756 294.198 223.723 293.697 224.622 292.802C225.502 291.926 225.94 290.605 226.044 289.374C226.113 288.552 225.995 287.966 225.491 286.961C225.188 286.355 224.988 285.86 225.047 285.86C225.106 285.86 225.564 286.048 226.064 286.278C228.401 287.353 231.081 286.311 232.214 283.887C232.486 283.305 232.707 282.892 232.706 281.57C232.704 280.17 232.493 279.862 232.161 279.196C231.109 277.088 228.672 275.872 226.446 276.344C224.551 276.746 222.957 277.878 221.79 279.651C221.428 280.201 221.099 280.651 221.06 280.651C220.945 280.651 221.176 278.672 221.412 277.626C221.871 275.587 223.239 273.737 224.973 272.809C225.636 272.454 226.987 272.026 228.463 271.705C228.693 271.655 228.906 271.482 228.952 271.308C229.033 271.002 228.972 271 220.921 271C216.459 271 212.81 271.052 212.811 271.115Z" fill="#0F0E16"/>
<path d="M19.8111 81.151C19.8182 80.8098 20.2023 80.6088 21.5087 80.2628C23.4723 79.7428 24.1538 79.42 25.0604 78.5808C26.6489 77.1104 27.5269 75.1854 27.6437 72.917C27.7034 71.7584 27.6829 71.585 27.5156 71.8313C27.406 71.9925 27.0341 72.544 26.6891 73.0568C25.4005 74.9723 23.0591 76.1854 20.971 76.0195C19.0582 75.8676 17.3916 74.7274 16.5809 73.0162C16.2277 72.2706 15.9999 71.9499 16 70.6957C16.0001 69.5277 16.2373 69.0989 16.5056 68.5241C16.9602 67.5503 18.0101 66.4596 18.9431 65.9917C19.6237 65.6504 19.8536 65.6133 20.8842 65.6791C21.5969 65.7246 22.3489 65.8826 22.8105 66.0838C23.227 66.2654 23.5972 66.3848 23.6333 66.3491C23.6694 66.3134 23.4687 65.8463 23.1874 65.3112C22.7198 64.4219 22.6031 63.7584 22.6741 62.9595C22.7898 61.6585 23.2126 60.229 24.1726 59.3329C25.1767 58.3957 26.3002 57.9404 28.0904 58.0063C29.7559 58.0676 30.7228 58.5692 31.6222 59.4643C32.5021 60.34 32.9399 61.661 33.0439 62.8917C33.1133 63.7134 32.995 64.3001 32.4917 65.3044C32.188 65.9105 31.988 66.4063 32.0473 66.4063C32.1066 66.4063 32.564 66.2181 33.0639 65.9881C35.4013 64.9125 38.0816 65.9544 39.2145 68.3791C39.4863 68.9609 39.7068 69.374 39.7058 70.6957C39.7047 72.0954 39.4933 72.4036 39.1608 73.0702C38.1094 75.1779 35.6719 76.3941 33.4459 75.9217C31.5507 75.5195 29.9569 74.3876 28.7901 72.6154C28.4278 72.0651 28.0992 71.6148 28.0599 71.6148C27.9456 71.6148 28.1758 73.5938 28.4118 74.6404C28.8715 76.6786 30.2395 78.529 31.9731 79.4571C32.6364 79.8122 33.9872 80.2395 35.4634 80.5611C35.6935 80.6112 35.906 80.7838 35.952 80.9578C36.0328 81.2636 35.9719 81.2659 27.9211 81.2659C23.4593 81.2659 19.8098 81.2142 19.8111 81.151Z" fill="#0F0E16"/>
</g>
<path d="M84.688 196.16V208H83.232V196.16H84.688ZM95.1695 203.28C95.1695 203.557 95.1535 203.851 95.1215 204.16H88.1135C88.1668 205.024 88.4602 205.701 88.9935 206.192C89.5375 206.672 90.1935 206.912 90.9615 206.912C91.5908 206.912 92.1135 206.768 92.5295 206.48C92.9562 206.181 93.2548 205.787 93.4255 205.296H94.9935C94.7588 206.139 94.2895 206.827 93.5855 207.36C92.8815 207.883 92.0068 208.144 90.9615 208.144C90.1295 208.144 89.3828 207.957 88.7215 207.584C88.0708 207.211 87.5588 206.683 87.1855 206C86.8122 205.307 86.6255 204.507 86.6255 203.6C86.6255 202.693 86.8068 201.899 87.1695 201.216C87.5322 200.533 88.0388 200.011 88.6895 199.648C89.3508 199.275 90.1082 199.088 90.9615 199.088C91.7935 199.088 92.5295 199.269 93.1695 199.632C93.8095 199.995 94.3002 200.496 94.6415 201.136C94.9935 201.765 95.1695 202.48 95.1695 203.28ZM93.6655 202.976C93.6655 202.421 93.5428 201.947 93.2975 201.552C93.0522 201.147 92.7162 200.843 92.2895 200.64C91.8735 200.427 91.4095 200.32 90.8975 200.32C90.1615 200.32 89.5322 200.555 89.0095 201.024C88.4975 201.493 88.2042 202.144 88.1295 202.976H93.6655ZM100.195 208.144C99.5234 208.144 98.9207 208.032 98.3874 207.808C97.854 207.573 97.4327 207.253 97.1234 206.848C96.814 206.432 96.6434 205.957 96.6114 205.424H98.1154C98.158 205.861 98.3607 206.219 98.7234 206.496C99.0967 206.773 99.582 206.912 100.179 206.912C100.734 206.912 101.171 206.789 101.491 206.544C101.811 206.299 101.971 205.989 101.971 205.616C101.971 205.232 101.801 204.949 101.459 204.768C101.118 204.576 100.59 204.389 99.8754 204.208C99.2247 204.037 98.6914 203.867 98.2754 203.696C97.87 203.515 97.518 203.253 97.2194 202.912C96.9314 202.56 96.7874 202.101 96.7874 201.536C96.7874 201.088 96.9207 200.677 97.1874 200.304C97.454 199.931 97.8327 199.637 98.3234 199.424C98.814 199.2 99.374 199.088 100.003 199.088C100.974 199.088 101.758 199.333 102.355 199.824C102.953 200.315 103.273 200.987 103.315 201.84H101.859C101.827 201.381 101.641 201.013 101.299 200.736C100.969 200.459 100.521 200.32 99.9554 200.32C99.4327 200.32 99.0167 200.432 98.7074 200.656C98.398 200.88 98.2434 201.173 98.2434 201.536C98.2434 201.824 98.334 202.064 98.5154 202.256C98.7074 202.437 98.942 202.587 99.2194 202.704C99.5074 202.811 99.902 202.933 100.403 203.072C101.033 203.243 101.545 203.413 101.939 203.584C102.334 203.744 102.67 203.989 102.947 204.32C103.235 204.651 103.385 205.083 103.395 205.616C103.395 206.096 103.262 206.528 102.995 206.912C102.729 207.296 102.35 207.6 101.859 207.824C101.379 208.037 100.825 208.144 100.195 208.144ZM107.227 200.432V205.6C107.227 206.027 107.317 206.331 107.499 206.512C107.68 206.683 107.995 206.768 108.443 206.768H109.515V208H108.203C107.392 208 106.784 207.813 106.379 207.44C105.973 207.067 105.771 206.453 105.771 205.6V200.432H104.635V199.232H105.771V197.024H107.227V199.232H109.515V200.432H107.227ZM110.735 203.584C110.735 202.688 110.916 201.904 111.279 201.232C111.642 200.549 112.138 200.021 112.767 199.648C113.407 199.275 114.116 199.088 114.895 199.088C115.663 199.088 116.33 199.253 116.895 199.584C117.46 199.915 117.882 200.331 118.159 200.832V199.232H119.631V208H118.159V206.368C117.871 206.88 117.439 207.307 116.863 207.648C116.298 207.979 115.636 208.144 114.879 208.144C114.1 208.144 113.396 207.952 112.767 207.568C112.138 207.184 111.642 206.645 111.279 205.952C110.916 205.259 110.735 204.469 110.735 203.584ZM118.159 203.6C118.159 202.939 118.026 202.363 117.759 201.872C117.492 201.381 117.13 201.008 116.671 200.752C116.223 200.485 115.727 200.352 115.183 200.352C114.639 200.352 114.143 200.48 113.695 200.736C113.247 200.992 112.89 201.365 112.623 201.856C112.356 202.347 112.223 202.923 112.223 203.584C112.223 204.256 112.356 204.843 112.623 205.344C112.89 205.835 113.247 206.213 113.695 206.48C114.143 206.736 114.639 206.864 115.183 206.864C115.727 206.864 116.223 206.736 116.671 206.48C117.13 206.213 117.492 205.835 117.759 205.344C118.026 204.843 118.159 204.261 118.159 203.6ZM123.547 200.656C123.803 200.155 124.166 199.765 124.635 199.488C125.115 199.211 125.697 199.072 126.379 199.072V200.576H125.995C124.363 200.576 123.547 201.461 123.547 203.232V208H122.091V199.232H123.547V200.656ZM131.324 206.656L134.044 199.232H135.596L132.156 208H130.46L127.02 199.232H128.588L131.324 206.656ZM136.485 203.584C136.485 202.688 136.666 201.904 137.029 201.232C137.392 200.549 137.888 200.021 138.517 199.648C139.157 199.275 139.866 199.088 140.645 199.088C141.413 199.088 142.08 199.253 142.645 199.584C143.21 199.915 143.632 200.331 143.909 200.832V199.232H145.381V208H143.909V206.368C143.621 206.88 143.189 207.307 142.613 207.648C142.048 207.979 141.386 208.144 140.629 208.144C139.85 208.144 139.146 207.952 138.517 207.568C137.888 207.184 137.392 206.645 137.029 205.952C136.666 205.259 136.485 204.469 136.485 203.584ZM143.909 203.6C143.909 202.939 143.776 202.363 143.509 201.872C143.242 201.381 142.88 201.008 142.421 200.752C141.973 200.485 141.477 200.352 140.933 200.352C140.389 200.352 139.893 200.48 139.445 200.736C138.997 200.992 138.64 201.365 138.373 201.856C138.106 202.347 137.973 202.923 137.973 203.584C137.973 204.256 138.106 204.843 138.373 205.344C138.64 205.835 138.997 206.213 139.445 206.48C139.893 206.736 140.389 206.864 140.933 206.864C141.477 206.864 141.973 206.736 142.421 206.48C142.88 206.213 143.242 205.835 143.509 205.344C143.776 204.843 143.909 204.261 143.909 203.6ZM151.457 199.088C152.215 199.088 152.876 199.253 153.441 199.584C154.017 199.915 154.444 200.331 154.721 200.832V199.232H156.193V208.192C156.193 208.992 156.023 209.701 155.681 210.32C155.34 210.949 154.849 211.44 154.209 211.792C153.58 212.144 152.844 212.32 152.001 212.32C150.849 212.32 149.889 212.048 149.121 211.504C148.353 210.96 147.9 210.219 147.761 209.28H149.201C149.361 209.813 149.692 210.24 150.193 210.56C150.695 210.891 151.297 211.056 152.001 211.056C152.801 211.056 153.452 210.805 153.953 210.304C154.465 209.803 154.721 209.099 154.721 208.192V206.352C154.433 206.864 154.007 207.291 153.441 207.632C152.876 207.973 152.215 208.144 151.457 208.144C150.679 208.144 149.969 207.952 149.329 207.568C148.7 207.184 148.204 206.645 147.841 205.952C147.479 205.259 147.297 204.469 147.297 203.584C147.297 202.688 147.479 201.904 147.841 201.232C148.204 200.549 148.7 200.021 149.329 199.648C149.969 199.275 150.679 199.088 151.457 199.088ZM154.721 203.6C154.721 202.939 154.588 202.363 154.321 201.872C154.055 201.381 153.692 201.008 153.233 200.752C152.785 200.485 152.289 200.352 151.745 200.352C151.201 200.352 150.705 200.48 150.257 200.736C149.809 200.992 149.452 201.365 149.185 201.856C148.919 202.347 148.785 202.923 148.785 203.584C148.785 204.256 148.919 204.843 149.185 205.344C149.452 205.835 149.809 206.213 150.257 206.48C150.705 206.736 151.201 206.864 151.745 206.864C152.289 206.864 152.785 206.736 153.233 206.48C153.692 206.213 154.055 205.835 154.321 205.344C154.588 204.843 154.721 204.261 154.721 203.6ZM162.926 199.072C163.993 199.072 164.857 199.397 165.518 200.048C166.179 200.688 166.51 201.616 166.51 202.832V208H165.07V203.04C165.07 202.165 164.851 201.499 164.414 201.04C163.977 200.571 163.379 200.336 162.622 200.336C161.854 200.336 161.241 200.576 160.782 201.056C160.334 201.536 160.11 202.235 160.11 203.152V208H158.654V199.232H160.11V200.48C160.398 200.032 160.787 199.685 161.278 199.44C161.779 199.195 162.329 199.072 162.926 199.072Z" fill="#0F0E16"/>
</g>
<defs>
<clipPath id="clip0_155_834">
<rect width="250" height="350" fill="white"/>
</clipPath>
</defs>
</svg>
