<svg width="250" height="350" viewBox="0 0 250 350" fill="none" xmlns="http://www.w3.org/2000/svg">
<g clip-path="url(#clip0_1_2)">
<rect width="250" height="350" rx="12.4" fill="#DDDDDD"/>
<path d="M35.872 45.56H21.28L18.592 53H13.984L26.08 19.736H31.12L43.168 53H38.56L35.872 45.56ZM34.624 42.008L28.576 25.112L22.528 42.008H34.624Z" fill="#0F0E16"/>
<path d="M229.472 307.44H214.88L212.192 300H207.584L219.68 333.264H224.72L236.768 300H232.16L229.472 307.44ZM228.224 310.992L222.176 327.888L216.128 310.992H228.224Z" fill="#0F0E16"/>
<g clip-path="url(#clip1_1_2)">
<path fill-rule="evenodd" clip-rule="evenodd" d="M27.9493 56C18.5768 56 11 63.5625 11 72.9183C11 80.397 15.8547 86.7275 22.5895 88.968C23.4315 89.1365 23.7399 88.604 23.7399 88.1561C23.7399 87.7639 23.7122 86.4195 23.7122 85.0187C18.9973 86.0272 18.0154 83.0019 18.0154 83.0019C17.2577 81.0412 16.135 80.5372 16.135 80.5372C14.5919 79.5008 16.2474 79.5008 16.2474 79.5008C17.9592 79.6129 18.8575 81.2374 18.8575 81.2374C20.3726 83.8142 22.814 83.0861 23.7961 82.6379C23.9363 81.5454 24.3856 80.7892 24.8626 80.3691C21.1022 79.9769 17.1457 78.5204 17.1457 72.0218C17.1457 70.1732 17.8187 68.6607 18.8852 67.4843C18.717 67.0643 18.1275 65.3273 19.0538 63.0025C19.0538 63.0025 20.485 62.5543 23.7118 64.7392C25.0934 64.3688 26.5181 64.1804 27.9493 64.1788C29.3805 64.1788 30.8393 64.3751 32.1865 64.7392C35.4137 62.5543 36.8449 63.0025 36.8449 63.0025C37.7712 65.3273 37.1814 67.0643 37.0131 67.4843C38.1077 68.6607 38.753 70.1732 38.753 72.0218C38.753 78.5204 34.7965 79.9487 31.008 80.3691C31.6255 80.9012 32.1584 81.9095 32.1584 83.5062C32.1584 85.7749 32.1307 87.5958 32.1307 88.1557C32.1307 88.604 32.4394 89.1365 33.2811 88.9684C40.0159 86.7271 44.8706 80.397 44.8706 72.9183C44.8983 63.5625 37.2938 56 27.9493 56Z" fill="#0F0E16"/>
</g>
<g clip-path="url(#clip2_1_2)">
<path fill-rule="evenodd" clip-rule="evenodd" d="M124.347 125C95.9532 125 73 147.917 73 176.268C73 198.93 87.7069 218.114 108.109 224.903C110.66 225.414 111.595 223.8 111.595 222.443C111.595 221.254 111.51 217.18 111.51 212.935C97.2271 215.992 94.2527 206.824 94.2527 206.824C91.9573 200.882 88.5562 199.355 88.5562 199.355C83.8812 196.215 88.8967 196.215 88.8967 196.215C94.0824 196.554 96.8035 201.477 96.8035 201.477C101.393 209.285 108.789 207.079 111.765 205.721C112.189 202.41 113.55 200.119 114.996 198.846C103.604 197.657 91.6178 193.244 91.6178 173.551C91.6178 167.949 93.6568 163.366 96.8876 159.801C96.3778 158.528 94.5922 153.265 97.3984 146.22C97.3984 146.22 101.734 144.861 111.509 151.482C115.695 150.36 120.011 149.789 124.347 149.784C128.682 149.784 133.102 150.379 137.183 151.482C146.959 144.861 151.295 146.22 151.295 146.22C154.101 153.265 152.314 158.528 151.804 159.801C155.12 163.366 157.075 167.949 157.075 173.551C157.075 193.244 145.089 197.572 133.612 198.846C135.483 200.458 137.098 203.514 137.098 208.352C137.098 215.227 137.013 220.745 137.013 222.442C137.013 223.8 137.949 225.414 140.499 224.904C160.901 218.112 175.608 198.93 175.608 176.268C175.692 147.917 152.655 125 124.347 125Z" fill="#0F0E16"/>
</g>
<g clip-path="url(#clip3_1_2)">
<path fill-rule="evenodd" clip-rule="evenodd" d="M222.949 297C213.577 297 206 289.438 206 280.082C206 272.603 210.855 266.273 217.589 264.032C218.432 263.864 218.74 264.396 218.74 264.844C218.74 265.236 218.712 266.581 218.712 267.981C213.997 266.973 213.015 269.998 213.015 269.998C212.258 271.959 211.135 272.463 211.135 272.463C209.592 273.499 211.247 273.499 211.247 273.499C212.959 273.387 213.857 271.763 213.857 271.763C215.373 269.186 217.814 269.914 218.796 270.362C218.936 271.455 219.386 272.211 219.863 272.631C216.102 273.023 212.146 274.48 212.146 280.978C212.146 282.827 212.819 284.339 213.885 285.516C213.717 285.936 213.128 287.673 214.054 289.997C214.054 289.997 215.485 290.446 218.712 288.261C220.093 288.631 221.518 288.82 222.949 288.821C224.38 288.821 225.839 288.625 227.187 288.261C230.414 290.446 231.845 289.997 231.845 289.997C232.771 287.673 232.181 285.936 232.013 285.516C233.108 284.339 233.753 282.827 233.753 280.978C233.753 274.48 229.797 273.051 226.008 272.631C226.626 272.099 227.158 271.091 227.158 269.494C227.158 267.225 227.131 265.404 227.131 264.844C227.131 264.396 227.439 263.864 228.281 264.032C235.016 266.273 239.871 272.603 239.871 280.082C239.898 289.438 232.294 297 222.949 297Z" fill="#0F0E16"/>
</g>
<path d="M74.008 238.232V247H72.552V245.704C72.2747 246.152 71.8853 246.504 71.384 246.76C70.8933 247.005 70.3493 247.128 69.752 247.128C69.0693 247.128 68.456 246.989 67.912 246.712C67.368 246.424 66.936 245.997 66.616 245.432C66.3067 244.867 66.152 244.179 66.152 243.368V238.232H67.592V243.176C67.592 244.04 67.8107 244.707 68.248 245.176C68.6853 245.635 69.2827 245.864 70.04 245.864C70.8187 245.864 71.432 245.624 71.88 245.144C72.328 244.664 72.552 243.965 72.552 243.048V238.232H74.008ZM87.0104 238.072C87.693 238.072 88.301 238.216 88.8344 238.504C89.3677 238.781 89.789 239.203 90.0984 239.768C90.4077 240.333 90.5624 241.021 90.5624 241.832V247H89.1224V242.04C89.1224 241.165 88.9037 240.499 88.4664 240.04C88.0397 239.571 87.4584 239.336 86.7224 239.336C85.965 239.336 85.3624 239.581 84.9144 240.072C84.4664 240.552 84.2424 241.251 84.2424 242.168V247H82.8024V242.04C82.8024 241.165 82.5837 240.499 82.1464 240.04C81.7197 239.571 81.1384 239.336 80.4024 239.336C79.645 239.336 79.0424 239.581 78.5944 240.072C78.1464 240.552 77.9224 241.251 77.9224 242.168V247H76.4664V238.232H77.9224V239.496C78.2104 239.037 78.5944 238.685 79.0744 238.44C79.565 238.195 80.1037 238.072 80.6904 238.072C81.4264 238.072 82.077 238.237 82.6424 238.568C83.2077 238.899 83.629 239.384 83.9064 240.024C84.1517 239.405 84.557 238.925 85.1224 238.584C85.6877 238.243 86.317 238.072 87.0104 238.072ZM98.6724 240.088C98.9497 239.491 99.371 239.011 99.9364 238.648C100.512 238.275 101.184 238.088 101.952 238.088C102.731 238.088 103.435 238.275 104.064 238.648C104.704 239.021 105.206 239.549 105.568 240.232C105.931 240.904 106.112 241.688 106.112 242.584C106.112 243.469 105.931 244.259 105.568 244.952C105.206 245.645 104.704 246.184 104.064 246.568C103.435 246.952 102.731 247.144 101.952 247.144C101.184 247.144 100.518 246.957 99.9524 246.584C99.387 246.2 98.9604 245.699 98.6724 245.08V251.16H97.2164V235.16H98.6724V240.088ZM104.624 242.584C104.624 241.923 104.491 241.347 104.224 240.856C103.958 240.365 103.595 239.992 103.136 239.736C102.688 239.48 102.192 239.352 101.648 239.352C101.115 239.352 100.619 239.485 100.16 239.752C99.7124 240.008 99.3497 240.387 99.0724 240.888C98.8057 241.379 98.6724 241.949 98.6724 242.6C98.6724 243.261 98.8057 243.843 99.0724 244.344C99.3497 244.835 99.7124 245.213 100.16 245.48C100.619 245.736 101.115 245.864 101.648 245.864C102.192 245.864 102.688 245.736 103.136 245.48C103.595 245.213 103.958 244.835 104.224 244.344C104.491 243.843 104.624 243.256 104.624 242.584ZM116.029 242.28C116.029 242.557 116.013 242.851 115.981 243.16H108.973C109.026 244.024 109.32 244.701 109.853 245.192C110.397 245.672 111.053 245.912 111.821 245.912C112.45 245.912 112.973 245.768 113.389 245.48C113.816 245.181 114.114 244.787 114.285 244.296H115.853C115.618 245.139 115.149 245.827 114.445 246.36C113.741 246.883 112.866 247.144 111.821 247.144C110.989 247.144 110.242 246.957 109.581 246.584C108.93 246.211 108.418 245.683 108.045 245C107.672 244.307 107.485 243.507 107.485 242.6C107.485 241.693 107.666 240.899 108.029 240.216C108.392 239.533 108.898 239.011 109.549 238.648C110.21 238.275 110.968 238.088 111.821 238.088C112.653 238.088 113.389 238.269 114.029 238.632C114.669 238.995 115.16 239.496 115.501 240.136C115.853 240.765 116.029 241.48 116.029 242.28ZM114.525 241.976C114.525 241.421 114.402 240.947 114.157 240.552C113.912 240.147 113.576 239.843 113.149 239.64C112.733 239.427 112.269 239.32 111.757 239.32C111.021 239.32 110.392 239.555 109.869 240.024C109.357 240.493 109.064 241.144 108.989 241.976H114.525ZM121.055 247.144C120.383 247.144 119.78 247.032 119.247 246.808C118.713 246.573 118.292 246.253 117.983 245.848C117.673 245.432 117.503 244.957 117.471 244.424H118.975C119.017 244.861 119.22 245.219 119.583 245.496C119.956 245.773 120.441 245.912 121.039 245.912C121.593 245.912 122.031 245.789 122.351 245.544C122.671 245.299 122.831 244.989 122.831 244.616C122.831 244.232 122.66 243.949 122.319 243.768C121.977 243.576 121.449 243.389 120.735 243.208C120.084 243.037 119.551 242.867 119.135 242.696C118.729 242.515 118.377 242.253 118.079 241.912C117.791 241.56 117.647 241.101 117.647 240.536C117.647 240.088 117.78 239.677 118.047 239.304C118.313 238.931 118.692 238.637 119.183 238.424C119.673 238.2 120.233 238.088 120.863 238.088C121.833 238.088 122.617 238.333 123.215 238.824C123.812 239.315 124.132 239.987 124.175 240.84H122.719C122.687 240.381 122.5 240.013 122.159 239.736C121.828 239.459 121.38 239.32 120.815 239.32C120.292 239.32 119.876 239.432 119.567 239.656C119.257 239.88 119.103 240.173 119.103 240.536C119.103 240.824 119.193 241.064 119.375 241.256C119.567 241.437 119.801 241.587 120.079 241.704C120.367 241.811 120.761 241.933 121.263 242.072C121.892 242.243 122.404 242.413 122.799 242.584C123.193 242.744 123.529 242.989 123.807 243.32C124.095 243.651 124.244 244.083 124.255 244.616C124.255 245.096 124.121 245.528 123.855 245.912C123.588 246.296 123.209 246.6 122.719 246.824C122.239 247.037 121.684 247.144 121.055 247.144ZM129.414 247.144C128.742 247.144 128.139 247.032 127.606 246.808C127.073 246.573 126.651 246.253 126.342 245.848C126.033 245.432 125.862 244.957 125.83 244.424H127.334C127.377 244.861 127.579 245.219 127.942 245.496C128.315 245.773 128.801 245.912 129.398 245.912C129.953 245.912 130.39 245.789 130.71 245.544C131.03 245.299 131.19 244.989 131.19 244.616C131.19 244.232 131.019 243.949 130.678 243.768C130.337 243.576 129.809 243.389 129.094 243.208C128.443 243.037 127.91 242.867 127.494 242.696C127.089 242.515 126.737 242.253 126.438 241.912C126.15 241.56 126.006 241.101 126.006 240.536C126.006 240.088 126.139 239.677 126.406 239.304C126.673 238.931 127.051 238.637 127.542 238.424C128.033 238.2 128.593 238.088 129.222 238.088C130.193 238.088 130.977 238.333 131.574 238.824C132.171 239.315 132.491 239.987 132.534 240.84H131.078C131.046 240.381 130.859 240.013 130.518 239.736C130.187 239.459 129.739 239.32 129.174 239.32C128.651 239.32 128.235 239.432 127.926 239.656C127.617 239.88 127.462 240.173 127.462 240.536C127.462 240.824 127.553 241.064 127.734 241.256C127.926 241.437 128.161 241.587 128.438 241.704C128.726 241.811 129.121 241.933 129.622 242.072C130.251 242.243 130.763 242.413 131.158 242.584C131.553 242.744 131.889 242.989 132.166 243.32C132.454 243.651 132.603 244.083 132.614 244.616C132.614 245.096 132.481 245.528 132.214 245.912C131.947 246.296 131.569 246.6 131.078 246.824C130.598 247.037 130.043 247.144 129.414 247.144ZM134.126 242.584C134.126 241.688 134.307 240.904 134.67 240.232C135.032 239.549 135.528 239.021 136.158 238.648C136.798 238.275 137.507 238.088 138.286 238.088C139.054 238.088 139.72 238.253 140.286 238.584C140.851 238.915 141.272 239.331 141.55 239.832V238.232H143.022V247H141.55V245.368C141.262 245.88 140.83 246.307 140.254 246.648C139.688 246.979 139.027 247.144 138.27 247.144C137.491 247.144 136.787 246.952 136.158 246.568C135.528 246.184 135.032 245.645 134.67 244.952C134.307 244.259 134.126 243.469 134.126 242.584ZM141.55 242.6C141.55 241.939 141.416 241.363 141.15 240.872C140.883 240.381 140.52 240.008 140.062 239.752C139.614 239.485 139.118 239.352 138.574 239.352C138.03 239.352 137.534 239.48 137.086 239.736C136.638 239.992 136.28 240.365 136.014 240.856C135.747 241.347 135.614 241.923 135.614 242.584C135.614 243.256 135.747 243.843 136.014 244.344C136.28 244.835 136.638 245.213 137.086 245.48C137.534 245.736 138.03 245.864 138.574 245.864C139.118 245.864 139.614 245.736 140.062 245.48C140.52 245.213 140.883 244.835 141.15 244.344C141.416 243.843 141.55 243.261 141.55 242.6ZM152.852 247.144C152.18 247.144 151.577 247.032 151.044 246.808C150.51 246.573 150.089 246.253 149.78 245.848C149.47 245.432 149.3 244.957 149.268 244.424H150.772C150.814 244.861 151.017 245.219 151.38 245.496C151.753 245.773 152.238 245.912 152.836 245.912C153.39 245.912 153.828 245.789 154.148 245.544C154.468 245.299 154.628 244.989 154.628 244.616C154.628 244.232 154.457 243.949 154.116 243.768C153.774 243.576 153.246 243.389 152.532 243.208C151.881 243.037 151.348 242.867 150.932 242.696C150.526 242.515 150.174 242.253 149.876 241.912C149.588 241.56 149.444 241.101 149.444 240.536C149.444 240.088 149.577 239.677 149.844 239.304C150.11 238.931 150.489 238.637 150.98 238.424C151.47 238.2 152.03 238.088 152.66 238.088C153.63 238.088 154.414 238.333 155.012 238.824C155.609 239.315 155.929 239.987 155.972 240.84H154.516C154.484 240.381 154.297 240.013 153.956 239.736C153.625 239.459 153.177 239.32 152.612 239.32C152.089 239.32 151.673 239.432 151.364 239.656C151.054 239.88 150.9 240.173 150.9 240.536C150.9 240.824 150.99 241.064 151.172 241.256C151.364 241.437 151.598 241.587 151.876 241.704C152.164 241.811 152.558 241.933 153.06 242.072C153.689 242.243 154.201 242.413 154.596 242.584C154.99 242.744 155.326 242.989 155.604 243.32C155.892 243.651 156.041 244.083 156.052 244.616C156.052 245.096 155.918 245.528 155.652 245.912C155.385 246.296 155.006 246.6 154.516 246.824C154.036 247.037 153.481 247.144 152.852 247.144ZM159.563 238.232V247H158.107V238.232H159.563ZM160.395 235.752L156.987 237.576V236.488L160.395 234.488V235.752ZM168.141 236.44C169.613 238.072 170.349 239.912 170.349 241.96C170.349 243.08 170.157 244.029 169.773 244.808C169.389 245.576 168.855 246.157 168.173 246.552C167.501 246.947 166.733 247.144 165.869 247.144C165.026 247.144 164.269 246.957 163.597 246.584C162.935 246.2 162.418 245.661 162.045 244.968C161.682 244.264 161.501 243.459 161.501 242.552C161.501 241.667 161.687 240.888 162.061 240.216C162.434 239.533 162.946 239.005 163.597 238.632C164.247 238.259 164.978 238.072 165.789 238.072C167.058 238.072 168.023 238.563 168.685 239.544C168.343 238.531 167.805 237.613 167.069 236.792L164.989 237.496V236.696L166.493 236.184C166.151 235.853 165.762 235.512 165.325 235.16H166.813C167.239 235.533 167.485 235.752 167.549 235.816L169.645 235.112V235.928L168.141 236.44ZM165.869 245.912C166.402 245.912 166.893 245.784 167.341 245.528C167.799 245.272 168.162 244.893 168.429 244.392C168.706 243.891 168.845 243.293 168.845 242.6C168.845 241.907 168.711 241.309 168.445 240.808C168.178 240.307 167.821 239.933 167.373 239.688C166.925 239.432 166.434 239.304 165.901 239.304C165.367 239.304 164.877 239.432 164.429 239.688C163.991 239.933 163.639 240.301 163.373 240.792C163.117 241.272 162.989 241.859 162.989 242.552C162.989 243.256 163.117 243.864 163.373 244.376C163.629 244.877 163.975 245.261 164.413 245.528C164.85 245.784 165.335 245.912 165.869 245.912ZM180.024 238.232V247H178.568V245.704C178.29 246.152 177.901 246.504 177.4 246.76C176.909 247.005 176.365 247.128 175.768 247.128C175.085 247.128 174.472 246.989 173.928 246.712C173.384 246.424 172.952 245.997 172.632 245.432C172.322 244.867 172.168 244.179 172.168 243.368V238.232H173.608V243.176C173.608 244.04 173.826 244.707 174.264 245.176C174.701 245.635 175.298 245.864 176.056 245.864C176.834 245.864 177.448 245.624 177.896 245.144C178.344 244.664 178.568 243.965 178.568 243.048V238.232H180.024Z" fill="#0F0E16"/>
</g>
<defs>
<clipPath id="clip0_1_2">
<rect width="250" height="350" rx="12.4" fill="white"/>
</clipPath>
<clipPath id="clip1_1_2">
<rect width="34" height="33" fill="white" transform="translate(11 56)"/>
</clipPath>
<clipPath id="clip2_1_2">
<rect width="103" height="100" fill="white" transform="translate(73 125)"/>
</clipPath>
<clipPath id="clip3_1_2">
<rect width="34" height="33" fill="white" transform="matrix(1 0 0 -1 206 297)"/>
</clipPath>
</defs>
</svg>
